<svg width="35" height="51" viewBox="0 0 35 51" fill="none" xmlns="http://www.w3.org/2000/svg">
    <rect width="35" height="51" fill="#1E1E1E" />
    <g id="node">
        <circle id="helper-point" cx="17.5" cy="33.5" r="7.5" fill="#F9F0E5" />
        <g id="sticky-note">
            <path d="M35 16H0V51H35V16Z" fill="#FFD6A0" />
            <path d="M35 16H17.5V51H35V16Z" fill="#FFC170" />
            <path d="M27.5 25H7.49998V28H27.5V25Z" fill="white" />
            <path d="M27.5 31H7.49998V34H27.5V31Z" fill="white" />
            <path d="M17.5 37H7.49998V40H17.5V37Z" fill="white" />
            <path d="M35 45.5L31.6389 47.6389L29.5 51H35V45.5Z" fill="#FF9811" />
            <path d="M29.5 51V45.5H35L29.5 51Z" fill="white" />
        </g>
        <g id="pin">
            <path
                d="M27.2823 12.3493L21.8131 11.7226L16.7632 9.53076L19.0175 4.32703L23.6304 4.94027L27.9319 6.71559L27.2823 12.3493Z"
                fill="#FF5811" />
            <path d="M27.2823 12.3493L21.8131 11.7226L23.6304 4.94027L27.9319 6.71559L27.2823 12.3493Z"
                fill="#BF380D" />
            <path d="M19.0175 4.32703L18.7578 0L30.3203 3.09816L27.9319 6.71559L19.0175 4.32703Z" fill="#FF8A70" />
            <path d="M21.8967 14.5409L20.3316 14.1215L18.0948 22.469L19.66 22.8884L21.8967 14.5409Z" fill="#AED5F3" />
            <path d="M27.5893 17.4642L13.9399 13.8068L16.7632 9.53076L27.2823 12.3493L27.5893 17.4642Z"
                fill="#FF8A70" />
            <path d="M23.4747 5.52129L24.539 1.54908L30.3203 3.09816L27.9319 6.71559L23.4747 5.52129Z" fill="#FF5811" />
            <path d="M27.5893 17.4642L20.7646 15.6355L22.0227 10.94L27.2823 12.3493L27.5893 17.4642Z" fill="#FF5811" />
        </g>
    </g>
</svg>