<svg width="1000" height="800" viewBox="0 0 1000 800" fill="none" xmlns="http://www.w3.org/2000/svg">
<g id="GraphNetwork">
<path id="01" d="M146.25 118.199C145.18 118.199 144.268 117.908 143.516 117.325C142.763 116.738 142.188 115.888 141.79 114.776C141.392 113.658 141.193 112.309 141.193 110.727C141.193 109.155 141.392 107.813 141.79 106.7C142.192 105.583 142.77 104.731 143.523 104.143C144.28 103.552 145.189 103.256 146.25 103.256C147.311 103.256 148.217 103.552 148.97 104.143C149.728 104.731 150.305 105.583 150.703 106.7C151.106 107.813 151.307 109.155 151.307 110.727C151.307 112.309 151.108 113.658 150.71 114.776C150.312 115.888 149.737 116.738 148.984 117.325C148.232 117.908 147.32 118.199 146.25 118.199ZM146.25 116.636C147.311 116.636 148.134 116.125 148.722 115.102C149.309 114.08 149.602 112.621 149.602 110.727C149.602 109.468 149.467 108.395 149.197 107.51C148.932 106.625 148.549 105.95 148.047 105.486C147.55 105.022 146.951 104.79 146.25 104.79C145.199 104.79 144.377 105.308 143.786 106.345C143.194 107.377 142.898 108.838 142.898 110.727C142.898 111.987 143.03 113.057 143.295 113.938C143.561 114.818 143.942 115.488 144.439 115.947C144.941 116.407 145.545 116.636 146.25 116.636ZM159.119 103.455V118H157.358V105.301H157.273L153.722 107.659V105.869L157.358 103.455H159.119Z" fill="black"/>
<path id="02" d="M246.25 118.199C245.18 118.199 244.268 117.908 243.516 117.325C242.763 116.738 242.188 115.888 241.79 114.776C241.392 113.658 241.193 112.309 241.193 110.727C241.193 109.155 241.392 107.813 241.79 106.7C242.192 105.583 242.77 104.731 243.523 104.143C244.28 103.552 245.189 103.256 246.25 103.256C247.311 103.256 248.217 103.552 248.97 104.143C249.728 104.731 250.305 105.583 250.703 106.7C251.106 107.813 251.307 109.155 251.307 110.727C251.307 112.309 251.108 113.658 250.71 114.776C250.312 115.888 249.737 116.738 248.984 117.325C248.232 117.908 247.32 118.199 246.25 118.199ZM246.25 116.636C247.311 116.636 248.134 116.125 248.722 115.102C249.309 114.08 249.602 112.621 249.602 110.727C249.602 109.468 249.467 108.395 249.197 107.51C248.932 106.625 248.549 105.95 248.047 105.486C247.55 105.022 246.951 104.79 246.25 104.79C245.199 104.79 244.377 105.308 243.786 106.345C243.194 107.377 242.898 108.838 242.898 110.727C242.898 111.987 243.03 113.057 243.295 113.938C243.561 114.818 243.942 115.488 244.439 115.947C244.941 116.407 245.545 116.636 246.25 116.636ZM254.006 118V116.722L258.807 111.466C259.37 110.85 259.834 110.315 260.199 109.861C260.563 109.402 260.833 108.971 261.009 108.568C261.188 108.161 261.278 107.735 261.278 107.29C261.278 106.778 261.155 106.336 260.909 105.962C260.668 105.588 260.336 105.299 259.915 105.095C259.493 104.892 259.02 104.79 258.494 104.79C257.936 104.79 257.448 104.906 257.031 105.138C256.619 105.365 256.3 105.685 256.072 106.097C255.85 106.509 255.739 106.991 255.739 107.545H254.062C254.062 106.693 254.259 105.945 254.652 105.301C255.045 104.657 255.58 104.155 256.257 103.795C256.939 103.436 257.704 103.256 258.551 103.256C259.403 103.256 260.159 103.436 260.817 103.795C261.475 104.155 261.991 104.641 262.365 105.251C262.739 105.862 262.926 106.542 262.926 107.29C262.926 107.825 262.829 108.348 262.635 108.859C262.446 109.366 262.114 109.932 261.641 110.557C261.172 111.177 260.521 111.935 259.688 112.83L256.42 116.324V116.438H263.182V118H254.006Z" fill="black"/>
<path id="03" d="M346.25 117.199C345.18 117.199 344.268 116.908 343.516 116.325C342.763 115.738 342.188 114.888 341.79 113.776C341.392 112.658 341.193 111.309 341.193 109.727C341.193 108.155 341.392 106.813 341.79 105.7C342.192 104.583 342.77 103.731 343.523 103.143C344.28 102.552 345.189 102.256 346.25 102.256C347.311 102.256 348.217 102.552 348.97 103.143C349.728 103.731 350.305 104.583 350.703 105.7C351.106 106.813 351.307 108.155 351.307 109.727C351.307 111.309 351.108 112.658 350.71 113.776C350.312 114.888 349.737 115.738 348.984 116.325C348.232 116.908 347.32 117.199 346.25 117.199ZM346.25 115.636C347.311 115.636 348.134 115.125 348.722 114.102C349.309 113.08 349.602 111.621 349.602 109.727C349.602 108.468 349.467 107.395 349.197 106.51C348.932 105.625 348.549 104.95 348.047 104.486C347.55 104.022 346.951 103.79 346.25 103.79C345.199 103.79 344.377 104.308 343.786 105.345C343.194 106.377 342.898 107.838 342.898 109.727C342.898 110.987 343.03 112.057 343.295 112.938C343.561 113.818 343.942 114.488 344.439 114.947C344.941 115.407 345.545 115.636 346.25 115.636ZM358.92 117.199C357.983 117.199 357.147 117.038 356.413 116.716C355.684 116.394 355.104 115.946 354.673 115.374C354.247 114.796 354.015 114.126 353.977 113.364H355.767C355.805 113.832 355.966 114.237 356.25 114.578C356.534 114.914 356.906 115.175 357.365 115.359C357.824 115.544 358.333 115.636 358.892 115.636C359.517 115.636 360.071 115.527 360.554 115.31C361.037 115.092 361.416 114.789 361.69 114.401C361.965 114.012 362.102 113.562 362.102 113.051C362.102 112.516 361.97 112.045 361.705 111.638C361.439 111.226 361.051 110.904 360.54 110.672C360.028 110.44 359.403 110.324 358.665 110.324H357.5V108.761H358.665C359.242 108.761 359.749 108.657 360.185 108.449C360.625 108.241 360.968 107.947 361.214 107.568C361.465 107.189 361.591 106.744 361.591 106.233C361.591 105.741 361.482 105.312 361.264 104.947C361.046 104.583 360.739 104.299 360.341 104.095C359.948 103.892 359.484 103.79 358.949 103.79C358.447 103.79 357.973 103.882 357.528 104.067C357.088 104.247 356.728 104.509 356.449 104.855C356.17 105.196 356.018 105.608 355.994 106.091H354.29C354.318 105.329 354.548 104.661 354.979 104.088C355.41 103.51 355.973 103.061 356.669 102.739C357.37 102.417 358.139 102.256 358.977 102.256C359.877 102.256 360.649 102.438 361.293 102.803C361.937 103.162 362.431 103.638 362.777 104.23C363.123 104.822 363.295 105.461 363.295 106.148C363.295 106.967 363.08 107.665 362.649 108.243C362.223 108.821 361.643 109.221 360.909 109.443V109.557C361.828 109.708 362.545 110.099 363.061 110.729C363.577 111.354 363.835 112.128 363.835 113.051C363.835 113.842 363.62 114.552 363.189 115.182C362.763 115.807 362.18 116.299 361.442 116.659C360.703 117.019 359.863 117.199 358.92 117.199Z" fill="black"/>
<path id="04" d="M245.25 210.199C244.18 210.199 243.268 209.908 242.516 209.325C241.763 208.738 241.188 207.888 240.79 206.776C240.392 205.658 240.193 204.309 240.193 202.727C240.193 201.155 240.392 199.813 240.79 198.7C241.192 197.583 241.77 196.731 242.523 196.143C243.28 195.552 244.189 195.256 245.25 195.256C246.311 195.256 247.217 195.552 247.97 196.143C248.728 196.731 249.305 197.583 249.703 198.7C250.106 199.813 250.307 201.155 250.307 202.727C250.307 204.309 250.108 205.658 249.71 206.776C249.312 207.888 248.737 208.738 247.984 209.325C247.232 209.908 246.32 210.199 245.25 210.199ZM245.25 208.636C246.311 208.636 247.134 208.125 247.722 207.102C248.309 206.08 248.602 204.621 248.602 202.727C248.602 201.468 248.467 200.395 248.197 199.51C247.932 198.625 247.549 197.95 247.047 197.486C246.55 197.022 245.951 196.79 245.25 196.79C244.199 196.79 243.377 197.308 242.786 198.345C242.194 199.377 241.898 200.838 241.898 202.727C241.898 203.987 242.03 205.057 242.295 205.938C242.561 206.818 242.942 207.488 243.439 207.947C243.941 208.407 244.545 208.636 245.25 208.636ZM252.665 207.017V205.568L259.057 195.455H260.108V197.699H259.398L254.568 205.341V205.455H263.176V207.017H252.665ZM259.511 210V206.577V205.902V195.455H261.188V210H259.511Z" fill="black"/>
<path id="05" d="M144.25 302.199C143.18 302.199 142.268 301.908 141.516 301.325C140.763 300.738 140.188 299.888 139.79 298.776C139.392 297.658 139.193 296.309 139.193 294.727C139.193 293.155 139.392 291.813 139.79 290.7C140.192 289.583 140.77 288.731 141.523 288.143C142.28 287.552 143.189 287.256 144.25 287.256C145.311 287.256 146.217 287.552 146.97 288.143C147.728 288.731 148.305 289.583 148.703 290.7C149.106 291.813 149.307 293.155 149.307 294.727C149.307 296.309 149.108 297.658 148.71 298.776C148.312 299.888 147.737 300.738 146.984 301.325C146.232 301.908 145.32 302.199 144.25 302.199ZM144.25 300.636C145.311 300.636 146.134 300.125 146.722 299.102C147.309 298.08 147.602 296.621 147.602 294.727C147.602 293.468 147.467 292.395 147.197 291.51C146.932 290.625 146.549 289.95 146.047 289.486C145.55 289.022 144.951 288.79 144.25 288.79C143.199 288.79 142.377 289.308 141.786 290.345C141.194 291.377 140.898 292.838 140.898 294.727C140.898 295.987 141.03 297.057 141.295 297.938C141.561 298.818 141.942 299.488 142.439 299.947C142.941 300.407 143.545 300.636 144.25 300.636ZM156.551 302.199C155.718 302.199 154.967 302.033 154.3 301.702C153.632 301.37 153.097 300.916 152.695 300.338C152.292 299.76 152.072 299.102 152.034 298.364H153.739C153.805 299.022 154.103 299.566 154.634 299.997C155.169 300.423 155.808 300.636 156.551 300.636C157.148 300.636 157.678 300.497 158.142 300.217C158.611 299.938 158.978 299.554 159.243 299.067C159.513 298.574 159.648 298.018 159.648 297.398C159.648 296.763 159.508 296.197 159.229 295.7C158.954 295.198 158.575 294.803 158.092 294.514C157.609 294.225 157.058 294.079 156.438 294.074C155.992 294.069 155.536 294.138 155.067 294.28C154.598 294.417 154.212 294.595 153.909 294.812L152.261 294.614L153.142 287.455H160.699V289.017H154.619L154.108 293.307H154.193C154.491 293.07 154.866 292.874 155.315 292.717C155.765 292.561 156.234 292.483 156.722 292.483C157.612 292.483 158.405 292.696 159.101 293.122C159.802 293.544 160.351 294.121 160.749 294.855C161.151 295.589 161.352 296.427 161.352 297.369C161.352 298.297 161.144 299.126 160.727 299.855C160.315 300.58 159.747 301.152 159.023 301.574C158.298 301.991 157.474 302.199 156.551 302.199Z" fill="black"/>
<path id="06" d="M366.25 318.199C365.18 318.199 364.268 317.908 363.516 317.325C362.763 316.738 362.188 315.888 361.79 314.776C361.392 313.658 361.193 312.309 361.193 310.727C361.193 309.155 361.392 307.813 361.79 306.7C362.192 305.583 362.77 304.731 363.523 304.143C364.28 303.552 365.189 303.256 366.25 303.256C367.311 303.256 368.217 303.552 368.97 304.143C369.728 304.731 370.305 305.583 370.703 306.7C371.106 307.813 371.307 309.155 371.307 310.727C371.307 312.309 371.108 313.658 370.71 314.776C370.312 315.888 369.737 316.738 368.984 317.325C368.232 317.908 367.32 318.199 366.25 318.199ZM366.25 316.636C367.311 316.636 368.134 316.125 368.722 315.102C369.309 314.08 369.602 312.621 369.602 310.727C369.602 309.468 369.467 308.395 369.197 307.51C368.932 306.625 368.549 305.95 368.047 305.486C367.55 305.022 366.951 304.79 366.25 304.79C365.199 304.79 364.377 305.308 363.786 306.345C363.194 307.377 362.898 308.838 362.898 310.727C362.898 311.987 363.03 313.057 363.295 313.938C363.561 314.818 363.942 315.488 364.439 315.947C364.941 316.407 365.545 316.636 366.25 316.636ZM378.835 318.199C378.239 318.189 377.642 318.076 377.045 317.858C376.449 317.64 375.904 317.273 375.412 316.757C374.92 316.236 374.524 315.533 374.226 314.648C373.928 313.758 373.778 312.64 373.778 311.295C373.778 310.008 373.899 308.866 374.141 307.872C374.382 306.873 374.732 306.033 375.192 305.351C375.651 304.664 376.205 304.143 376.854 303.788C377.507 303.433 378.243 303.256 379.062 303.256C379.877 303.256 380.601 303.419 381.236 303.746C381.875 304.068 382.396 304.518 382.798 305.095C383.201 305.673 383.461 306.338 383.58 307.091H381.847C381.686 306.437 381.373 305.895 380.909 305.464C380.445 305.034 379.83 304.818 379.062 304.818C377.936 304.818 377.048 305.308 376.399 306.288C375.755 307.268 375.431 308.644 375.426 310.415H375.54C375.805 310.012 376.12 309.669 376.484 309.385C376.854 309.096 377.261 308.874 377.706 308.717C378.151 308.561 378.622 308.483 379.119 308.483C379.953 308.483 380.715 308.691 381.406 309.108C382.098 309.52 382.652 310.09 383.068 310.82C383.485 311.544 383.693 312.375 383.693 313.312C383.693 314.212 383.492 315.036 383.089 315.784C382.687 316.527 382.121 317.119 381.392 317.56C380.668 317.995 379.815 318.208 378.835 318.199ZM378.835 316.636C379.432 316.636 379.967 316.487 380.44 316.189C380.919 315.891 381.295 315.491 381.57 314.989C381.849 314.487 381.989 313.928 381.989 313.312C381.989 312.711 381.854 312.164 381.584 311.672C381.319 311.175 380.952 310.779 380.483 310.486C380.019 310.192 379.489 310.045 378.892 310.045C378.442 310.045 378.023 310.135 377.635 310.315C377.247 310.491 376.906 310.732 376.612 311.04C376.323 311.348 376.096 311.7 375.93 312.098C375.765 312.491 375.682 312.905 375.682 313.341C375.682 313.919 375.817 314.458 376.087 314.96C376.361 315.462 376.735 315.867 377.209 316.175C377.687 316.482 378.229 316.636 378.835 316.636Z" fill="black"/>
<path id="07" d="M464.25 319.199C463.18 319.199 462.268 318.908 461.516 318.325C460.763 317.738 460.188 316.888 459.79 315.776C459.392 314.658 459.193 313.309 459.193 311.727C459.193 310.155 459.392 308.813 459.79 307.7C460.192 306.583 460.77 305.731 461.523 305.143C462.28 304.552 463.189 304.256 464.25 304.256C465.311 304.256 466.217 304.552 466.97 305.143C467.728 305.731 468.305 306.583 468.703 307.7C469.106 308.813 469.307 310.155 469.307 311.727C469.307 313.309 469.108 314.658 468.71 315.776C468.312 316.888 467.737 317.738 466.984 318.325C466.232 318.908 465.32 319.199 464.25 319.199ZM464.25 317.636C465.311 317.636 466.134 317.125 466.722 316.102C467.309 315.08 467.602 313.621 467.602 311.727C467.602 310.468 467.467 309.395 467.197 308.51C466.932 307.625 466.549 306.95 466.047 306.486C465.55 306.022 464.951 305.79 464.25 305.79C463.199 305.79 462.377 306.308 461.786 307.345C461.194 308.377 460.898 309.838 460.898 311.727C460.898 312.987 461.03 314.057 461.295 314.938C461.561 315.818 461.942 316.488 462.439 316.947C462.941 317.407 463.545 317.636 464.25 317.636ZM472.07 319L478.575 306.131V306.017H471.075V304.455H480.393V306.102L473.916 319H472.07Z" fill="black"/>
<path id="08" d="M563.25 318.199C562.18 318.199 561.268 317.908 560.516 317.325C559.763 316.738 559.188 315.888 558.79 314.776C558.392 313.658 558.193 312.309 558.193 310.727C558.193 309.155 558.392 307.813 558.79 306.7C559.192 305.583 559.77 304.731 560.523 304.143C561.28 303.552 562.189 303.256 563.25 303.256C564.311 303.256 565.217 303.552 565.97 304.143C566.728 304.731 567.305 305.583 567.703 306.7C568.106 307.813 568.307 309.155 568.307 310.727C568.307 312.309 568.108 313.658 567.71 314.776C567.312 315.888 566.737 316.738 565.984 317.325C565.232 317.908 564.32 318.199 563.25 318.199ZM563.25 316.636C564.311 316.636 565.134 316.125 565.722 315.102C566.309 314.08 566.602 312.621 566.602 310.727C566.602 309.468 566.467 308.395 566.197 307.51C565.932 306.625 565.549 305.95 565.047 305.486C564.55 305.022 563.951 304.79 563.25 304.79C562.199 304.79 561.377 305.308 560.786 306.345C560.194 307.377 559.898 308.838 559.898 310.727C559.898 311.987 560.03 313.057 560.295 313.938C560.561 314.818 560.942 315.488 561.439 315.947C561.941 316.407 562.545 316.636 563.25 316.636ZM575.665 318.199C574.689 318.199 573.828 318.026 573.08 317.68C572.336 317.33 571.756 316.849 571.339 316.239C570.923 315.623 570.717 314.922 570.722 314.136C570.717 313.521 570.838 312.953 571.084 312.432C571.33 311.906 571.666 311.468 572.092 311.118C572.523 310.763 573.004 310.538 573.534 310.443V310.358C572.838 310.178 572.284 309.787 571.872 309.186C571.46 308.58 571.257 307.891 571.261 307.119C571.257 306.381 571.444 305.72 571.822 305.138C572.201 304.555 572.722 304.096 573.385 303.76C574.053 303.424 574.813 303.256 575.665 303.256C576.508 303.256 577.26 303.424 577.923 303.76C578.586 304.096 579.107 304.555 579.486 305.138C579.869 305.72 580.063 306.381 580.068 307.119C580.063 307.891 579.853 308.58 579.436 309.186C579.024 309.787 578.477 310.178 577.795 310.358V310.443C578.321 310.538 578.795 310.763 579.216 311.118C579.637 311.468 579.973 311.906 580.224 312.432C580.475 312.953 580.603 313.521 580.608 314.136C580.603 314.922 580.39 315.623 579.969 316.239C579.552 316.849 578.972 317.33 578.229 317.68C577.49 318.026 576.635 318.199 575.665 318.199ZM575.665 316.636C576.323 316.636 576.891 316.53 577.369 316.317C577.848 316.104 578.217 315.803 578.477 315.415C578.738 315.027 578.87 314.572 578.875 314.051C578.87 313.502 578.728 313.017 578.449 312.595C578.17 312.174 577.788 311.842 577.305 311.601C576.827 311.359 576.28 311.239 575.665 311.239C575.045 311.239 574.491 311.359 574.003 311.601C573.52 311.842 573.139 312.174 572.859 312.595C572.585 313.017 572.45 313.502 572.455 314.051C572.45 314.572 572.575 315.027 572.831 315.415C573.091 315.803 573.463 316.104 573.946 316.317C574.429 316.53 575.002 316.636 575.665 316.636ZM575.665 309.733C576.186 309.733 576.647 309.629 577.05 309.42C577.457 309.212 577.777 308.921 578.009 308.547C578.241 308.173 578.359 307.735 578.364 307.233C578.359 306.741 578.243 306.312 578.016 305.947C577.788 305.578 577.473 305.294 577.071 305.095C576.669 304.892 576.2 304.79 575.665 304.79C575.12 304.79 574.644 304.892 574.237 305.095C573.83 305.294 573.515 305.578 573.293 305.947C573.07 306.312 572.961 306.741 572.966 307.233C572.961 307.735 573.072 308.173 573.3 308.547C573.532 308.921 573.851 309.212 574.259 309.42C574.666 309.629 575.134 309.733 575.665 309.733Z" fill="black"/>
<path id="09" d="M463.25 409.199C462.18 409.199 461.268 408.908 460.516 408.325C459.763 407.738 459.188 406.888 458.79 405.776C458.392 404.658 458.193 403.309 458.193 401.727C458.193 400.155 458.392 398.813 458.79 397.7C459.192 396.583 459.77 395.731 460.523 395.143C461.28 394.552 462.189 394.256 463.25 394.256C464.311 394.256 465.217 394.552 465.97 395.143C466.728 395.731 467.305 396.583 467.703 397.7C468.106 398.813 468.307 400.155 468.307 401.727C468.307 403.309 468.108 404.658 467.71 405.776C467.312 406.888 466.737 407.738 465.984 408.325C465.232 408.908 464.32 409.199 463.25 409.199ZM463.25 407.636C464.311 407.636 465.134 407.125 465.722 406.102C466.309 405.08 466.602 403.621 466.602 401.727C466.602 400.468 466.467 399.395 466.197 398.51C465.932 397.625 465.549 396.95 465.047 396.486C464.55 396.022 463.951 395.79 463.25 395.79C462.199 395.79 461.377 396.308 460.786 397.345C460.194 398.377 459.898 399.838 459.898 401.727C459.898 402.987 460.03 404.057 460.295 404.938C460.561 405.818 460.942 406.488 461.439 406.947C461.941 407.407 462.545 407.636 463.25 407.636ZM475.636 394.256C476.233 394.26 476.83 394.374 477.426 394.597C478.023 394.819 478.567 395.188 479.06 395.705C479.552 396.216 479.947 396.914 480.246 397.8C480.544 398.685 480.693 399.795 480.693 401.131C480.693 402.423 480.57 403.571 480.324 404.575C480.082 405.574 479.732 406.417 479.273 407.104C478.818 407.79 478.264 408.311 477.611 408.666C476.962 409.021 476.228 409.199 475.409 409.199C474.595 409.199 473.868 409.038 473.229 408.716C472.594 408.389 472.073 407.937 471.666 407.359C471.264 406.777 471.006 406.102 470.892 405.335H472.625C472.781 406.003 473.091 406.554 473.555 406.99C474.024 407.421 474.642 407.636 475.409 407.636C476.531 407.636 477.417 407.146 478.065 406.166C478.719 405.186 479.045 403.801 479.045 402.011H478.932C478.667 402.409 478.352 402.752 477.987 403.041C477.623 403.33 477.218 403.553 476.773 403.709C476.328 403.865 475.854 403.943 475.352 403.943C474.519 403.943 473.754 403.737 473.058 403.325C472.367 402.909 471.813 402.338 471.396 401.614C470.984 400.884 470.778 400.051 470.778 399.114C470.778 398.223 470.977 397.409 471.375 396.67C471.777 395.927 472.341 395.335 473.065 394.895C473.795 394.455 474.652 394.241 475.636 394.256ZM475.636 395.818C475.04 395.818 474.502 395.967 474.024 396.266C473.551 396.559 473.174 396.957 472.895 397.459C472.62 397.956 472.483 398.508 472.483 399.114C472.483 399.72 472.616 400.271 472.881 400.768C473.151 401.261 473.518 401.654 473.982 401.947C474.45 402.236 474.983 402.381 475.58 402.381C476.029 402.381 476.448 402.293 476.837 402.118C477.225 401.938 477.563 401.694 477.852 401.386C478.146 401.074 478.375 400.721 478.541 400.328C478.707 399.93 478.79 399.516 478.79 399.085C478.79 398.517 478.652 397.984 478.378 397.487C478.108 396.99 477.734 396.588 477.256 396.28C476.782 395.972 476.242 395.818 475.636 395.818Z" fill="black"/>
<path id="10" d="M366.619 487.455V502H364.858V489.301H364.773L361.222 491.659V489.869L364.858 487.455H366.619ZM375.547 502.199C374.477 502.199 373.565 501.908 372.812 501.325C372.06 500.738 371.484 499.888 371.087 498.776C370.689 497.658 370.49 496.309 370.49 494.727C370.49 493.155 370.689 491.813 371.087 490.7C371.489 489.583 372.067 488.731 372.82 488.143C373.577 487.552 374.486 487.256 375.547 487.256C376.607 487.256 377.514 487.552 378.267 488.143C379.025 488.731 379.602 489.583 380 490.7C380.402 491.813 380.604 493.155 380.604 494.727C380.604 496.309 380.405 497.658 380.007 498.776C379.609 499.888 379.034 500.738 378.281 501.325C377.528 501.908 376.617 502.199 375.547 502.199ZM375.547 500.636C376.607 500.636 377.431 500.125 378.018 499.102C378.606 498.08 378.899 496.621 378.899 494.727C378.899 493.468 378.764 492.395 378.494 491.51C378.229 490.625 377.846 489.95 377.344 489.486C376.847 489.022 376.248 488.79 375.547 488.79C374.496 488.79 373.674 489.308 373.082 490.345C372.491 491.377 372.195 492.838 372.195 494.727C372.195 495.987 372.327 497.057 372.592 497.938C372.857 498.818 373.239 499.488 373.736 499.947C374.238 500.407 374.841 500.636 375.547 500.636Z" fill="black"/>
<path id="11" d="M661.619 498.455V513H659.858V500.301H659.773L656.222 502.659V500.869L659.858 498.455H661.619ZM670.916 498.455V513H669.155V500.301H669.07L665.518 502.659V500.869L669.155 498.455H670.916Z" fill="black"/>
<path id="12" d="M761.619 498.455V513H759.858V500.301H759.773L756.222 502.659V500.869L759.858 498.455H761.619ZM765.803 513V511.722L770.604 506.466C771.167 505.85 771.631 505.315 771.996 504.861C772.36 504.402 772.63 503.971 772.805 503.568C772.985 503.161 773.075 502.735 773.075 502.29C773.075 501.778 772.952 501.336 772.706 500.962C772.464 500.588 772.133 500.299 771.712 500.095C771.29 499.892 770.817 499.79 770.291 499.79C769.732 499.79 769.245 499.906 768.828 500.138C768.416 500.365 768.097 500.685 767.869 501.097C767.647 501.509 767.536 501.991 767.536 502.545H765.859C765.859 501.693 766.056 500.945 766.449 500.301C766.842 499.657 767.377 499.155 768.054 498.795C768.736 498.436 769.5 498.256 770.348 498.256C771.2 498.256 771.955 498.436 772.614 498.795C773.272 499.155 773.788 499.641 774.162 500.251C774.536 500.862 774.723 501.542 774.723 502.29C774.723 502.825 774.626 503.348 774.432 503.859C774.242 504.366 773.911 504.932 773.438 505.557C772.969 506.177 772.318 506.935 771.484 507.83L768.217 511.324V511.438H774.979V513H765.803Z" fill="black"/>
<path id="13" d="M855.619 499.455V514H853.858V501.301H853.773L850.222 503.659V501.869L853.858 499.455H855.619ZM864.717 514.199C863.78 514.199 862.944 514.038 862.21 513.716C861.481 513.394 860.901 512.946 860.47 512.374C860.044 511.796 859.812 511.126 859.774 510.364H861.564C861.602 510.832 861.763 511.237 862.047 511.578C862.331 511.914 862.703 512.175 863.162 512.359C863.621 512.544 864.13 512.636 864.689 512.636C865.314 512.636 865.868 512.527 866.351 512.31C866.834 512.092 867.213 511.789 867.487 511.401C867.762 511.012 867.899 510.562 867.899 510.051C867.899 509.516 867.767 509.045 867.501 508.638C867.236 508.226 866.848 507.904 866.337 507.672C865.825 507.44 865.2 507.324 864.462 507.324H863.297V505.761H864.462C865.039 505.761 865.546 505.657 865.982 505.449C866.422 505.241 866.765 504.947 867.011 504.568C867.262 504.189 867.388 503.744 867.388 503.233C867.388 502.741 867.279 502.312 867.061 501.947C866.843 501.583 866.536 501.299 866.138 501.095C865.745 500.892 865.281 500.79 864.746 500.79C864.244 500.79 863.77 500.882 863.325 501.067C862.885 501.247 862.525 501.509 862.246 501.855C861.966 502.196 861.815 502.608 861.791 503.091H860.087C860.115 502.329 860.345 501.661 860.776 501.088C861.206 500.51 861.77 500.061 862.466 499.739C863.167 499.417 863.936 499.256 864.774 499.256C865.674 499.256 866.446 499.438 867.089 499.803C867.733 500.162 868.228 500.638 868.574 501.23C868.92 501.822 869.092 502.461 869.092 503.148C869.092 503.967 868.877 504.665 868.446 505.243C868.02 505.821 867.44 506.221 866.706 506.443V506.557C867.625 506.708 868.342 507.099 868.858 507.729C869.374 508.354 869.632 509.128 869.632 510.051C869.632 510.842 869.417 511.552 868.986 512.182C868.56 512.807 867.977 513.299 867.239 513.659C866.5 514.019 865.66 514.199 864.717 514.199Z" fill="black"/>
<path id="14" d="M757.619 592.455V607H755.858V594.301H755.773L752.222 596.659V594.869L755.858 592.455H757.619ZM761.462 604.017V602.568L767.854 592.455H768.905V594.699H768.195L763.365 602.341V602.455H771.973V604.017H761.462ZM768.308 607V603.577V602.902V592.455H769.984V607H768.308Z" fill="black"/>
<path id="15" d="M658.619 684.455V699H656.858V686.301H656.773L653.222 688.659V686.869L656.858 684.455H658.619ZM667.348 699.199C666.515 699.199 665.764 699.033 665.097 698.702C664.429 698.37 663.894 697.916 663.491 697.338C663.089 696.76 662.869 696.102 662.831 695.364H664.536C664.602 696.022 664.9 696.566 665.43 696.997C665.965 697.423 666.605 697.636 667.348 697.636C667.945 697.636 668.475 697.497 668.939 697.217C669.408 696.938 669.775 696.554 670.04 696.067C670.31 695.574 670.445 695.018 670.445 694.398C670.445 693.763 670.305 693.197 670.026 692.7C669.751 692.198 669.372 691.803 668.889 691.514C668.406 691.225 667.855 691.079 667.234 691.074C666.789 691.069 666.332 691.138 665.864 691.28C665.395 691.417 665.009 691.595 664.706 691.812L663.058 691.614L663.939 684.455H671.496V686.017H665.416L664.905 690.307H664.99C665.288 690.07 665.662 689.874 666.112 689.717C666.562 689.561 667.031 689.483 667.518 689.483C668.409 689.483 669.202 689.696 669.898 690.122C670.598 690.544 671.148 691.121 671.545 691.855C671.948 692.589 672.149 693.427 672.149 694.369C672.149 695.297 671.941 696.126 671.524 696.855C671.112 697.58 670.544 698.152 669.82 698.574C669.095 698.991 668.271 699.199 667.348 699.199Z" fill="black"/>
</g>
</svg>
