<svg width="1000" height="800" viewBox="0 0 1000 800" fill="none" xmlns="http://www.w3.org/2000/svg">
    <g id="GraphNetwork">
        <rect width="1000" height="800" fill="#F9F0E5" />
        <g id="nodes">
            <g id="end-nodes">
                <g id="node-17">
                    <circle id="node-position-17" cx="870.5" cy="741.5" r="7.5" fill="#F9F0E5" />
                    <g id="sticky-note">
                        <path d="M888 724H853V759H888V724Z" fill="#FFD6A0" />
                        <path d="M888 724H870.5V759H888V724Z" fill="#FFC170" />
                        <path d="M880.5 733H860.5V736H880.5V733Z" fill="white" />
                        <path d="M880.5 739H860.5V742H880.5V739Z" fill="white" />
                        <path d="M870.5 745H860.5V748H870.5V745Z" fill="white" />
                        <path d="M888 753.5L884.639 755.639L882.5 759H888V753.5Z" fill="#FF9811" />
                        <path d="M882.5 759V753.5H888L882.5 759Z" fill="white" />
                    </g>
                    <g id="pin">
                        <path
                            d="M880.282 720.349L874.813 719.723L869.763 717.531L872.018 712.327L876.63 712.94L880.932 714.716L880.282 720.349Z"
                            fill="#FF5811" />
                        <path
                            d="M880.282 720.349L874.813 719.723L876.63 712.94L880.932 714.716L880.282 720.349Z"
                            fill="#BF380D" />
                        <path
                            d="M872.018 712.327L871.758 708L883.32 711.098L880.932 714.716L872.018 712.327Z"
                            fill="#FF8A70" />
                        <path
                            d="M874.897 722.541L873.332 722.121L871.095 730.469L872.66 730.888L874.897 722.541Z"
                            fill="#AED5F3" />
                        <path
                            d="M880.589 725.464L866.94 721.807L869.763 717.531L880.282 720.349L880.589 725.464Z"
                            fill="#FF8A70" />
                        <path
                            d="M876.475 713.521L877.539 709.549L883.32 711.098L880.932 714.716L876.475 713.521Z"
                            fill="#FF5811" />
                        <path
                            d="M880.589 725.464L873.765 723.635L875.023 718.94L880.282 720.349L880.589 725.464Z"
                            fill="#FF5811" />
                    </g>
                </g>
                <g id="node-16">
                    <circle id="node-position-16" cx="628.5" cy="741.5" r="7.5" fill="#F9F0E5" />
                    <g id="sticky-note_2">
                        <path d="M646 724H611V759H646V724Z" fill="#FFD6A0" />
                        <path d="M646 724H628.5V759H646V724Z" fill="#FFC170" />
                        <path d="M638.5 733H618.5V736H638.5V733Z" fill="white" />
                        <path d="M638.5 739H618.5V742H638.5V739Z" fill="white" />
                        <path d="M628.5 745H618.5V748H628.5V745Z" fill="white" />
                        <path d="M646 753.5L642.639 755.639L640.5 759H646V753.5Z" fill="#FF9811" />
                        <path d="M640.5 759V753.5H646L640.5 759Z" fill="white" />
                    </g>
                    <g id="pin_2">
                        <path
                            d="M638.282 720.349L632.813 719.723L627.763 717.531L630.018 712.327L634.63 712.94L638.932 714.716L638.282 720.349Z"
                            fill="#FF5811" />
                        <path
                            d="M638.282 720.349L632.813 719.723L634.63 712.94L638.932 714.716L638.282 720.349Z"
                            fill="#BF380D" />
                        <path
                            d="M630.018 712.327L629.758 708L641.32 711.098L638.932 714.716L630.018 712.327Z"
                            fill="#FF8A70" />
                        <path
                            d="M632.897 722.541L631.332 722.121L629.095 730.469L630.66 730.888L632.897 722.541Z"
                            fill="#AED5F3" />
                        <path
                            d="M638.589 725.464L624.94 721.807L627.763 717.531L638.282 720.349L638.589 725.464Z"
                            fill="#FF8A70" />
                        <path
                            d="M634.475 713.521L635.539 709.549L641.32 711.098L638.932 714.716L634.475 713.521Z"
                            fill="#FF5811" />
                        <path
                            d="M638.589 725.464L631.765 723.635L633.023 718.94L638.282 720.349L638.589 725.464Z"
                            fill="#FF5811" />
                    </g>
                </g>
                <g id="node-13">
                    <circle id="node-position-13" cx="807.5" cy="578.5" r="7.5" fill="#F9F0E5" />
                    <g id="sticky-note_3">
                        <path d="M825 561H790V596H825V561Z" fill="#FFD6A0" />
                        <path d="M825 561H807.5V596H825V561Z" fill="#FFC170" />
                        <path d="M817.5 570H797.5V573H817.5V570Z" fill="white" />
                        <path d="M817.5 576H797.5V579H817.5V576Z" fill="white" />
                        <path d="M807.5 582H797.5V585H807.5V582Z" fill="white" />
                        <path d="M825 590.5L821.639 592.639L819.5 596H825V590.5Z" fill="#FF9811" />
                        <path d="M819.5 596V590.5H825L819.5 596Z" fill="white" />
                    </g>
                    <g id="pin_3">
                        <path
                            d="M817.282 557.349L811.813 556.723L806.763 554.531L809.018 549.327L813.63 549.94L817.932 551.716L817.282 557.349Z"
                            fill="#FF5811" />
                        <path
                            d="M817.282 557.349L811.813 556.723L813.63 549.94L817.932 551.716L817.282 557.349Z"
                            fill="#BF380D" />
                        <path
                            d="M809.018 549.327L808.758 545L820.32 548.098L817.932 551.716L809.018 549.327Z"
                            fill="#FF8A70" />
                        <path
                            d="M811.897 559.541L810.332 559.121L808.095 567.469L809.66 567.888L811.897 559.541Z"
                            fill="#AED5F3" />
                        <path
                            d="M817.589 562.464L803.94 558.807L806.763 554.531L817.282 557.349L817.589 562.464Z"
                            fill="#FF8A70" />
                        <path
                            d="M813.475 550.521L814.539 546.549L820.32 548.098L817.932 551.716L813.475 550.521Z"
                            fill="#FF5811" />
                        <path
                            d="M817.589 562.464L810.765 560.635L812.023 555.94L817.282 557.349L817.589 562.464Z"
                            fill="#FF5811" />
                    </g>
                </g>
                <g id="node-12">
                    <circle id="node-position-12" cx="565.5" cy="578.5" r="7.5" fill="#F9F0E5" />
                    <g id="sticky-note_4">
                        <path d="M583 561H548V596H583V561Z" fill="#FFD6A0" />
                        <path d="M583 561H565.5V596H583V561Z" fill="#FFC170" />
                        <path d="M575.5 570H555.5V573H575.5V570Z" fill="white" />
                        <path d="M575.5 576H555.5V579H575.5V576Z" fill="white" />
                        <path d="M565.5 582H555.5V585H565.5V582Z" fill="white" />
                        <path d="M583 590.5L579.639 592.639L577.5 596H583V590.5Z" fill="#FF9811" />
                        <path d="M577.5 596V590.5H583L577.5 596Z" fill="white" />
                    </g>
                    <g id="pin_4">
                        <path
                            d="M575.282 557.349L569.813 556.723L564.763 554.531L567.018 549.327L571.63 549.94L575.932 551.716L575.282 557.349Z"
                            fill="#FF5811" />
                        <path
                            d="M575.282 557.349L569.813 556.723L571.63 549.94L575.932 551.716L575.282 557.349Z"
                            fill="#BF380D" />
                        <path
                            d="M567.018 549.327L566.758 545L578.32 548.098L575.932 551.716L567.018 549.327Z"
                            fill="#FF8A70" />
                        <path
                            d="M569.897 559.541L568.332 559.121L566.095 567.469L567.66 567.888L569.897 559.541Z"
                            fill="#AED5F3" />
                        <path
                            d="M575.589 562.464L561.94 558.807L564.763 554.531L575.282 557.349L575.589 562.464Z"
                            fill="#FF8A70" />
                        <path
                            d="M571.475 550.521L572.539 546.549L578.32 548.098L575.932 551.716L571.475 550.521Z"
                            fill="#FF5811" />
                        <path
                            d="M575.589 562.464L568.765 560.635L570.023 555.94L575.282 557.349L575.589 562.464Z"
                            fill="#FF5811" />
                    </g>
                </g>
            </g>
            <g id="story-nodes">
                <g id="node-15">
                    <circle id="node-position-15" cx="381.5" cy="731.929" r="5.35714" fill="#EFEFEF" />
                    <g id="sticky-note_5">
                        <path d="M394 719.428H369V744.428H394V719.428Z" fill="#D0D0D0" />
                        <path d="M394 719.428H381.5V744.428H394V719.428Z" fill="#B8B8B8" />
                        <path d="M388.643 725.857H374.357V728H388.643V725.857Z" fill="white" />
                        <path d="M388.643 730.143H374.357V732.286H388.643V730.143Z" fill="white" />
                        <path d="M381.5 734.428H374.357V736.571H381.5V734.428Z" fill="white" />
                        <path d="M394 740.5L391.599 742.028L390.071 744.428H394V740.5Z"
                            fill="#888888" />
                        <path d="M390.071 744.428V740.5H394L390.071 744.428Z" fill="white" />
                    </g>
                    <g id="pin_5">
                        <path
                            d="M388.487 716.821L384.581 716.373L380.974 714.808L382.584 711.091L385.879 711.529L388.951 712.797L388.487 716.821Z"
                            fill="#888888" />
                        <path
                            d="M388.487 716.821L384.581 716.373L385.879 711.529L388.951 712.797L388.487 716.821Z"
                            fill="#666666" />
                        <path
                            d="M382.584 711.091L382.398 708L390.657 710.213L388.951 712.797L382.584 711.091Z"
                            fill="#B8B8B8" />
                        <path
                            d="M384.64 718.386L383.522 718.087L381.925 724.049L383.043 724.349L384.64 718.386Z"
                            fill="#D1D1D1" />
                        <path
                            d="M388.707 720.474L378.957 717.862L380.974 714.808L388.487 716.821L388.707 720.474Z"
                            fill="#B8B8B8" />
                        <path
                            d="M385.768 711.944L386.528 709.106L390.657 710.213L388.951 712.797L385.768 711.944Z"
                            fill="#888888" />
                        <path
                            d="M388.707 720.474L383.832 719.168L384.73 715.814L388.487 716.821L388.707 720.474Z"
                            fill="#888888" />
                    </g>
                </g>
                <g id="node-14">
                    <circle id="node-position-14" cx="139.5" cy="731.929" r="5.35714" fill="#EFEFEF" />
                    <g id="sticky-note_6">
                        <path d="M152 719.428H127V744.428H152V719.428Z" fill="#D0D0D0" />
                        <path d="M152 719.428H139.5V744.428H152V719.428Z" fill="#B8B8B8" />
                        <path d="M146.643 725.857H132.357V728H146.643V725.857Z" fill="white" />
                        <path d="M146.643 730.143H132.357V732.286H146.643V730.143Z" fill="white" />
                        <path d="M139.5 734.428H132.357V736.571H139.5V734.428Z" fill="white" />
                        <path d="M152 740.5L149.599 742.028L148.071 744.428H152V740.5Z"
                            fill="#888888" />
                        <path d="M148.071 744.428V740.5H152L148.071 744.428Z" fill="white" />
                    </g>
                    <g id="pin_6">
                        <path
                            d="M146.487 716.821L142.581 716.373L138.974 714.808L140.584 711.091L143.879 711.529L146.951 712.797L146.487 716.821Z"
                            fill="#888888" />
                        <path
                            d="M146.487 716.821L142.581 716.373L143.879 711.529L146.951 712.797L146.487 716.821Z"
                            fill="#666666" />
                        <path
                            d="M140.584 711.091L140.398 708L148.657 710.213L146.951 712.797L140.584 711.091Z"
                            fill="#B8B8B8" />
                        <path
                            d="M142.64 718.386L141.522 718.087L139.925 724.049L141.043 724.349L142.64 718.386Z"
                            fill="#D1D1D1" />
                        <path
                            d="M146.707 720.474L136.957 717.862L138.974 714.808L146.487 716.821L146.707 720.474Z"
                            fill="#B8B8B8" />
                        <path
                            d="M143.768 711.944L144.528 709.106L148.657 710.213L146.951 712.797L143.768 711.944Z"
                            fill="#888888" />
                        <path
                            d="M146.707 720.474L141.832 719.168L142.73 715.814L146.487 716.821L146.707 720.474Z"
                            fill="#888888" />
                    </g>
                </g>
                <g id="node-11">
                    <circle id="node-position-11" cx="236.5" cy="568.929" r="5.35714" fill="#EFEFEF" />
                    <g id="sticky-note_7">
                        <path d="M249 556.428H224V581.428H249V556.428Z" fill="#D0D0D0" />
                        <path d="M249 556.428H236.5V581.428H249V556.428Z" fill="#B8B8B8" />
                        <path d="M243.643 562.857H229.357V565H243.643V562.857Z" fill="white" />
                        <path d="M243.643 567.143H229.357V569.286H243.643V567.143Z" fill="white" />
                        <path d="M236.5 571.428H229.357V573.571H236.5V571.428Z" fill="white" />
                        <path d="M249 577.5L246.599 579.028L245.071 581.428H249V577.5Z"
                            fill="#888888" />
                        <path d="M245.071 581.428V577.5H249L245.071 581.428Z" fill="white" />
                    </g>
                    <g id="pin_7">
                        <path
                            d="M243.487 553.821L239.581 553.373L235.974 551.808L237.584 548.091L240.879 548.529L243.951 549.797L243.487 553.821Z"
                            fill="#888888" />
                        <path
                            d="M243.487 553.821L239.581 553.373L240.879 548.529L243.951 549.797L243.487 553.821Z"
                            fill="#666666" />
                        <path
                            d="M237.584 548.091L237.398 545L245.657 547.213L243.951 549.797L237.584 548.091Z"
                            fill="#B8B8B8" />
                        <path
                            d="M239.64 555.386L238.522 555.087L236.925 561.049L238.043 561.349L239.64 555.386Z"
                            fill="#D1D1D1" />
                        <path
                            d="M243.707 557.474L233.957 554.862L235.974 551.808L243.487 553.821L243.707 557.474Z"
                            fill="#B8B8B8" />
                        <path
                            d="M240.768 548.944L241.528 546.106L245.657 547.213L243.951 549.797L240.768 548.944Z"
                            fill="#888888" />
                        <path
                            d="M243.707 557.474L238.832 556.168L239.73 552.814L243.487 553.821L243.707 557.474Z"
                            fill="#888888" />
                    </g>
                </g>
                <g id="node-10">
                    <circle id="node-position-10" cx="865.5" cy="397.929" r="5.35714" fill="#EFEFEF" />
                    <g id="sticky-note_8">
                        <path d="M878 385.428H853V410.428H878V385.428Z" fill="#D0D0D0" />
                        <path d="M878 385.428H865.5V410.428H878V385.428Z" fill="#B8B8B8" />
                        <path d="M872.643 391.857H858.357V394H872.643V391.857Z" fill="white" />
                        <path d="M872.643 396.143H858.357V398.286H872.643V396.143Z" fill="white" />
                        <path d="M865.5 400.428H858.357V402.571H865.5V400.428Z" fill="white" />
                        <path d="M878 406.5L875.599 408.028L874.071 410.428H878V406.5Z"
                            fill="#888888" />
                        <path d="M874.071 410.428V406.5H878L874.071 410.428Z" fill="white" />
                    </g>
                    <g id="pin_8">
                        <path
                            d="M872.487 382.821L868.581 382.373L864.974 380.808L866.584 377.091L869.879 377.529L872.951 378.797L872.487 382.821Z"
                            fill="#888888" />
                        <path
                            d="M872.487 382.821L868.581 382.373L869.879 377.529L872.951 378.797L872.487 382.821Z"
                            fill="#666666" />
                        <path
                            d="M866.584 377.091L866.398 374L874.657 376.213L872.951 378.797L866.584 377.091Z"
                            fill="#B8B8B8" />
                        <path
                            d="M868.64 384.386L867.522 384.087L865.925 390.049L867.043 390.349L868.64 384.386Z"
                            fill="#D1D1D1" />
                        <path
                            d="M872.707 386.474L862.957 383.862L864.974 380.808L872.487 382.821L872.707 386.474Z"
                            fill="#B8B8B8" />
                        <path
                            d="M869.768 377.944L870.528 375.106L874.657 376.213L872.951 378.797L869.768 377.944Z"
                            fill="#888888" />
                        <path
                            d="M872.707 386.474L867.832 385.168L868.73 381.814L872.487 382.821L872.707 386.474Z"
                            fill="#888888" />
                    </g>
                </g>
                <g id="node-09">
                    <circle id="node-position-09" cx="623.5" cy="397.929" r="5.35714" fill="#EFEFEF" />
                    <g id="sticky-note_9">
                        <path d="M636 385.428H611V410.428H636V385.428Z" fill="#D0D0D0" />
                        <path d="M636 385.428H623.5V410.428H636V385.428Z" fill="#B8B8B8" />
                        <path d="M630.643 391.857H616.357V394H630.643V391.857Z" fill="white" />
                        <path d="M630.643 396.143H616.357V398.286H630.643V396.143Z" fill="white" />
                        <path d="M623.5 400.428H616.357V402.571H623.5V400.428Z" fill="white" />
                        <path d="M636 406.5L633.599 408.028L632.071 410.428H636V406.5Z"
                            fill="#888888" />
                        <path d="M632.071 410.428V406.5H636L632.071 410.428Z" fill="white" />
                    </g>
                    <g id="pin_9">
                        <path
                            d="M630.487 382.821L626.581 382.373L622.974 380.808L624.584 377.091L627.879 377.529L630.951 378.797L630.487 382.821Z"
                            fill="#888888" />
                        <path
                            d="M630.487 382.821L626.581 382.373L627.879 377.529L630.951 378.797L630.487 382.821Z"
                            fill="#666666" />
                        <path
                            d="M624.584 377.091L624.398 374L632.657 376.213L630.951 378.797L624.584 377.091Z"
                            fill="#B8B8B8" />
                        <path
                            d="M626.64 384.386L625.522 384.087L623.925 390.049L625.043 390.349L626.64 384.386Z"
                            fill="#D1D1D1" />
                        <path
                            d="M630.707 386.474L620.957 383.862L622.974 380.808L630.487 382.821L630.707 386.474Z"
                            fill="#B8B8B8" />
                        <path
                            d="M627.768 377.944L628.528 375.106L632.657 376.213L630.951 378.797L627.768 377.944Z"
                            fill="#888888" />
                        <path
                            d="M630.707 386.474L625.832 385.168L626.73 381.814L630.487 382.821L630.707 386.474Z"
                            fill="#888888" />
                    </g>
                </g>
                <g id="node-08">
                    <circle id="node-position-08" cx="381.5" cy="397.929" r="5.35714" fill="#EFEFEF" />
                    <g id="sticky-note_10">
                        <path d="M394 385.428H369V410.428H394V385.428Z" fill="#D0D0D0" />
                        <path d="M394 385.428H381.5V410.428H394V385.428Z" fill="#B8B8B8" />
                        <path d="M388.643 391.857H374.357V394H388.643V391.857Z" fill="white" />
                        <path d="M388.643 396.143H374.357V398.286H388.643V396.143Z" fill="white" />
                        <path d="M381.5 400.428H374.357V402.571H381.5V400.428Z" fill="white" />
                        <path d="M394 406.5L391.599 408.028L390.071 410.428H394V406.5Z"
                            fill="#888888" />
                        <path d="M390.071 410.428V406.5H394L390.071 410.428Z" fill="white" />
                    </g>
                    <g id="pin_10">
                        <path
                            d="M388.487 382.821L384.581 382.373L380.974 380.808L382.584 377.091L385.879 377.529L388.951 378.797L388.487 382.821Z"
                            fill="#888888" />
                        <path
                            d="M388.487 382.821L384.581 382.373L385.879 377.529L388.951 378.797L388.487 382.821Z"
                            fill="#666666" />
                        <path
                            d="M382.584 377.091L382.398 374L390.657 376.213L388.951 378.797L382.584 377.091Z"
                            fill="#B8B8B8" />
                        <path
                            d="M384.64 384.386L383.522 384.087L381.925 390.049L383.043 390.349L384.64 384.386Z"
                            fill="#D1D1D1" />
                        <path
                            d="M388.707 386.474L378.957 383.862L380.974 380.808L388.487 382.821L388.707 386.474Z"
                            fill="#B8B8B8" />
                        <path
                            d="M385.768 377.944L386.528 375.106L390.657 376.213L388.951 378.797L385.768 377.944Z"
                            fill="#888888" />
                        <path
                            d="M388.707 386.474L383.832 385.168L384.73 381.814L388.487 382.821L388.707 386.474Z"
                            fill="#888888" />
                    </g>
                </g>
                <g id="node-07">
                    <circle id="node-position-07" cx="139.5" cy="397.929" r="5.35714" fill="#EFEFEF" />
                    <g id="sticky-note_11">
                        <path d="M152 385.428H127V410.428H152V385.428Z" fill="#D0D0D0" />
                        <path d="M152 385.428H139.5V410.428H152V385.428Z" fill="#B8B8B8" />
                        <path d="M146.643 391.857H132.357V394H146.643V391.857Z" fill="white" />
                        <path d="M146.643 396.143H132.357V398.286H146.643V396.143Z" fill="white" />
                        <path d="M139.5 400.428H132.357V402.571H139.5V400.428Z" fill="white" />
                        <path d="M152 406.5L149.599 408.028L148.071 410.428H152V406.5Z"
                            fill="#888888" />
                        <path d="M148.071 410.428V406.5H152L148.071 410.428Z" fill="white" />
                    </g>
                    <g id="pin_11">
                        <path
                            d="M146.487 382.821L142.581 382.373L138.974 380.808L140.584 377.091L143.879 377.529L146.951 378.797L146.487 382.821Z"
                            fill="#888888" />
                        <path
                            d="M146.487 382.821L142.581 382.373L143.879 377.529L146.951 378.797L146.487 382.821Z"
                            fill="#666666" />
                        <path
                            d="M140.584 377.091L140.398 374L148.657 376.213L146.951 378.797L140.584 377.091Z"
                            fill="#B8B8B8" />
                        <path
                            d="M142.64 384.386L141.522 384.087L139.925 390.049L141.043 390.349L142.64 384.386Z"
                            fill="#D1D1D1" />
                        <path
                            d="M146.707 386.474L136.957 383.862L138.974 380.808L146.487 382.821L146.707 386.474Z"
                            fill="#B8B8B8" />
                        <path
                            d="M143.768 377.944L144.528 375.106L148.657 376.213L146.951 378.797L143.768 377.944Z"
                            fill="#888888" />
                        <path
                            d="M146.707 386.474L141.832 385.168L142.73 381.814L146.487 382.821L146.707 386.474Z"
                            fill="#888888" />
                    </g>
                </g>
                <g id="node-06">
                    <circle id="node-position-06" cx="730.5" cy="230.929" r="5.35714" fill="#EFEFEF" />
                    <g id="sticky-note_12">
                        <path d="M743 218.428H718V243.428H743V218.428Z" fill="#D0D0D0" />
                        <path d="M743 218.428H730.5V243.428H743V218.428Z" fill="#B8B8B8" />
                        <path d="M737.643 224.857H723.357V227H737.643V224.857Z" fill="white" />
                        <path d="M737.643 229.143H723.357V231.286H737.643V229.143Z" fill="white" />
                        <path d="M730.5 233.428H723.357V235.571H730.5V233.428Z" fill="white" />
                        <path d="M743 239.5L740.599 241.028L739.071 243.428H743V239.5Z"
                            fill="#888888" />
                        <path d="M739.071 243.428V239.5H743L739.071 243.428Z" fill="white" />
                    </g>
                    <g id="pin_12">
                        <path
                            d="M737.487 215.821L733.581 215.373L729.974 213.808L731.584 210.091L734.879 210.529L737.951 211.797L737.487 215.821Z"
                            fill="#888888" />
                        <path
                            d="M737.487 215.821L733.581 215.373L734.879 210.529L737.951 211.797L737.487 215.821Z"
                            fill="#666666" />
                        <path
                            d="M731.584 210.091L731.398 207L739.657 209.213L737.951 211.797L731.584 210.091Z"
                            fill="#B8B8B8" />
                        <path
                            d="M733.64 217.386L732.522 217.087L730.925 223.049L732.043 223.349L733.64 217.386Z"
                            fill="#D1D1D1" />
                        <path
                            d="M737.707 219.474L727.957 216.862L729.974 213.808L737.487 215.821L737.707 219.474Z"
                            fill="#B8B8B8" />
                        <path
                            d="M734.768 210.944L735.528 208.106L739.657 209.213L737.951 211.797L734.768 210.944Z"
                            fill="#888888" />
                        <path
                            d="M737.707 219.474L732.832 218.168L733.73 214.814L737.487 215.821L737.707 219.474Z"
                            fill="#888888" />
                    </g>
                </g>
                <g id="node-03">
                    <circle id="node-position-03" cx="865.5" cy="63.9286" r="5.35714" fill="#EFEFEF" />
                    <g id="sticky-note_13">
                        <path d="M878 51.4286H853V76.4286H878V51.4286Z" fill="#D0D0D0" />
                        <path d="M878 51.4286H865.5V76.4286H878V51.4286Z" fill="#B8B8B8" />
                        <path d="M872.643 57.8572H858.357V60H872.643V57.8572Z" fill="white" />
                        <path d="M872.643 62.1429H858.357V64.2858H872.643V62.1429Z" fill="white" />
                        <path d="M865.5 66.4286H858.357V68.5715H865.5V66.4286Z" fill="white" />
                        <path d="M878 72.5L875.599 74.0278L874.071 76.4286H878V72.5Z" fill="#888888" />
                        <path d="M874.071 76.4286V72.5H878L874.071 76.4286Z" fill="white" />
                    </g>
                    <g id="pin_13">
                        <path
                            d="M872.487 48.821L868.581 48.3733L864.974 46.8077L866.584 43.0907L869.879 43.5288L872.951 44.7969L872.487 48.821Z"
                            fill="#888888" />
                        <path
                            d="M872.487 48.821L868.581 48.3733L869.879 43.5288L872.951 44.7969L872.487 48.821Z"
                            fill="#666666" />
                        <path
                            d="M866.584 43.0907L866.398 40L874.657 42.213L872.951 44.7969L866.584 43.0907Z"
                            fill="#B8B8B8" />
                        <path
                            d="M868.64 50.3863L867.522 50.0868L865.925 56.0493L867.043 56.3489L868.64 50.3863Z"
                            fill="#D1D1D1" />
                        <path
                            d="M872.707 52.4744L862.957 49.862L864.974 46.8077L872.487 48.821L872.707 52.4744Z"
                            fill="#B8B8B8" />
                        <path
                            d="M869.768 43.9438L870.528 41.1065L874.657 42.213L872.951 44.7969L869.768 43.9438Z"
                            fill="#888888" />
                        <path
                            d="M872.707 52.4744L867.832 51.1682L868.73 47.8143L872.487 48.821L872.707 52.4744Z"
                            fill="#888888" />
                    </g>
                </g>
                <g id="node-02">
                    <circle id="node-position-02" cx="623.5" cy="63.9286" r="5.35714" fill="#EFEFEF" />
                    <g id="sticky-note_14">
                        <path d="M636 51.4286H611V76.4286H636V51.4286Z" fill="#D0D0D0" />
                        <path d="M636 51.4286H623.5V76.4286H636V51.4286Z" fill="#B8B8B8" />
                        <path d="M630.643 57.8572H616.357V60H630.643V57.8572Z" fill="white" />
                        <path d="M630.643 62.1429H616.357V64.2858H630.643V62.1429Z" fill="white" />
                        <path d="M623.5 66.4286H616.357V68.5715H623.5V66.4286Z" fill="white" />
                        <path d="M636 72.5L633.599 74.0278L632.071 76.4286H636V72.5Z" fill="#888888" />
                        <path d="M632.071 76.4286V72.5H636L632.071 76.4286Z" fill="white" />
                    </g>
                    <g id="pin_14">
                        <path
                            d="M630.487 48.821L626.581 48.3733L622.974 46.8077L624.584 43.0907L627.879 43.5288L630.951 44.7969L630.487 48.821Z"
                            fill="#888888" />
                        <path
                            d="M630.487 48.821L626.581 48.3733L627.879 43.5288L630.951 44.7969L630.487 48.821Z"
                            fill="#666666" />
                        <path
                            d="M624.584 43.0907L624.398 40L632.657 42.213L630.951 44.7969L624.584 43.0907Z"
                            fill="#B8B8B8" />
                        <path
                            d="M626.64 50.3863L625.522 50.0868L623.925 56.0493L625.043 56.3489L626.64 50.3863Z"
                            fill="#D1D1D1" />
                        <path
                            d="M630.707 52.4744L620.957 49.862L622.974 46.8077L630.487 48.821L630.707 52.4744Z"
                            fill="#B8B8B8" />
                        <path
                            d="M627.768 43.9438L628.528 41.1065L632.657 42.213L630.951 44.7969L627.768 43.9438Z"
                            fill="#888888" />
                        <path
                            d="M630.707 52.4744L625.832 51.1682L626.73 47.8143L630.487 48.821L630.707 52.4744Z"
                            fill="#888888" />
                    </g>
                </g>
            </g>
            <g id="start-nodes">
                <g id="node-05">
                    <circle id="node-position-05" cx="493.5" cy="240.5" r="7.5" fill="#F9F0E5" />
                    <g id="sticky-note_15">
                        <path d="M511 223H476V258H511V223Z" fill="#FFD6A0" />
                        <path d="M511 223H493.5V258H511V223Z" fill="#FFC170" />
                        <path d="M503.5 232H483.5V235H503.5V232Z" fill="white" />
                        <path d="M503.5 238H483.5V241H503.5V238Z" fill="white" />
                        <path d="M493.5 244H483.5V247H493.5V244Z" fill="white" />
                        <path d="M511 252.5L507.639 254.639L505.5 258H511V252.5Z" fill="#FF9811" />
                        <path d="M505.5 258V252.5H511L505.5 258Z" fill="white" />
                    </g>
                    <g id="pin_15">
                        <path
                            d="M503.282 219.349L497.813 218.723L492.763 216.531L495.018 211.327L499.63 211.94L503.932 213.716L503.282 219.349Z"
                            fill="#FF5811" />
                        <path
                            d="M503.282 219.349L497.813 218.723L499.63 211.94L503.932 213.716L503.282 219.349Z"
                            fill="#BF380D" />
                        <path
                            d="M495.018 211.327L494.758 207L506.32 210.098L503.932 213.716L495.018 211.327Z"
                            fill="#FF8A70" />
                        <path
                            d="M497.897 221.541L496.332 221.121L494.095 229.469L495.66 229.888L497.897 221.541Z"
                            fill="#AED5F3" />
                        <path
                            d="M503.589 224.464L489.94 220.807L492.763 216.531L503.282 219.349L503.589 224.464Z"
                            fill="#FF8A70" />
                        <path
                            d="M499.475 212.521L500.539 208.549L506.32 210.098L503.932 213.716L499.475 212.521Z"
                            fill="#FF5811" />
                        <path
                            d="M503.589 224.464L496.765 222.635L498.023 217.94L503.282 219.349L503.589 224.464Z"
                            fill="#FF5811" />
                    </g>
                </g>
                <g id="node-04">
                    <circle id="node-position-04" cx="251.5" cy="240.5" r="7.5" fill="#F9F0E5" />
                    <g id="sticky-note_16">
                        <path d="M269 223H234V258H269V223Z" fill="#FFD6A0" />
                        <path d="M269 223H251.5V258H269V223Z" fill="#FFC170" />
                        <path d="M261.5 232H241.5V235H261.5V232Z" fill="white" />
                        <path d="M261.5 238H241.5V241H261.5V238Z" fill="white" />
                        <path d="M251.5 244H241.5V247H251.5V244Z" fill="white" />
                        <path d="M269 252.5L265.639 254.639L263.5 258H269V252.5Z" fill="#FF9811" />
                        <path d="M263.5 258V252.5H269L263.5 258Z" fill="white" />
                    </g>
                    <g id="pin_16">
                        <path
                            d="M261.282 219.349L255.813 218.723L250.763 216.531L253.018 211.327L257.63 211.94L261.932 213.716L261.282 219.349Z"
                            fill="#FF5811" />
                        <path
                            d="M261.282 219.349L255.813 218.723L257.63 211.94L261.932 213.716L261.282 219.349Z"
                            fill="#BF380D" />
                        <path
                            d="M253.018 211.327L252.758 207L264.32 210.098L261.932 213.716L253.018 211.327Z"
                            fill="#FF8A70" />
                        <path
                            d="M255.897 221.541L254.332 221.121L252.095 229.469L253.66 229.888L255.897 221.541Z"
                            fill="#AED5F3" />
                        <path
                            d="M261.589 224.464L247.94 220.807L250.763 216.531L261.282 219.349L261.589 224.464Z"
                            fill="#FF8A70" />
                        <path
                            d="M257.475 212.521L258.539 208.549L264.32 210.098L261.932 213.716L257.475 212.521Z"
                            fill="#FF5811" />
                        <path
                            d="M261.589 224.464L254.765 222.635L256.023 217.94L261.282 219.349L261.589 224.464Z"
                            fill="#FF5811" />
                    </g>
                </g>
                <g id="node-01">
                    <circle id="node-position-01" cx="386.5" cy="73.5" r="7.5" fill="#F9F0E5" />
                    <g id="sticky-note_17">
                        <path d="M404 56H369V91H404V56Z" fill="#FFD6A0" />
                        <path d="M404 56H386.5V91H404V56Z" fill="#FFC170" />
                        <path d="M396.5 65H376.5V68H396.5V65Z" fill="white" />
                        <path d="M396.5 71H376.5V74H396.5V71Z" fill="white" />
                        <path d="M386.5 77H376.5V80H386.5V77Z" fill="white" />
                        <path d="M404 85.5L400.639 87.6389L398.5 91H404V85.5Z" fill="#FF9811" />
                        <path d="M398.5 91V85.5H404L398.5 91Z" fill="white" />
                    </g>
                    <g id="pin_17">
                        <path
                            d="M396.282 52.3493L390.813 51.7226L385.763 49.5308L388.018 44.327L392.63 44.9403L396.932 46.7156L396.282 52.3493Z"
                            fill="#FF5811" />
                        <path
                            d="M396.282 52.3493L390.813 51.7226L392.63 44.9403L396.932 46.7156L396.282 52.3493Z"
                            fill="#BF380D" />
                        <path
                            d="M388.018 44.327L387.758 40L399.32 43.0982L396.932 46.7156L388.018 44.327Z"
                            fill="#FF8A70" />
                        <path
                            d="M390.897 54.5409L389.332 54.1215L387.095 62.469L388.66 62.8884L390.897 54.5409Z"
                            fill="#AED5F3" />
                        <path
                            d="M396.589 57.4642L382.94 53.8068L385.763 49.5308L396.282 52.3493L396.589 57.4642Z"
                            fill="#FF8A70" />
                        <path
                            d="M392.475 45.5213L393.539 41.5491L399.32 43.0982L396.932 46.7156L392.475 45.5213Z"
                            fill="#FF5811" />
                        <path
                            d="M396.589 57.4642L389.765 55.6355L391.023 50.94L396.282 52.3493L396.589 57.4642Z"
                            fill="#FF5811" />
                    </g>
                </g>
                <g id="node-00">
                    <circle id="node-position-00" cx="144.5" cy="73.5" r="7.5" fill="#F9F0E5" />
                    <g id="sticky-note_18">
                        <path d="M162 56H127V91H162V56Z" fill="#FFD6A0" />
                        <path d="M162 56H144.5V91H162V56Z" fill="#FFC170" />
                        <path d="M154.5 65H134.5V68H154.5V65Z" fill="white" />
                        <path d="M154.5 71H134.5V74H154.5V71Z" fill="white" />
                        <path d="M144.5 77H134.5V80H144.5V77Z" fill="white" />
                        <path d="M162 85.5L158.639 87.6389L156.5 91H162V85.5Z" fill="#FF9811" />
                        <path d="M156.5 91V85.5H162L156.5 91Z" fill="white" />
                    </g>
                    <g id="pin_18">
                        <path
                            d="M154.282 52.3493L148.813 51.7226L143.763 49.5308L146.018 44.327L150.63 44.9403L154.932 46.7156L154.282 52.3493Z"
                            fill="#FF5811" />
                        <path
                            d="M154.282 52.3493L148.813 51.7226L150.63 44.9403L154.932 46.7156L154.282 52.3493Z"
                            fill="#BF380D" />
                        <path
                            d="M146.018 44.327L145.758 40L157.32 43.0982L154.932 46.7156L146.018 44.327Z"
                            fill="#FF8A70" />
                        <path
                            d="M148.897 54.5409L147.332 54.1215L145.095 62.469L146.66 62.8884L148.897 54.5409Z"
                            fill="#AED5F3" />
                        <path
                            d="M154.589 57.4642L140.94 53.8068L143.763 49.5308L154.282 52.3493L154.589 57.4642Z"
                            fill="#FF8A70" />
                        <path
                            d="M150.475 45.5213L151.539 41.5491L157.32 43.0982L154.932 46.7156L150.475 45.5213Z"
                            fill="#FF5811" />
                        <path
                            d="M154.589 57.4642L147.765 55.6355L149.023 50.94L154.282 52.3493L154.589 57.4642Z"
                            fill="#FF5811" />
                    </g>
                </g>
            </g>
        </g>
    </g>
</svg>