<svg class="img-fluid" id="graphNetwork" width="1000" height="800" viewBox="0 0 1000 800" fill="none" xmlns="http://www.w3.org/2000/svg">
    <g id="GraphNetwork" clip-path="url(#clip0_117_160)">
        <rect width="1000" height="800" fill="#F9F0E5" />
        <g id="nodes">
            <g id="end-nodes">
                <g id="node">
                    <circle id="helper-point" cx="664.5" cy="690.5" r="7.5" fill="#F9F0E5" />
                    <g id="sticky-note">
                        <path d="M682 673H647V708H682V673Z" fill="#FFD6A0" />
                        <path d="M682 673H664.5V708H682V673Z" fill="#FFC170" />
                        <path d="M674.5 682H654.5V685H674.5V682Z" fill="white" />
                        <path d="M674.5 688H654.5V691H674.5V688Z" fill="white" />
                        <path d="M664.5 694H654.5V697H664.5V694Z" fill="white" />
                        <path d="M682 702.5L678.639 704.639L676.5 708H682V702.5Z" fill="#FF9811" />
                        <path d="M676.5 708V702.5H682L676.5 708Z" fill="white" />
                    </g>
                    <g id="pin">
                        <path
                            d="M674.282 669.349L668.813 668.723L663.763 666.531L666.018 661.327L670.63 661.94L674.932 663.716L674.282 669.349Z"
                            fill="#FF5811" />
                        <path
                            d="M674.282 669.349L668.813 668.723L670.63 661.94L674.932 663.716L674.282 669.349Z"
                            fill="#BF380D" />
                        <path
                            d="M666.018 661.327L665.758 657L677.32 660.098L674.932 663.716L666.018 661.327Z"
                            fill="#FF8A70" />
                        <path
                            d="M668.897 671.541L667.332 671.121L665.095 679.469L666.66 679.888L668.897 671.541Z"
                            fill="#AED5F3" />
                        <path
                            d="M674.589 674.464L660.94 670.807L663.763 666.531L674.282 669.349L674.589 674.464Z"
                            fill="#FF8A70" />
                        <path
                            d="M670.475 662.521L671.539 658.549L677.32 660.098L674.932 663.716L670.475 662.521Z"
                            fill="#FF5811" />
                        <path
                            d="M674.589 674.464L667.765 672.635L669.023 667.94L674.282 669.349L674.589 674.464Z"
                            fill="#FF5811" />
                    </g>
                </g>
                <g id="node_2">
                    <circle id="helper-point_2" cx="762.5" cy="598.5" r="7.5" fill="#F9F0E5" />
                    <g id="sticky-note_2">
                        <path d="M780 581H745V616H780V581Z" fill="#FFD6A0" />
                        <path d="M780 581H762.5V616H780V581Z" fill="#FFC170" />
                        <path d="M772.5 590H752.5V593H772.5V590Z" fill="white" />
                        <path d="M772.5 596H752.5V599H772.5V596Z" fill="white" />
                        <path d="M762.5 602H752.5V605H762.5V602Z" fill="white" />
                        <path d="M780 610.5L776.639 612.639L774.5 616H780V610.5Z" fill="#FF9811" />
                        <path d="M774.5 616V610.5H780L774.5 616Z" fill="white" />
                    </g>
                    <g id="pin_2">
                        <path
                            d="M772.282 577.349L766.813 576.723L761.763 574.531L764.018 569.327L768.63 569.94L772.932 571.716L772.282 577.349Z"
                            fill="#FF5811" />
                        <path
                            d="M772.282 577.349L766.813 576.723L768.63 569.94L772.932 571.716L772.282 577.349Z"
                            fill="#BF380D" />
                        <path
                            d="M764.018 569.327L763.758 565L775.32 568.098L772.932 571.716L764.018 569.327Z"
                            fill="#FF8A70" />
                        <path
                            d="M766.897 579.541L765.332 579.121L763.095 587.469L764.66 587.888L766.897 579.541Z"
                            fill="#AED5F3" />
                        <path
                            d="M772.589 582.464L758.94 578.807L761.763 574.531L772.282 577.349L772.589 582.464Z"
                            fill="#FF8A70" />
                        <path
                            d="M768.475 570.521L769.539 566.549L775.32 568.098L772.932 571.716L768.475 570.521Z"
                            fill="#FF5811" />
                        <path
                            d="M772.589 582.464L765.765 580.635L767.023 575.94L772.282 577.349L772.589 582.464Z"
                            fill="#FF5811" />
                    </g>
                </g>
                <g id="node_3">
                    <circle id="helper-point_3" cx="860.5" cy="505.5" r="7.5" fill="#F9F0E5" />
                    <g id="sticky-note_3">
                        <path d="M878 488H843V523H878V488Z" fill="#FFD6A0" />
                        <path d="M878 488H860.5V523H878V488Z" fill="#FFC170" />
                        <path d="M870.5 497H850.5V500H870.5V497Z" fill="white" />
                        <path d="M870.5 503H850.5V506H870.5V503Z" fill="white" />
                        <path d="M860.5 509H850.5V512H860.5V509Z" fill="white" />
                        <path d="M878 517.5L874.639 519.639L872.5 523H878V517.5Z" fill="#FF9811" />
                        <path d="M872.5 523V517.5H878L872.5 523Z" fill="white" />
                    </g>
                    <g id="pin_3">
                        <path
                            d="M870.282 484.349L864.813 483.723L859.763 481.531L862.018 476.327L866.63 476.94L870.932 478.716L870.282 484.349Z"
                            fill="#FF5811" />
                        <path
                            d="M870.282 484.349L864.813 483.723L866.63 476.94L870.932 478.716L870.282 484.349Z"
                            fill="#BF380D" />
                        <path
                            d="M862.018 476.327L861.758 472L873.32 475.098L870.932 478.716L862.018 476.327Z"
                            fill="#FF8A70" />
                        <path
                            d="M864.897 486.541L863.332 486.121L861.095 494.469L862.66 494.888L864.897 486.541Z"
                            fill="#AED5F3" />
                        <path
                            d="M870.589 489.464L856.94 485.807L859.763 481.531L870.282 484.349L870.589 489.464Z"
                            fill="#FF8A70" />
                        <path
                            d="M866.475 477.521L867.539 473.549L873.32 475.098L870.932 478.716L866.475 477.521Z"
                            fill="#FF5811" />
                        <path
                            d="M870.589 489.464L863.765 487.635L865.023 482.94L870.282 484.349L870.589 489.464Z"
                            fill="#FF5811" />
                    </g>
                </g>
                <g id="node_4">
                    <circle id="helper-point_4" cx="762.5" cy="505.5" r="7.5" fill="#F9F0E5" />
                    <g id="sticky-note_4">
                        <path d="M780 488H745V523H780V488Z" fill="#FFD6A0" />
                        <path d="M780 488H762.5V523H780V488Z" fill="#FFC170" />
                        <path d="M772.5 497H752.5V500H772.5V497Z" fill="white" />
                        <path d="M772.5 503H752.5V506H772.5V503Z" fill="white" />
                        <path d="M762.5 509H752.5V512H762.5V509Z" fill="white" />
                        <path d="M780 517.5L776.639 519.639L774.5 523H780V517.5Z" fill="#FF9811" />
                        <path d="M774.5 523V517.5H780L774.5 523Z" fill="white" />
                    </g>
                    <g id="pin_4">
                        <path
                            d="M772.282 484.349L766.813 483.723L761.763 481.531L764.018 476.327L768.63 476.94L772.932 478.716L772.282 484.349Z"
                            fill="#FF5811" />
                        <path
                            d="M772.282 484.349L766.813 483.723L768.63 476.94L772.932 478.716L772.282 484.349Z"
                            fill="#BF380D" />
                        <path
                            d="M764.018 476.327L763.758 472L775.32 475.098L772.932 478.716L764.018 476.327Z"
                            fill="#FF8A70" />
                        <path
                            d="M766.897 486.541L765.332 486.121L763.095 494.469L764.66 494.888L766.897 486.541Z"
                            fill="#AED5F3" />
                        <path
                            d="M772.589 489.464L758.94 485.807L761.763 481.531L772.282 484.349L772.589 489.464Z"
                            fill="#FF8A70" />
                        <path
                            d="M768.475 477.521L769.539 473.549L775.32 475.098L772.932 478.716L768.475 477.521Z"
                            fill="#FF5811" />
                        <path
                            d="M772.589 489.464L765.765 487.635L767.023 482.94L772.282 484.349L772.589 489.464Z"
                            fill="#FF5811" />
                    </g>
                </g>
                <g id="node_5">
                    <circle id="helper-point_5" cx="664.5" cy="505.5" r="7.5" fill="#F9F0E5" />
                    <g id="sticky-note_5">
                        <path d="M682 488H647V523H682V488Z" fill="#FFD6A0" />
                        <path d="M682 488H664.5V523H682V488Z" fill="#FFC170" />
                        <path d="M674.5 497H654.5V500H674.5V497Z" fill="white" />
                        <path d="M674.5 503H654.5V506H674.5V503Z" fill="white" />
                        <path d="M664.5 509H654.5V512H664.5V509Z" fill="white" />
                        <path d="M682 517.5L678.639 519.639L676.5 523H682V517.5Z" fill="#FF9811" />
                        <path d="M676.5 523V517.5H682L676.5 523Z" fill="white" />
                    </g>
                    <g id="pin_5">
                        <path
                            d="M674.282 484.349L668.813 483.723L663.763 481.531L666.018 476.327L670.63 476.94L674.932 478.716L674.282 484.349Z"
                            fill="#FF5811" />
                        <path
                            d="M674.282 484.349L668.813 483.723L670.63 476.94L674.932 478.716L674.282 484.349Z"
                            fill="#BF380D" />
                        <path
                            d="M666.018 476.327L665.758 472L677.32 475.098L674.932 478.716L666.018 476.327Z"
                            fill="#FF8A70" />
                        <path
                            d="M668.897 486.541L667.332 486.121L665.095 494.469L666.66 494.888L668.897 486.541Z"
                            fill="#AED5F3" />
                        <path
                            d="M674.589 489.464L660.94 485.807L663.763 481.531L674.282 484.349L674.589 489.464Z"
                            fill="#FF8A70" />
                        <path
                            d="M670.475 477.521L671.539 473.549L677.32 475.098L674.932 478.716L670.475 477.521Z"
                            fill="#FF5811" />
                        <path
                            d="M674.589 489.464L667.765 487.635L669.023 482.94L674.282 484.349L674.589 489.464Z"
                            fill="#FF5811" />
                    </g>
                </g>
            </g>
            <g id="story-nodes">
                <g id="node_6">
                    <circle id="helper-point_6" cx="372.5" cy="495.929" r="5.35714" fill="#EFEFEF" />
                    <g id="sticky-note_6">
                        <path d="M385 483.428H360V508.428H385V483.428Z" fill="#D0D0D0" />
                        <path d="M385 483.428H372.5V508.428H385V483.428Z" fill="#B8B8B8" />
                        <path d="M379.643 489.857H365.357V492H379.643V489.857Z" fill="white" />
                        <path d="M379.643 494.143H365.357V496.286H379.643V494.143Z" fill="white" />
                        <path d="M372.5 498.428H365.357V500.571H372.5V498.428Z" fill="white" />
                        <path d="M385 504.5L382.599 506.028L381.071 508.428H385V504.5Z"
                            fill="#888888" />
                        <path d="M381.071 508.428V504.5H385L381.071 508.428Z" fill="white" />
                    </g>
                    <g id="pin_6">
                        <path
                            d="M379.487 480.821L375.581 480.373L371.974 478.808L373.584 475.091L376.879 475.529L379.951 476.797L379.487 480.821Z"
                            fill="#888888" />
                        <path
                            d="M379.487 480.821L375.581 480.373L376.879 475.529L379.951 476.797L379.487 480.821Z"
                            fill="#666666" />
                        <path
                            d="M373.584 475.091L373.398 472L381.657 474.213L379.951 476.797L373.584 475.091Z"
                            fill="#B8B8B8" />
                        <path
                            d="M375.64 482.386L374.522 482.087L372.925 488.049L374.043 488.349L375.64 482.386Z"
                            fill="#D1D1D1" />
                        <path
                            d="M379.707 484.474L369.957 481.862L371.974 478.808L379.487 480.821L379.707 484.474Z"
                            fill="#B8B8B8" />
                        <path
                            d="M376.768 475.944L377.528 473.106L381.657 474.213L379.951 476.797L376.768 475.944Z"
                            fill="#888888" />
                        <path
                            d="M379.707 484.474L374.832 483.168L375.73 479.814L379.487 480.821L379.707 484.474Z"
                            fill="#888888" />
                    </g>
                </g>
                <g id="node_7">
                    <circle id="helper-point_7" cx="470.5" cy="403.929" r="5.35714" fill="#EFEFEF" />
                    <g id="sticky-note_7">
                        <path d="M483 391.428H458V416.428H483V391.428Z" fill="#D0D0D0" />
                        <path d="M483 391.428H470.5V416.428H483V391.428Z" fill="#B8B8B8" />
                        <path d="M477.643 397.857H463.357V400H477.643V397.857Z" fill="white" />
                        <path d="M477.643 402.143H463.357V404.286H477.643V402.143Z" fill="white" />
                        <path d="M470.5 406.428H463.357V408.571H470.5V406.428Z" fill="white" />
                        <path d="M483 412.5L480.599 414.028L479.071 416.428H483V412.5Z"
                            fill="#888888" />
                        <path d="M479.071 416.428V412.5H483L479.071 416.428Z" fill="white" />
                    </g>
                    <g id="pin_7">
                        <path
                            d="M477.487 388.821L473.581 388.373L469.974 386.808L471.584 383.091L474.879 383.529L477.951 384.797L477.487 388.821Z"
                            fill="#888888" />
                        <path
                            d="M477.487 388.821L473.581 388.373L474.879 383.529L477.951 384.797L477.487 388.821Z"
                            fill="#666666" />
                        <path
                            d="M471.584 383.091L471.398 380L479.657 382.213L477.951 384.797L471.584 383.091Z"
                            fill="#B8B8B8" />
                        <path
                            d="M473.64 390.386L472.522 390.087L470.925 396.049L472.043 396.349L473.64 390.386Z"
                            fill="#D1D1D1" />
                        <path
                            d="M477.707 392.474L467.957 389.862L469.974 386.808L477.487 388.821L477.707 392.474Z"
                            fill="#B8B8B8" />
                        <path
                            d="M474.768 383.944L475.528 381.106L479.657 382.213L477.951 384.797L474.768 383.944Z"
                            fill="#888888" />
                        <path
                            d="M477.707 392.474L472.832 391.168L473.73 387.814L477.487 388.821L477.707 392.474Z"
                            fill="#888888" />
                    </g>
                </g>
                <g id="node_8">
                    <circle id="helper-point_8" cx="568.5" cy="310.929" r="5.35714" fill="#EFEFEF" />
                    <g id="sticky-note_8">
                        <path d="M581 298.428H556V323.428H581V298.428Z" fill="#D0D0D0" />
                        <path d="M581 298.428H568.5V323.428H581V298.428Z" fill="#B8B8B8" />
                        <path d="M575.643 304.857H561.357V307H575.643V304.857Z" fill="white" />
                        <path d="M575.643 309.143H561.357V311.286H575.643V309.143Z" fill="white" />
                        <path d="M568.5 313.428H561.357V315.571H568.5V313.428Z" fill="white" />
                        <path d="M581 319.5L578.599 321.028L577.071 323.428H581V319.5Z"
                            fill="#888888" />
                        <path d="M577.071 323.428V319.5H581L577.071 323.428Z" fill="white" />
                    </g>
                    <g id="pin_8">
                        <path
                            d="M575.487 295.821L571.581 295.373L567.974 293.808L569.584 290.091L572.879 290.529L575.951 291.797L575.487 295.821Z"
                            fill="#888888" />
                        <path
                            d="M575.487 295.821L571.581 295.373L572.879 290.529L575.951 291.797L575.487 295.821Z"
                            fill="#666666" />
                        <path
                            d="M569.584 290.091L569.398 287L577.657 289.213L575.951 291.797L569.584 290.091Z"
                            fill="#B8B8B8" />
                        <path
                            d="M571.64 297.386L570.522 297.087L568.925 303.049L570.043 303.349L571.64 297.386Z"
                            fill="#D1D1D1" />
                        <path
                            d="M575.707 299.474L565.957 296.862L567.974 293.808L575.487 295.821L575.707 299.474Z"
                            fill="#B8B8B8" />
                        <path
                            d="M572.768 290.944L573.528 288.106L577.657 289.213L575.951 291.797L572.768 290.944Z"
                            fill="#888888" />
                        <path
                            d="M575.707 299.474L570.832 298.168L571.73 294.814L575.487 295.821L575.707 299.474Z"
                            fill="#888888" />
                    </g>
                </g>
                <g id="node_9">
                    <circle id="helper-point_9" cx="470.5" cy="310.929" r="5.35714" fill="#EFEFEF" />
                    <g id="sticky-note_9">
                        <path d="M483 298.428H458V323.428H483V298.428Z" fill="#D0D0D0" />
                        <path d="M483 298.428H470.5V323.428H483V298.428Z" fill="#B8B8B8" />
                        <path d="M477.643 304.857H463.357V307H477.643V304.857Z" fill="white" />
                        <path d="M477.643 309.143H463.357V311.286H477.643V309.143Z" fill="white" />
                        <path d="M470.5 313.428H463.357V315.571H470.5V313.428Z" fill="white" />
                        <path d="M483 319.5L480.599 321.028L479.071 323.428H483V319.5Z"
                            fill="#888888" />
                        <path d="M479.071 323.428V319.5H483L479.071 323.428Z" fill="white" />
                    </g>
                    <g id="pin_9">
                        <path
                            d="M477.487 295.821L473.581 295.373L469.974 293.808L471.584 290.091L474.879 290.529L477.951 291.797L477.487 295.821Z"
                            fill="#888888" />
                        <path
                            d="M477.487 295.821L473.581 295.373L474.879 290.529L477.951 291.797L477.487 295.821Z"
                            fill="#666666" />
                        <path
                            d="M471.584 290.091L471.398 287L479.657 289.213L477.951 291.797L471.584 290.091Z"
                            fill="#B8B8B8" />
                        <path
                            d="M473.64 297.386L472.522 297.087L470.925 303.049L472.043 303.349L473.64 297.386Z"
                            fill="#D1D1D1" />
                        <path
                            d="M477.707 299.474L467.957 296.862L469.974 293.808L477.487 295.821L477.707 299.474Z"
                            fill="#B8B8B8" />
                        <path
                            d="M474.768 290.944L475.528 288.106L479.657 289.213L477.951 291.797L474.768 290.944Z"
                            fill="#888888" />
                        <path
                            d="M477.707 299.474L472.832 298.168L473.73 294.814L477.487 295.821L477.707 299.474Z"
                            fill="#888888" />
                    </g>
                </g>
                <g id="node_10">
                    <circle id="helper-point_10" cx="372.5" cy="310.929" r="5.35714" fill="#EFEFEF" />
                    <g id="sticky-note_10">
                        <path d="M385 298.428H360V323.428H385V298.428Z" fill="#D0D0D0" />
                        <path d="M385 298.428H372.5V323.428H385V298.428Z" fill="#B8B8B8" />
                        <path d="M379.643 304.857H365.357V307H379.643V304.857Z" fill="white" />
                        <path d="M379.643 309.143H365.357V311.286H379.643V309.143Z" fill="white" />
                        <path d="M372.5 313.428H365.357V315.571H372.5V313.428Z" fill="white" />
                        <path d="M385 319.5L382.599 321.028L381.071 323.428H385V319.5Z"
                            fill="#888888" />
                        <path d="M381.071 323.428V319.5H385L381.071 323.428Z" fill="white" />
                    </g>
                    <g id="pin_10">
                        <path
                            d="M379.487 295.821L375.581 295.373L371.974 293.808L373.584 290.091L376.879 290.529L379.951 291.797L379.487 295.821Z"
                            fill="#888888" />
                        <path
                            d="M379.487 295.821L375.581 295.373L376.879 290.529L379.951 291.797L379.487 295.821Z"
                            fill="#666666" />
                        <path
                            d="M373.584 290.091L373.398 287L381.657 289.213L379.951 291.797L373.584 290.091Z"
                            fill="#B8B8B8" />
                        <path
                            d="M375.64 297.386L374.522 297.087L372.925 303.049L374.043 303.349L375.64 297.386Z"
                            fill="#D1D1D1" />
                        <path
                            d="M379.707 299.474L369.957 296.862L371.974 293.808L379.487 295.821L379.707 299.474Z"
                            fill="#B8B8B8" />
                        <path
                            d="M376.768 290.944L377.528 288.106L381.657 289.213L379.951 291.797L376.768 290.944Z"
                            fill="#888888" />
                        <path
                            d="M379.707 299.474L374.832 298.168L375.73 294.814L379.487 295.821L379.707 299.474Z"
                            fill="#888888" />
                    </g>
                </g>
            </g>
            <g id="start-nodes">
                <g id="node_11">
                    <circle id="helper-point_11" cx="151.5" cy="294.5" r="7.5" fill="#F9F0E5" />
                    <g id="sticky-note_11">
                        <path d="M169 277H134V312H169V277Z" fill="#FFD6A0" />
                        <path d="M169 277H151.5V312H169V277Z" fill="#FFC170" />
                        <path d="M161.5 286H141.5V289H161.5V286Z" fill="white" />
                        <path d="M161.5 292H141.5V295H161.5V292Z" fill="white" />
                        <path d="M151.5 298H141.5V301H151.5V298Z" fill="white" />
                        <path d="M169 306.5L165.639 308.639L163.5 312H169V306.5Z" fill="#FF9811" />
                        <path d="M163.5 312V306.5H169L163.5 312Z" fill="white" />
                    </g>
                    <g id="pin_11">
                        <path
                            d="M161.282 273.349L155.813 272.723L150.763 270.531L153.018 265.327L157.63 265.94L161.932 267.716L161.282 273.349Z"
                            fill="#FF5811" />
                        <path
                            d="M161.282 273.349L155.813 272.723L157.63 265.94L161.932 267.716L161.282 273.349Z"
                            fill="#BF380D" />
                        <path
                            d="M153.018 265.327L152.758 261L164.32 264.098L161.932 267.716L153.018 265.327Z"
                            fill="#FF8A70" />
                        <path
                            d="M155.897 275.541L154.332 275.121L152.095 283.469L153.66 283.888L155.897 275.541Z"
                            fill="#AED5F3" />
                        <path
                            d="M161.589 278.464L147.94 274.807L150.763 270.531L161.282 273.349L161.589 278.464Z"
                            fill="#FF8A70" />
                        <path
                            d="M157.475 266.521L158.539 262.549L164.32 264.098L161.932 267.716L157.475 266.521Z"
                            fill="#FF5811" />
                        <path
                            d="M161.589 278.464L154.765 276.635L156.023 271.94L161.282 273.349L161.589 278.464Z"
                            fill="#FF5811" />
                    </g>
                </g>
                <g id="node_12">
                    <circle id="helper-point_12" cx="249.5" cy="202.5" r="7.5" fill="#F9F0E5" />
                    <g id="sticky-note_12">
                        <path d="M267 185H232V220H267V185Z" fill="#FFD6A0" />
                        <path d="M267 185H249.5V220H267V185Z" fill="#FFC170" />
                        <path d="M259.5 194H239.5V197H259.5V194Z" fill="white" />
                        <path d="M259.5 200H239.5V203H259.5V200Z" fill="white" />
                        <path d="M249.5 206H239.5V209H249.5V206Z" fill="white" />
                        <path d="M267 214.5L263.639 216.639L261.5 220H267V214.5Z" fill="#FF9811" />
                        <path d="M261.5 220V214.5H267L261.5 220Z" fill="white" />
                    </g>
                    <g id="pin_12">
                        <path
                            d="M259.282 181.349L253.813 180.723L248.763 178.531L251.018 173.327L255.63 173.94L259.932 175.716L259.282 181.349Z"
                            fill="#FF5811" />
                        <path
                            d="M259.282 181.349L253.813 180.723L255.63 173.94L259.932 175.716L259.282 181.349Z"
                            fill="#BF380D" />
                        <path
                            d="M251.018 173.327L250.758 169L262.32 172.098L259.932 175.716L251.018 173.327Z"
                            fill="#FF8A70" />
                        <path
                            d="M253.897 183.541L252.332 183.121L250.095 191.469L251.66 191.888L253.897 183.541Z"
                            fill="#AED5F3" />
                        <path
                            d="M259.589 186.464L245.94 182.807L248.763 178.531L259.282 181.349L259.589 186.464Z"
                            fill="#FF8A70" />
                        <path
                            d="M255.475 174.521L256.539 170.549L262.32 172.098L259.932 175.716L255.475 174.521Z"
                            fill="#FF5811" />
                        <path
                            d="M259.589 186.464L252.765 184.635L254.023 179.94L259.282 181.349L259.589 186.464Z"
                            fill="#FF5811" />
                    </g>
                </g>
                <g id="node_13">
                    <circle id="helper-point_13" cx="347.5" cy="109.5" r="7.5" fill="#F9F0E5" />
                    <g id="sticky-note_13">
                        <path d="M365 92H330V127H365V92Z" fill="#FFD6A0" />
                        <path d="M365 92H347.5V127H365V92Z" fill="#FFC170" />
                        <path d="M357.5 101H337.5V104H357.5V101Z" fill="white" />
                        <path d="M357.5 107H337.5V110H357.5V107Z" fill="white" />
                        <path d="M347.5 113H337.5V116H347.5V113Z" fill="white" />
                        <path d="M365 121.5L361.639 123.639L359.5 127H365V121.5Z" fill="#FF9811" />
                        <path d="M359.5 127V121.5H365L359.5 127Z" fill="white" />
                    </g>
                    <g id="pin_13">
                        <path
                            d="M357.282 88.3493L351.813 87.7226L346.763 85.5308L349.018 80.327L353.63 80.9403L357.932 82.7156L357.282 88.3493Z"
                            fill="#FF5811" />
                        <path
                            d="M357.282 88.3493L351.813 87.7226L353.63 80.9403L357.932 82.7156L357.282 88.3493Z"
                            fill="#BF380D" />
                        <path
                            d="M349.018 80.327L348.758 76L360.32 79.0982L357.932 82.7156L349.018 80.327Z"
                            fill="#FF8A70" />
                        <path
                            d="M351.897 90.5409L350.332 90.1215L348.095 98.469L349.66 98.8884L351.897 90.5409Z"
                            fill="#AED5F3" />
                        <path
                            d="M357.589 93.4642L343.94 89.8068L346.763 85.5308L357.282 88.3493L357.589 93.4642Z"
                            fill="#FF8A70" />
                        <path
                            d="M353.475 81.5213L354.539 77.5491L360.32 79.0982L357.932 82.7156L353.475 81.5213Z"
                            fill="#FF5811" />
                        <path
                            d="M357.589 93.4642L350.765 91.6355L352.023 86.94L357.282 88.3493L357.589 93.4642Z"
                            fill="#FF5811" />
                    </g>
                </g>
                <g id="node_14">
                    <circle id="helper-point_14" cx="249.5" cy="109.5" r="7.5" fill="#F9F0E5" />
                    <g id="sticky-note_14">
                        <path d="M267 92H232V127H267V92Z" fill="#FFD6A0" />
                        <path d="M267 92H249.5V127H267V92Z" fill="#FFC170" />
                        <path d="M259.5 101H239.5V104H259.5V101Z" fill="white" />
                        <path d="M259.5 107H239.5V110H259.5V107Z" fill="white" />
                        <path d="M249.5 113H239.5V116H249.5V113Z" fill="white" />
                        <path d="M267 121.5L263.639 123.639L261.5 127H267V121.5Z" fill="#FF9811" />
                        <path d="M261.5 127V121.5H267L261.5 127Z" fill="white" />
                    </g>
                    <g id="pin_14">
                        <path
                            d="M259.282 88.3493L253.813 87.7226L248.763 85.5308L251.018 80.327L255.63 80.9403L259.932 82.7156L259.282 88.3493Z"
                            fill="#FF5811" />
                        <path
                            d="M259.282 88.3493L253.813 87.7226L255.63 80.9403L259.932 82.7156L259.282 88.3493Z"
                            fill="#BF380D" />
                        <path
                            d="M251.018 80.327L250.758 76L262.32 79.0982L259.932 82.7156L251.018 80.327Z"
                            fill="#FF8A70" />
                        <path
                            d="M253.897 90.5409L252.332 90.1215L250.095 98.469L251.66 98.8884L253.897 90.5409Z"
                            fill="#AED5F3" />
                        <path
                            d="M259.589 93.4642L245.94 89.8068L248.763 85.5308L259.282 88.3493L259.589 93.4642Z"
                            fill="#FF8A70" />
                        <path
                            d="M255.475 81.5213L256.539 77.5491L262.32 79.0982L259.932 82.7156L255.475 81.5213Z"
                            fill="#FF5811" />
                        <path
                            d="M259.589 93.4642L252.765 91.6355L254.023 86.94L259.282 88.3493L259.589 93.4642Z"
                            fill="#FF5811" />
                    </g>
                </g>
                <g id="node_15">
                    <circle id="helper-point_15" cx="151.5" cy="109.5" r="7.5" fill="#F9F0E5" />
                    <g id="sticky-note_15">
                        <path d="M169 92H134V127H169V92Z" fill="#FFD6A0" />
                        <path d="M169 92H151.5V127H169V92Z" fill="#FFC170" />
                        <path d="M161.5 101H141.5V104H161.5V101Z" fill="white" />
                        <path d="M161.5 107H141.5V110H161.5V107Z" fill="white" />
                        <path d="M151.5 113H141.5V116H151.5V113Z" fill="white" />
                        <path d="M169 121.5L165.639 123.639L163.5 127H169V121.5Z" fill="#FF9811" />
                        <path d="M163.5 127V121.5H169L163.5 127Z" fill="white" />
                    </g>
                    <g id="pin_15">
                        <path
                            d="M161.282 88.3493L155.813 87.7226L150.763 85.5308L153.018 80.327L157.63 80.9403L161.932 82.7156L161.282 88.3493Z"
                            fill="#FF5811" />
                        <path
                            d="M161.282 88.3493L155.813 87.7226L157.63 80.9403L161.932 82.7156L161.282 88.3493Z"
                            fill="#BF380D" />
                        <path
                            d="M153.018 80.327L152.758 76L164.32 79.0982L161.932 82.7156L153.018 80.327Z"
                            fill="#FF8A70" />
                        <path
                            d="M155.897 90.5409L154.332 90.1215L152.095 98.469L153.66 98.8884L155.897 90.5409Z"
                            fill="#AED5F3" />
                        <path
                            d="M161.589 93.4642L147.94 89.8068L150.763 85.5308L161.282 88.3493L161.589 93.4642Z"
                            fill="#FF8A70" />
                        <path
                            d="M157.475 81.5213L158.539 77.5491L164.32 79.0982L161.932 82.7156L157.475 81.5213Z"
                            fill="#FF5811" />
                        <path
                            d="M161.589 93.4642L154.765 91.6355L156.023 86.94L161.282 88.3493L161.589 93.4642Z"
                            fill="#FF5811" />
                    </g>
                </g>
            </g>
        </g>
        <g id="pencil">
            <path
                d="M983.039 4.52571L956.51 31.0547L961.318 38.7962L969.06 43.6044L995.589 17.0754L983.039 4.52571Z"
                fill="#E9F4FC" />
            <path
                d="M983.039 4.52571L956.51 31.0547L956.974 34.452L960.371 34.9161L986.9 8.38712L983.039 4.52571Z"
                fill="#C9E3F7" />
            <path
                d="M991.727 13.2139L965.198 39.7429L965.662 43.1403L969.06 43.6044L995.589 17.0754L991.727 13.2139Z"
                fill="#78B9EB" />
            <path d="M956.51 31.0547L954 46.1143L969.06 43.6044L956.51 31.0547Z" fill="#FFEFD9" />
            <path d="M954 46.1143L969.06 43.6044L962.785 37.3295" fill="#FFD6A0" />
            <path
                d="M997.036 15.6271L984.487 3.07733L981.59 5.97341L994.14 18.5231L997.036 15.6271Z"
                fill="#FFC170" />
            <path
                d="M997.036 15.6271L990.761 9.35219L987.865 12.2483L994.14 18.5231L997.036 15.6271Z"
                fill="#FF9811" />
            <path
                d="M997.036 15.6271L997.519 15.1447C1000.98 11.6847 1000.98 6.05493 997.519 2.59497C994.059 -0.864988 988.43 -0.86499 984.97 2.59497L984.487 3.07733L997.036 15.6271Z"
                fill="#FFD6A0" />
            <path d="M955.263 38.5336L954 46.1143L961.581 44.8509L955.263 38.5336Z" fill="#3C5D76" />
        </g>
    </g>
    <defs>
        <clipPath id="clip0_117_160">
            <rect width="1000" height="800" fill="white" />
        </clipPath>
    </defs>
</svg>