<svg width="1000" height="800" viewBox="0 0 1000 800" fill="none" xmlns="http://www.w3.org/2000/svg">
    <g id="GraphNetwork" clip-path="url(#clip0_117_160)">
        <rect width="1000" height="800" fill="#F9F0E5" />
        <g id="nodes">
            <g id="start-nodes">
                <g id="node">
                    <g id="sticky-note">
                        <path d="M169 92.2183H134V127.218H169V92.2183Z" fill="#FFD6A0" />
                        <path d="M169 92.2183H151.5V127.218H169V92.2183Z" fill="#FFC170" />
                        <path d="M161.5 101.218H141.5V104.218H161.5V101.218Z" fill="white" />
                        <path d="M161.5 107.218H141.5V110.218H161.5V107.218Z" fill="white" />
                        <path d="M151.5 113.218H141.5V116.218H151.5V113.218Z" fill="white" />
                        <path d="M169 121.718L165.639 123.857L163.5 127.218H169V121.718Z"
                            fill="#FF9811" />
                        <path d="M163.5 127.218V121.718H169L163.5 127.218Z" fill="white" />
                    </g>
                    <g id="pin">
                        <path
                            d="M161.282 88.3493L155.813 87.7226L150.763 85.5308L153.018 80.327L157.63 80.9403L161.932 82.7156L161.282 88.3493Z"
                            fill="#FF5811" />
                        <path
                            d="M161.282 88.3493L155.813 87.7226L157.63 80.9403L161.932 82.7156L161.282 88.3493Z"
                            fill="#BF380D" />
                        <path
                            d="M153.018 80.327L152.758 76L164.32 79.0982L161.932 82.7156L153.018 80.327Z"
                            fill="#FF8A70" />
                        <path
                            d="M155.897 90.5409L154.332 90.1215L152.095 98.469L153.66 98.8884L155.897 90.5409Z"
                            fill="#AED5F3" />
                        <path
                            d="M161.589 93.4642L147.94 89.8068L150.763 85.5308L161.282 88.3493L161.589 93.4642Z"
                            fill="#FF8A70" />
                        <path
                            d="M157.475 81.5213L158.539 77.5491L164.32 79.0982L161.932 82.7156L157.475 81.5213Z"
                            fill="#FF5811" />
                        <path
                            d="M161.589 93.4642L154.765 91.6355L156.023 86.94L161.282 88.3493L161.589 93.4642Z"
                            fill="#FF5811" />
                    </g>
                </g>
                <g id="node_2">
                    <g id="sticky-note_2">
                        <path d="M268 92.2183H233V127.218H268V92.2183Z" fill="#FFD6A0" />
                        <path d="M268 92.2183H250.5V127.218H268V92.2183Z" fill="#FFC170" />
                        <path d="M260.5 101.218H240.5V104.218H260.5V101.218Z" fill="white" />
                        <path d="M260.5 107.218H240.5V110.218H260.5V107.218Z" fill="white" />
                        <path d="M250.5 113.218H240.5V116.218H250.5V113.218Z" fill="white" />
                        <path d="M268 121.718L264.639 123.857L262.5 127.218H268V121.718Z"
                            fill="#FF9811" />
                        <path d="M262.5 127.218V121.718H268L262.5 127.218Z" fill="white" />
                    </g>
                    <g id="pin_2">
                        <path
                            d="M260.282 88.3493L254.813 87.7226L249.763 85.5308L252.018 80.327L256.63 80.9403L260.932 82.7156L260.282 88.3493Z"
                            fill="#FF5811" />
                        <path
                            d="M260.282 88.3493L254.813 87.7226L256.63 80.9403L260.932 82.7156L260.282 88.3493Z"
                            fill="#BF380D" />
                        <path
                            d="M252.018 80.327L251.758 76L263.32 79.0982L260.932 82.7156L252.018 80.327Z"
                            fill="#FF8A70" />
                        <path
                            d="M254.897 90.5409L253.332 90.1215L251.095 98.469L252.66 98.8884L254.897 90.5409Z"
                            fill="#AED5F3" />
                        <path
                            d="M260.589 93.4642L246.94 89.8068L249.763 85.5308L260.282 88.3493L260.589 93.4642Z"
                            fill="#FF8A70" />
                        <path
                            d="M256.475 81.5213L257.539 77.5491L263.32 79.0982L260.932 82.7156L256.475 81.5213Z"
                            fill="#FF5811" />
                        <path
                            d="M260.589 93.4642L253.765 91.6355L255.023 86.94L260.282 88.3493L260.589 93.4642Z"
                            fill="#FF5811" />
                    </g>
                </g>
                <g id="node_3">
                    <g id="sticky-note_3">
                        <path d="M367 92.2183H332V127.218H367V92.2183Z" fill="#FFD6A0" />
                        <path d="M367 92.2183H349.5V127.218H367V92.2183Z" fill="#FFC170" />
                        <path d="M359.5 101.218H339.5V104.218H359.5V101.218Z" fill="white" />
                        <path d="M359.5 107.218H339.5V110.218H359.5V107.218Z" fill="white" />
                        <path d="M349.5 113.218H339.5V116.218H349.5V113.218Z" fill="white" />
                        <path d="M367 121.718L363.639 123.857L361.5 127.218H367V121.718Z"
                            fill="#FF9811" />
                        <path d="M361.5 127.218V121.718H367L361.5 127.218Z" fill="white" />
                    </g>
                    <g id="pin_3">
                        <path
                            d="M359.282 88.3493L353.813 87.7226L348.763 85.5308L351.018 80.327L355.63 80.9403L359.932 82.7156L359.282 88.3493Z"
                            fill="#FF5811" />
                        <path
                            d="M359.282 88.3493L353.813 87.7226L355.63 80.9403L359.932 82.7156L359.282 88.3493Z"
                            fill="#BF380D" />
                        <path
                            d="M351.018 80.327L350.758 76L362.32 79.0982L359.932 82.7156L351.018 80.327Z"
                            fill="#FF8A70" />
                        <path
                            d="M353.897 90.5409L352.332 90.1215L350.095 98.469L351.66 98.8884L353.897 90.5409Z"
                            fill="#AED5F3" />
                        <path
                            d="M359.589 93.4642L345.94 89.8068L348.763 85.5308L359.282 88.3493L359.589 93.4642Z"
                            fill="#FF8A70" />
                        <path
                            d="M355.475 81.5213L356.539 77.5491L362.32 79.0982L359.932 82.7156L355.475 81.5213Z"
                            fill="#FF5811" />
                        <path
                            d="M359.589 93.4642L352.765 91.6355L354.023 86.94L359.282 88.3493L359.589 93.4642Z"
                            fill="#FF5811" />
                    </g>
                </g>
                <g id="node_4">
                    <g id="sticky-note_4">
                        <path d="M169 187.218H134V222.218H169V187.218Z" fill="#FFD6A0" />
                        <path d="M169 187.218H151.5V222.218H169V187.218Z" fill="#FFC170" />
                        <path d="M161.5 196.218H141.5V199.218H161.5V196.218Z" fill="white" />
                        <path d="M161.5 202.218H141.5V205.218H161.5V202.218Z" fill="white" />
                        <path d="M151.5 208.218H141.5V211.218H151.5V208.218Z" fill="white" />
                        <path d="M169 216.718L165.639 218.857L163.5 222.218H169V216.718Z"
                            fill="#FF9811" />
                        <path d="M163.5 222.218V216.718H169L163.5 222.218Z" fill="white" />
                    </g>
                    <g id="pin_4">
                        <path
                            d="M161.282 183.349L155.813 182.723L150.763 180.531L153.018 175.327L157.63 175.94L161.932 177.716L161.282 183.349Z"
                            fill="#FF5811" />
                        <path
                            d="M161.282 183.349L155.813 182.723L157.63 175.94L161.932 177.716L161.282 183.349Z"
                            fill="#BF380D" />
                        <path
                            d="M153.018 175.327L152.758 171L164.32 174.098L161.932 177.716L153.018 175.327Z"
                            fill="#FF8A70" />
                        <path
                            d="M155.897 185.541L154.332 185.121L152.095 193.469L153.66 193.888L155.897 185.541Z"
                            fill="#AED5F3" />
                        <path
                            d="M161.589 188.464L147.94 184.807L150.763 180.531L161.282 183.349L161.589 188.464Z"
                            fill="#FF8A70" />
                        <path
                            d="M157.475 176.521L158.539 172.549L164.32 174.098L161.932 177.716L157.475 176.521Z"
                            fill="#FF5811" />
                        <path
                            d="M161.589 188.464L154.765 186.635L156.023 181.94L161.282 183.349L161.589 188.464Z"
                            fill="#FF5811" />
                    </g>
                </g>
                <g id="node_5">
                    <g id="sticky-note_5">
                        <path d="M169 289.218H134V324.218H169V289.218Z" fill="#FFD6A0" />
                        <path d="M169 289.218H151.5V324.218H169V289.218Z" fill="#FFC170" />
                        <path d="M161.5 298.218H141.5V301.218H161.5V298.218Z" fill="white" />
                        <path d="M161.5 304.218H141.5V307.218H161.5V304.218Z" fill="white" />
                        <path d="M151.5 310.218H141.5V313.218H151.5V310.218Z" fill="white" />
                        <path d="M169 318.718L165.639 320.857L163.5 324.218H169V318.718Z"
                            fill="#FF9811" />
                        <path d="M163.5 324.218V318.718H169L163.5 324.218Z" fill="white" />
                    </g>
                    <g id="pin_5">
                        <path
                            d="M161.282 285.349L155.813 284.723L150.763 282.531L153.018 277.327L157.63 277.94L161.932 279.716L161.282 285.349Z"
                            fill="#FF5811" />
                        <path
                            d="M161.282 285.349L155.813 284.723L157.63 277.94L161.932 279.716L161.282 285.349Z"
                            fill="#BF380D" />
                        <path
                            d="M153.018 277.327L152.758 273L164.32 276.098L161.932 279.716L153.018 277.327Z"
                            fill="#FF8A70" />
                        <path
                            d="M155.897 287.541L154.332 287.121L152.095 295.469L153.66 295.888L155.897 287.541Z"
                            fill="#AED5F3" />
                        <path
                            d="M161.589 290.464L147.94 286.807L150.763 282.531L161.282 285.349L161.589 290.464Z"
                            fill="#FF8A70" />
                        <path
                            d="M157.475 278.521L158.539 274.549L164.32 276.098L161.932 279.716L157.475 278.521Z"
                            fill="#FF5811" />
                        <path
                            d="M161.589 290.464L154.765 288.635L156.023 283.94L161.282 285.349L161.589 290.464Z"
                            fill="#FF5811" />
                    </g>
                </g>
                <g id="node_6">
                    <g id="sticky-note_6">
                        <path d="M268 187.218H233V222.218H268V187.218Z" fill="#FFD6A0" />
                        <path d="M268 187.218H250.5V222.218H268V187.218Z" fill="#FFC170" />
                        <path d="M260.5 196.218H240.5V199.218H260.5V196.218Z" fill="white" />
                        <path d="M260.5 202.218H240.5V205.218H260.5V202.218Z" fill="white" />
                        <path d="M250.5 208.218H240.5V211.218H250.5V208.218Z" fill="white" />
                        <path d="M268 216.718L264.639 218.857L262.5 222.218H268V216.718Z"
                            fill="#FF9811" />
                        <path d="M262.5 222.218V216.718H268L262.5 222.218Z" fill="white" />
                    </g>
                    <g id="pin_6">
                        <path
                            d="M260.282 183.349L254.813 182.723L249.763 180.531L252.018 175.327L256.63 175.94L260.932 177.716L260.282 183.349Z"
                            fill="#FF5811" />
                        <path
                            d="M260.282 183.349L254.813 182.723L256.63 175.94L260.932 177.716L260.282 183.349Z"
                            fill="#BF380D" />
                        <path
                            d="M252.018 175.327L251.758 171L263.32 174.098L260.932 177.716L252.018 175.327Z"
                            fill="#FF8A70" />
                        <path
                            d="M254.897 185.541L253.332 185.121L251.095 193.469L252.66 193.888L254.897 185.541Z"
                            fill="#AED5F3" />
                        <path
                            d="M260.589 188.464L246.94 184.807L249.763 180.531L260.282 183.349L260.589 188.464Z"
                            fill="#FF8A70" />
                        <path
                            d="M256.475 176.521L257.539 172.549L263.32 174.098L260.932 177.716L256.475 176.521Z"
                            fill="#FF5811" />
                        <path
                            d="M260.589 188.464L253.765 186.635L255.023 181.94L260.282 183.349L260.589 188.464Z"
                            fill="#FF5811" />
                    </g>
                </g>
            </g>
            <g id="end-nodes">
                <g id="node_7">
                    <g id="sticky-note_7">
                        <path d="M675 489.218H640V524.218H675V489.218Z" fill="#FFD6A0" />
                        <path d="M675 489.218H657.5V524.218H675V489.218Z" fill="#FFC170" />
                        <path d="M667.5 498.218H647.5V501.218H667.5V498.218Z" fill="white" />
                        <path d="M667.5 504.218H647.5V507.218H667.5V504.218Z" fill="white" />
                        <path d="M657.5 510.218H647.5V513.218H657.5V510.218Z" fill="white" />
                        <path d="M675 518.718L671.639 520.857L669.5 524.218H675V518.718Z"
                            fill="#FF9811" />
                        <path d="M669.5 524.218V518.718H675L669.5 524.218Z" fill="white" />
                    </g>
                    <g id="pin_7">
                        <path
                            d="M667.282 485.349L661.813 484.723L656.763 482.531L659.018 477.327L663.63 477.94L667.932 479.716L667.282 485.349Z"
                            fill="#FF5811" />
                        <path
                            d="M667.282 485.349L661.813 484.723L663.63 477.94L667.932 479.716L667.282 485.349Z"
                            fill="#BF380D" />
                        <path
                            d="M659.018 477.327L658.758 473L670.32 476.098L667.932 479.716L659.018 477.327Z"
                            fill="#FF8A70" />
                        <path
                            d="M661.897 487.541L660.332 487.121L658.095 495.469L659.66 495.888L661.897 487.541Z"
                            fill="#AED5F3" />
                        <path
                            d="M667.589 490.464L653.94 486.807L656.763 482.531L667.282 485.349L667.589 490.464Z"
                            fill="#FF8A70" />
                        <path
                            d="M663.475 478.521L664.539 474.549L670.32 476.098L667.932 479.716L663.475 478.521Z"
                            fill="#FF5811" />
                        <path
                            d="M667.589 490.464L660.765 488.635L662.023 483.94L667.282 485.349L667.589 490.464Z"
                            fill="#FF5811" />
                    </g>
                </g>
                <g id="node_8">
                    <g id="sticky-note_8">
                        <path d="M774 489.218H739V524.218H774V489.218Z" fill="#FFD6A0" />
                        <path d="M774 489.218H756.5V524.218H774V489.218Z" fill="#FFC170" />
                        <path d="M766.5 498.218H746.5V501.218H766.5V498.218Z" fill="white" />
                        <path d="M766.5 504.218H746.5V507.218H766.5V504.218Z" fill="white" />
                        <path d="M756.5 510.218H746.5V513.218H756.5V510.218Z" fill="white" />
                        <path d="M774 518.718L770.639 520.857L768.5 524.218H774V518.718Z"
                            fill="#FF9811" />
                        <path d="M768.5 524.218V518.718H774L768.5 524.218Z" fill="white" />
                    </g>
                    <g id="pin_8">
                        <path
                            d="M766.282 485.349L760.813 484.723L755.763 482.531L758.018 477.327L762.63 477.94L766.932 479.716L766.282 485.349Z"
                            fill="#FF5811" />
                        <path
                            d="M766.282 485.349L760.813 484.723L762.63 477.94L766.932 479.716L766.282 485.349Z"
                            fill="#BF380D" />
                        <path
                            d="M758.018 477.327L757.758 473L769.32 476.098L766.932 479.716L758.018 477.327Z"
                            fill="#FF8A70" />
                        <path
                            d="M760.897 487.541L759.332 487.121L757.095 495.469L758.66 495.888L760.897 487.541Z"
                            fill="#AED5F3" />
                        <path
                            d="M766.589 490.464L752.94 486.807L755.763 482.531L766.282 485.349L766.589 490.464Z"
                            fill="#FF8A70" />
                        <path
                            d="M762.475 478.521L763.539 474.549L769.32 476.098L766.932 479.716L762.475 478.521Z"
                            fill="#FF5811" />
                        <path
                            d="M766.589 490.464L759.765 488.635L761.023 483.94L766.282 485.349L766.589 490.464Z"
                            fill="#FF5811" />
                    </g>
                </g>
                <g id="node_9">
                    <g id="sticky-note_9">
                        <path d="M873 489.218H838V524.218H873V489.218Z" fill="#FFD6A0" />
                        <path d="M873 489.218H855.5V524.218H873V489.218Z" fill="#FFC170" />
                        <path d="M865.5 498.218H845.5V501.218H865.5V498.218Z" fill="white" />
                        <path d="M865.5 504.218H845.5V507.218H865.5V504.218Z" fill="white" />
                        <path d="M855.5 510.218H845.5V513.218H855.5V510.218Z" fill="white" />
                        <path d="M873 518.718L869.639 520.857L867.5 524.218H873V518.718Z"
                            fill="#FF9811" />
                        <path d="M867.5 524.218V518.718H873L867.5 524.218Z" fill="white" />
                    </g>
                    <g id="pin_9">
                        <path
                            d="M865.282 485.349L859.813 484.723L854.763 482.531L857.018 477.327L861.63 477.94L865.932 479.716L865.282 485.349Z"
                            fill="#FF5811" />
                        <path
                            d="M865.282 485.349L859.813 484.723L861.63 477.94L865.932 479.716L865.282 485.349Z"
                            fill="#BF380D" />
                        <path
                            d="M857.018 477.327L856.758 473L868.32 476.098L865.932 479.716L857.018 477.327Z"
                            fill="#FF8A70" />
                        <path
                            d="M859.897 487.541L858.332 487.121L856.095 495.469L857.66 495.888L859.897 487.541Z"
                            fill="#AED5F3" />
                        <path
                            d="M865.589 490.464L851.94 486.807L854.763 482.531L865.282 485.349L865.589 490.464Z"
                            fill="#FF8A70" />
                        <path
                            d="M861.475 478.521L862.539 474.549L868.32 476.098L865.932 479.716L861.475 478.521Z"
                            fill="#FF5811" />
                        <path
                            d="M865.589 490.464L858.765 488.635L860.023 483.94L865.282 485.349L865.589 490.464Z"
                            fill="#FF5811" />
                    </g>
                </g>
                <g id="node_10">
                    <g id="sticky-note_10">
                        <path d="M675 584.218H640V619.218H675V584.218Z" fill="#FFD6A0" />
                        <path d="M675 584.218H657.5V619.218H675V584.218Z" fill="#FFC170" />
                        <path d="M667.5 593.218H647.5V596.218H667.5V593.218Z" fill="white" />
                        <path d="M667.5 599.218H647.5V602.218H667.5V599.218Z" fill="white" />
                        <path d="M657.5 605.218H647.5V608.218H657.5V605.218Z" fill="white" />
                        <path d="M675 613.718L671.639 615.857L669.5 619.218H675V613.718Z"
                            fill="#FF9811" />
                        <path d="M669.5 619.218V613.718H675L669.5 619.218Z" fill="white" />
                    </g>
                    <g id="pin_10">
                        <path
                            d="M667.282 580.349L661.813 579.723L656.763 577.531L659.018 572.327L663.63 572.94L667.932 574.716L667.282 580.349Z"
                            fill="#FF5811" />
                        <path
                            d="M667.282 580.349L661.813 579.723L663.63 572.94L667.932 574.716L667.282 580.349Z"
                            fill="#BF380D" />
                        <path
                            d="M659.018 572.327L658.758 568L670.32 571.098L667.932 574.716L659.018 572.327Z"
                            fill="#FF8A70" />
                        <path
                            d="M661.897 582.541L660.332 582.121L658.095 590.469L659.66 590.888L661.897 582.541Z"
                            fill="#AED5F3" />
                        <path
                            d="M667.589 585.464L653.94 581.807L656.763 577.531L667.282 580.349L667.589 585.464Z"
                            fill="#FF8A70" />
                        <path
                            d="M663.475 573.521L664.539 569.549L670.32 571.098L667.932 574.716L663.475 573.521Z"
                            fill="#FF5811" />
                        <path
                            d="M667.589 585.464L660.765 583.635L662.023 578.94L667.282 580.349L667.589 585.464Z"
                            fill="#FF5811" />
                    </g>
                </g>
                <g id="node_11">
                    <g id="sticky-note_11">
                        <path d="M675 686.218H640V721.218H675V686.218Z" fill="#FFD6A0" />
                        <path d="M675 686.218H657.5V721.218H675V686.218Z" fill="#FFC170" />
                        <path d="M667.5 695.218H647.5V698.218H667.5V695.218Z" fill="white" />
                        <path d="M667.5 701.218H647.5V704.218H667.5V701.218Z" fill="white" />
                        <path d="M657.5 707.218H647.5V710.218H657.5V707.218Z" fill="white" />
                        <path d="M675 715.718L671.639 717.857L669.5 721.218H675V715.718Z"
                            fill="#FF9811" />
                        <path d="M669.5 721.218V715.718H675L669.5 721.218Z" fill="white" />
                    </g>
                    <g id="pin_11">
                        <path
                            d="M667.282 682.349L661.813 681.723L656.763 679.531L659.018 674.327L663.63 674.94L667.932 676.716L667.282 682.349Z"
                            fill="#FF5811" />
                        <path
                            d="M667.282 682.349L661.813 681.723L663.63 674.94L667.932 676.716L667.282 682.349Z"
                            fill="#BF380D" />
                        <path
                            d="M659.018 674.327L658.758 670L670.32 673.098L667.932 676.716L659.018 674.327Z"
                            fill="#FF8A70" />
                        <path
                            d="M661.897 684.541L660.332 684.121L658.095 692.469L659.66 692.888L661.897 684.541Z"
                            fill="#AED5F3" />
                        <path
                            d="M667.589 687.464L653.94 683.807L656.763 679.531L667.282 682.349L667.589 687.464Z"
                            fill="#FF8A70" />
                        <path
                            d="M663.475 675.521L664.539 671.549L670.32 673.098L667.932 676.716L663.475 675.521Z"
                            fill="#FF5811" />
                        <path
                            d="M667.589 687.464L660.765 685.635L662.023 680.94L667.282 682.349L667.589 687.464Z"
                            fill="#FF5811" />
                    </g>
                </g>
                <g id="node_12">
                    <g id="sticky-note_12">
                        <path d="M774 584.218H739V619.218H774V584.218Z" fill="#FFD6A0" />
                        <path d="M774 584.218H756.5V619.218H774V584.218Z" fill="#FFC170" />
                        <path d="M766.5 593.218H746.5V596.218H766.5V593.218Z" fill="white" />
                        <path d="M766.5 599.218H746.5V602.218H766.5V599.218Z" fill="white" />
                        <path d="M756.5 605.218H746.5V608.218H756.5V605.218Z" fill="white" />
                        <path d="M774 613.718L770.639 615.857L768.5 619.218H774V613.718Z"
                            fill="#FF9811" />
                        <path d="M768.5 619.218V613.718H774L768.5 619.218Z" fill="white" />
                    </g>
                    <g id="pin_12">
                        <path
                            d="M766.282 580.349L760.813 579.723L755.763 577.531L758.018 572.327L762.63 572.94L766.932 574.716L766.282 580.349Z"
                            fill="#FF5811" />
                        <path
                            d="M766.282 580.349L760.813 579.723L762.63 572.94L766.932 574.716L766.282 580.349Z"
                            fill="#BF380D" />
                        <path
                            d="M758.018 572.327L757.758 568L769.32 571.098L766.932 574.716L758.018 572.327Z"
                            fill="#FF8A70" />
                        <path
                            d="M760.897 582.541L759.332 582.121L757.095 590.469L758.66 590.888L760.897 582.541Z"
                            fill="#AED5F3" />
                        <path
                            d="M766.589 585.464L752.94 581.807L755.763 577.531L766.282 580.349L766.589 585.464Z"
                            fill="#FF8A70" />
                        <path
                            d="M762.475 573.521L763.539 569.549L769.32 571.098L766.932 574.716L762.475 573.521Z"
                            fill="#FF5811" />
                        <path
                            d="M766.589 585.464L759.765 583.635L761.023 578.94L766.282 580.349L766.589 585.464Z"
                            fill="#FF5811" />
                    </g>
                </g>
            </g>
            <g id="story-nodes">
                <g id="node_13">
                    <g id="sticky-note_13">
                        <path d="M439.848 214.514H415V239.362H439.848V214.514Z" fill="#D0D0D0" />
                        <path d="M439.848 214.514H427.424V239.362H439.848V214.514Z" fill="#B8B8B8" />
                        <path d="M434.523 220.903H420.324V223.033H434.523V220.903Z" fill="white" />
                        <path d="M434.523 225.163H420.324V227.293H434.523V225.163Z" fill="white" />
                        <path d="M427.424 229.423H420.324V231.552H427.424V229.423Z" fill="white" />
                        <path d="M439.848 235.457L437.461 236.975L435.943 239.362H439.848V235.457Z"
                            fill="#888888" />
                        <path d="M435.943 239.362V235.457H439.848L435.943 239.362Z" fill="white" />
                    </g>
                    <g id="pin_13">
                        <path
                            d="M434.369 211.767L430.486 211.322L426.901 209.766L428.501 206.072L431.776 206.507L434.83 207.768L434.369 211.767Z"
                            fill="#888888" />
                        <path
                            d="M434.369 211.767L430.486 211.322L431.776 206.507L434.83 207.768L434.369 211.767Z"
                            fill="#666666" />
                        <path
                            d="M428.501 206.072L428.317 203L436.525 205.199L434.83 207.768L428.501 206.072Z"
                            fill="#B8B8B8" />
                        <path
                            d="M430.545 213.323L429.434 213.025L427.846 218.951L428.957 219.249L430.545 213.323Z"
                            fill="#D1D1D1" />
                        <path
                            d="M434.587 215.398L424.896 212.802L426.901 209.766L434.369 211.767L434.587 215.398Z"
                            fill="#B8B8B8" />
                        <path
                            d="M431.666 206.92L432.421 204.1L436.525 205.199L434.83 207.768L431.666 206.92Z"
                            fill="#888888" />
                        <path
                            d="M434.587 215.398L429.742 214.1L430.635 210.767L434.369 211.767L434.587 215.398Z"
                            fill="#888888" />
                    </g>
                </g>
                <g id="node_14">
                    <g id="sticky-note_14">
                        <path d="M495.131 325.514H470.283V350.362H495.131V325.514Z" fill="#D0D0D0" />
                        <path d="M495.131 325.514H482.707V350.362H495.131V325.514Z" fill="#B8B8B8" />
                        <path d="M489.806 331.903H475.608V334.033H489.806V331.903Z" fill="white" />
                        <path d="M489.806 336.163H475.608V338.293H489.806V336.163Z" fill="white" />
                        <path d="M482.707 340.423H475.608V342.552H482.707V340.423Z" fill="white" />
                        <path d="M495.131 346.457L492.745 347.975L491.226 350.362H495.131V346.457Z"
                            fill="#888888" />
                        <path d="M491.226 350.362V346.457H495.131L491.226 350.362Z" fill="white" />
                    </g>
                    <g id="pin_14">
                        <path
                            d="M489.652 322.767L485.769 322.322L482.184 320.766L483.784 317.072L487.059 317.507L490.113 318.768L489.652 322.767Z"
                            fill="#888888" />
                        <path
                            d="M489.652 322.767L485.769 322.322L487.059 317.507L490.113 318.768L489.652 322.767Z"
                            fill="#666666" />
                        <path
                            d="M483.784 317.072L483.6 314L491.809 316.199L490.113 318.768L483.784 317.072Z"
                            fill="#B8B8B8" />
                        <path
                            d="M485.828 324.323L484.717 324.025L483.129 329.951L484.241 330.249L485.828 324.323Z"
                            fill="#D1D1D1" />
                        <path
                            d="M489.87 326.398L480.18 323.802L482.184 320.766L489.652 322.767L489.87 326.398Z"
                            fill="#B8B8B8" />
                        <path
                            d="M486.949 317.92L487.704 315.1L491.809 316.199L490.113 318.768L486.949 317.92Z"
                            fill="#888888" />
                        <path
                            d="M489.87 326.398L485.025 325.1L485.918 321.767L489.652 322.767L489.87 326.398Z"
                            fill="#888888" />
                    </g>
                </g>
                <g id="node_15">
                    <g id="sticky-note_15">
                        <path d="M694.848 305.514H670V330.362H694.848V305.514Z" fill="#D0D0D0" />
                        <path d="M694.848 305.514H682.424V330.362H694.848V305.514Z" fill="#B8B8B8" />
                        <path d="M689.523 311.903H675.324V314.033H689.523V311.903Z" fill="white" />
                        <path d="M689.523 316.163H675.324V318.293H689.523V316.163Z" fill="white" />
                        <path d="M682.424 320.423H675.324V322.552H682.424V320.423Z" fill="white" />
                        <path d="M694.848 326.457L692.461 327.975L690.943 330.362H694.848V326.457Z"
                            fill="#888888" />
                        <path d="M690.943 330.362V326.457H694.848L690.943 330.362Z" fill="white" />
                    </g>
                    <g id="pin_15">
                        <path
                            d="M689.369 302.767L685.486 302.322L681.901 300.766L683.501 297.072L686.776 297.507L689.83 298.768L689.369 302.767Z"
                            fill="#888888" />
                        <path
                            d="M689.369 302.767L685.486 302.322L686.776 297.507L689.83 298.768L689.369 302.767Z"
                            fill="#666666" />
                        <path
                            d="M683.501 297.072L683.317 294L691.525 296.199L689.83 298.768L683.501 297.072Z"
                            fill="#B8B8B8" />
                        <path
                            d="M685.545 304.323L684.434 304.025L682.846 309.951L683.957 310.249L685.545 304.323Z"
                            fill="#D1D1D1" />
                        <path
                            d="M689.587 306.398L679.896 303.802L681.901 300.766L689.369 302.767L689.587 306.398Z"
                            fill="#B8B8B8" />
                        <path
                            d="M686.666 297.92L687.421 295.1L691.525 296.199L689.83 298.768L686.666 297.92Z"
                            fill="#888888" />
                        <path
                            d="M689.587 306.398L684.742 305.1L685.635 301.767L689.369 302.767L689.587 306.398Z"
                            fill="#888888" />
                    </g>
                </g>
                <g id="node_16">
                    <g id="sticky-note_16">
                        <path d="M258.848 429.514H234V454.362H258.848V429.514Z" fill="#D0D0D0" />
                        <path d="M258.848 429.514H246.424V454.362H258.848V429.514Z" fill="#B8B8B8" />
                        <path d="M253.523 435.903H239.324V438.033H253.523V435.903Z" fill="white" />
                        <path d="M253.523 440.163H239.324V442.293H253.523V440.163Z" fill="white" />
                        <path d="M246.424 444.423H239.324V446.552H246.424V444.423Z" fill="white" />
                        <path d="M258.848 450.457L256.461 451.975L254.943 454.362H258.848V450.457Z"
                            fill="#888888" />
                        <path d="M254.943 454.362V450.457H258.848L254.943 454.362Z" fill="white" />
                    </g>
                    <g id="pin_16">
                        <path
                            d="M253.369 426.767L249.486 426.322L245.901 424.766L247.501 421.072L250.776 421.507L253.83 422.768L253.369 426.767Z"
                            fill="#888888" />
                        <path
                            d="M253.369 426.767L249.486 426.322L250.776 421.507L253.83 422.768L253.369 426.767Z"
                            fill="#666666" />
                        <path
                            d="M247.501 421.072L247.317 418L255.525 420.199L253.83 422.768L247.501 421.072Z"
                            fill="#B8B8B8" />
                        <path
                            d="M249.545 428.323L248.434 428.025L246.846 433.951L247.957 434.249L249.545 428.323Z"
                            fill="#D1D1D1" />
                        <path
                            d="M253.587 430.398L243.896 427.802L245.901 424.766L253.369 426.767L253.587 430.398Z"
                            fill="#B8B8B8" />
                        <path
                            d="M250.666 421.92L251.421 419.1L255.525 420.199L253.83 422.768L250.666 421.92Z"
                            fill="#888888" />
                        <path
                            d="M253.587 430.398L248.742 429.1L249.635 425.767L253.369 426.767L253.587 430.398Z"
                            fill="#888888" />
                    </g>
                </g>
                <g id="node_17">
                    <g id="sticky-note_17">
                        <path d="M315.848 541.514H291V566.362H315.848V541.514Z" fill="#D0D0D0" />
                        <path d="M315.848 541.514H303.424V566.362H315.848V541.514Z" fill="#B8B8B8" />
                        <path d="M310.523 547.903H296.324V550.033H310.523V547.903Z" fill="white" />
                        <path d="M310.523 552.163H296.324V554.293H310.523V552.163Z" fill="white" />
                        <path d="M303.424 556.423H296.324V558.552H303.424V556.423Z" fill="white" />
                        <path d="M315.848 562.457L313.461 563.975L311.943 566.362H315.848V562.457Z"
                            fill="#888888" />
                        <path d="M311.943 566.362V562.457H315.848L311.943 566.362Z" fill="white" />
                    </g>
                    <g id="pin_17">
                        <path
                            d="M310.369 538.767L306.486 538.322L302.901 536.766L304.501 533.072L307.776 533.507L310.83 534.768L310.369 538.767Z"
                            fill="#888888" />
                        <path
                            d="M310.369 538.767L306.486 538.322L307.776 533.507L310.83 534.768L310.369 538.767Z"
                            fill="#666666" />
                        <path
                            d="M304.501 533.072L304.317 530L312.525 532.199L310.83 534.768L304.501 533.072Z"
                            fill="#B8B8B8" />
                        <path
                            d="M306.545 540.323L305.434 540.025L303.846 545.951L304.957 546.249L306.545 540.323Z"
                            fill="#D1D1D1" />
                        <path
                            d="M310.587 542.398L300.896 539.802L302.901 536.766L310.369 538.767L310.587 542.398Z"
                            fill="#B8B8B8" />
                        <path
                            d="M307.666 533.92L308.421 531.1L312.525 532.199L310.83 534.768L307.666 533.92Z"
                            fill="#888888" />
                        <path
                            d="M310.587 542.398L305.742 541.1L306.635 537.767L310.369 538.767L310.587 542.398Z"
                            fill="#888888" />
                    </g>
                </g>
                <g id="node_18">
                    <g id="sticky-note_18">
                        <path d="M485.848 501.514H461V526.362H485.848V501.514Z" fill="#D0D0D0" />
                        <path d="M485.848 501.514H473.424V526.362H485.848V501.514Z" fill="#B8B8B8" />
                        <path d="M480.523 507.903H466.324V510.033H480.523V507.903Z" fill="white" />
                        <path d="M480.523 512.163H466.324V514.293H480.523V512.163Z" fill="white" />
                        <path d="M473.424 516.423H466.324V518.552H473.424V516.423Z" fill="white" />
                        <path d="M485.848 522.457L483.461 523.975L481.943 526.362H485.848V522.457Z"
                            fill="#888888" />
                        <path d="M481.943 526.362V522.457H485.848L481.943 526.362Z" fill="white" />
                    </g>
                    <g id="pin_18">
                        <path
                            d="M480.369 498.767L476.486 498.322L472.901 496.766L474.501 493.072L477.776 493.507L480.83 494.768L480.369 498.767Z"
                            fill="#888888" />
                        <path
                            d="M480.369 498.767L476.486 498.322L477.776 493.507L480.83 494.768L480.369 498.767Z"
                            fill="#666666" />
                        <path
                            d="M474.501 493.072L474.317 490L482.525 492.199L480.83 494.768L474.501 493.072Z"
                            fill="#B8B8B8" />
                        <path
                            d="M476.545 500.323L475.434 500.025L473.846 505.951L474.957 506.249L476.545 500.323Z"
                            fill="#D1D1D1" />
                        <path
                            d="M480.587 502.398L470.896 499.802L472.901 496.766L480.369 498.767L480.587 502.398Z"
                            fill="#B8B8B8" />
                        <path
                            d="M477.666 493.92L478.421 491.1L482.525 492.199L480.83 494.768L477.666 493.92Z"
                            fill="#888888" />
                        <path
                            d="M480.587 502.398L475.742 501.1L476.635 497.767L480.369 498.767L480.587 502.398Z"
                            fill="#888888" />
                    </g>
                </g>
            </g>
        </g>
        <g id="pencil">
            <path
                d="M983.039 4.52571L956.51 31.0547L961.318 38.7962L969.06 43.6044L995.589 17.0754L983.039 4.52571Z"
                fill="#E9F4FC" />
            <path
                d="M983.039 4.52571L956.51 31.0547L956.974 34.452L960.371 34.9161L986.9 8.38712L983.039 4.52571Z"
                fill="#C9E3F7" />
            <path
                d="M991.727 13.2139L965.198 39.7429L965.662 43.1403L969.06 43.6044L995.589 17.0754L991.727 13.2139Z"
                fill="#78B9EB" />
            <path d="M956.51 31.0547L954 46.1143L969.06 43.6044L956.51 31.0547Z" fill="#FFEFD9" />
            <path d="M954 46.1143L969.06 43.6044L962.785 37.3295" fill="#FFD6A0" />
            <path
                d="M997.036 15.6271L984.487 3.07733L981.59 5.97341L994.14 18.5231L997.036 15.6271Z"
                fill="#FFC170" />
            <path
                d="M997.036 15.6271L990.761 9.35219L987.865 12.2483L994.14 18.5231L997.036 15.6271Z"
                fill="#FF9811" />
            <path
                d="M997.036 15.6271L997.519 15.1447C1000.98 11.6847 1000.98 6.05493 997.519 2.59497C994.059 -0.864988 988.43 -0.86499 984.97 2.59497L984.487 3.07733L997.036 15.6271Z"
                fill="#FFD6A0" />
            <path d="M955.263 38.5336L954 46.1143L961.581 44.8509L955.263 38.5336Z" fill="#3C5D76" />
        </g>
    </g>
    <defs>
        <clipPath id="clip0_117_160">
            <rect width="1000" height="800" fill="white" />
        </clipPath>
    </defs>
</svg>