<svg width="47" height="47" viewBox="0 0 47 47" fill="none" xmlns="http://www.w3.org/2000/svg">
    <g id="pencil">
        <path d="M29.0389 4.52571L2.50992 31.0547L7.31813 38.7962L15.0596 43.6044L41.5886 17.0754L29.0389 4.52571Z"
            fill="#E9F4FC" />
        <path d="M29.0389 4.52571L2.50992 31.0547L2.97393 34.452L6.37133 34.9161L32.9003 8.38712L29.0389 4.52571Z"
            fill="#C9E3F7" />
        <path d="M37.7271 13.2139L11.1981 39.7429L11.6622 43.1403L15.0596 43.6044L41.5886 17.0754L37.7271 13.2139Z"
            fill="#78B9EB" />
        <path d="M2.50992 31.0547L0 46.1143L15.0596 43.6044L2.50992 31.0547Z" fill="#FFEFD9" />
        <path d="M0 46.1143L15.0596 43.6044L8.78478 37.3295" fill="#FFD6A0" />
        <path d="M43.0363 15.6271L30.4866 3.07733L27.5905 5.97341L40.1402 18.5231L43.0363 15.6271Z" fill="#FFC170" />
        <path d="M43.0363 15.6271L36.7614 9.35219L33.8653 12.2483L40.1402 18.5231L43.0363 15.6271Z" fill="#FF9811" />
        <path
            d="M43.0363 15.6271L43.5193 15.1447C46.9793 11.6847 46.9793 6.05493 43.5193 2.59497C40.0594 -0.864988 34.4296 -0.86499 30.9696 2.59497L30.4866 3.07733L43.0363 15.6271Z"
            fill="#FFD6A0" />
        <path d="M1.26342 38.5336L0 46.1143L7.58069 44.8509L1.26342 38.5336Z" fill="#3C5D76" />
    </g>
</svg>