<svg id="Ebene_1" data-name="Ebene 1" xmlns="http://www.w3.org/2000/svg" viewBox="0 0 457.14 297.14">
  <defs>
    <style>
      .cls-1 {
        fill: #f0582f;
      }

      .cls-2 {
        fill: #414753;
      }

      .cls-3 {
        fill: #646b79;
      }

      .cls-4 {
        fill: #fffffc;
      }
    </style>
  </defs>
  <title>typewriter1</title>
  <g id="typewriter">
    <g id="cassis">
      <path class="cls-1" d="M601.61,800H198.14c-17.28,0-29.24-15.61-26.25-33.81L201.8,591.61H598.29L628.2,766.19C630.86,784.4,618.9,800,601.61,800Z" transform="translate(-171.43 -502.86)"/>
      <path class="cls-2" d="M567.05,647.85H232.71l-18,105c-2.66,14.63,7.31,27.31,21.27,27.31h328c14,0,23.93-12.68,21.27-27.31Z" transform="translate(-171.43 -502.86)"/>
      <path class="cls-3" d="M609.26,540.57l-36.89-37.71h-345L190.5,540.57v44.54h11v6.83H598v-6.83h11V540.57ZM564.39,551h-329l8.64-20.8H555.42Z" transform="translate(-171.43 -502.86)"/>
    </g>
    <g id="keyboard">
      <path class="cls-4" d="M270.59,655.66H255.64a4,4,0,0,0-4,3.9v13a4,4,0,0,0,4,3.9h14.95a4,4,0,0,0,4-3.9v-13A4.23,4.23,0,0,0,270.59,655.66Z" transform="translate(-171.43 -502.86)"/>
      <path class="cls-4" d="M297.52,655.66h-15a4,4,0,0,0-4,3.9v13a4,4,0,0,0,4,3.9h15a4,4,0,0,0,4-3.9v-13A4.22,4.22,0,0,0,297.52,655.66Z" transform="translate(-171.43 -502.86)"/>
      <path class="cls-4" d="M324.44,655.66h-15a4,4,0,0,0-4,3.9v13a4,4,0,0,0,4,3.9h15a4,4,0,0,0,4-3.9v-13A4.22,4.22,0,0,0,324.44,655.66Z" transform="translate(-171.43 -502.86)"/>
      <path class="cls-4" d="M351,655.66H336.07a4,4,0,0,0-4,3.9v13a4,4,0,0,0,4,3.9H351a4,4,0,0,0,4-3.9v-13A3.79,3.79,0,0,0,351,655.66Z" transform="translate(-171.43 -502.86)"/>
      <path class="cls-4" d="M377.94,655.66H363a4,4,0,0,0-4,3.9v13a4,4,0,0,0,4,3.9h14.95a4,4,0,0,0,4-3.9v-13A3.79,3.79,0,0,0,377.94,655.66Z" transform="translate(-171.43 -502.86)"/>
      <path class="cls-4" d="M404.86,655.66H389.91a4,4,0,0,0-4,3.9v13a4,4,0,0,0,4,3.9h14.95a4,4,0,0,0,4-3.9v-13A3.79,3.79,0,0,0,404.86,655.66Z" transform="translate(-171.43 -502.86)"/>
      <path class="cls-4" d="M431.78,655.66H416.83a4,4,0,0,0-4,3.9v13a4,4,0,0,0,4,3.9h14.95a4,4,0,0,0,4-3.9v-13A4,4,0,0,0,431.78,655.66Z" transform="translate(-171.43 -502.86)"/>
      <path class="cls-4" d="M458.7,655.66H443.75a4,4,0,0,0-4,3.9v13a4,4,0,0,0,4,3.9H458.7a4,4,0,0,0,4-3.9v-13A4.23,4.23,0,0,0,458.7,655.66Z" transform="translate(-171.43 -502.86)"/>
      <path class="cls-4" d="M485.62,655.66H470.67a4,4,0,0,0-4,3.9v13a4,4,0,0,0,4,3.9h14.95a4,4,0,0,0,4-3.9v-13A4.23,4.23,0,0,0,485.62,655.66Z" transform="translate(-171.43 -502.86)"/>
      <path class="cls-4" d="M512.54,655.66H497.59a4,4,0,0,0-4,3.9v13a4,4,0,0,0,4,3.9h14.95a4,4,0,0,0,4-3.9v-13A4.23,4.23,0,0,0,512.54,655.66Z" transform="translate(-171.43 -502.86)"/>
      <path class="cls-4" d="M539.46,655.66h-15a4,4,0,0,0-4,3.9v13a4,4,0,0,0,4,3.9h15a4,4,0,0,0,4-3.9v-13A4.23,4.23,0,0,0,539.46,655.66Z" transform="translate(-171.43 -502.86)"/>
      <path class="cls-4" d="M270.59,715.15H255.64a4,4,0,0,0-4,3.9v13a4,4,0,0,0,4,3.91h14.95a4,4,0,0,0,4-3.91v-13A4.23,4.23,0,0,0,270.59,715.15Z" transform="translate(-171.43 -502.86)"/>
      <path class="cls-4" d="M297.52,715.15h-15a4,4,0,0,0-4,3.9v13a4,4,0,0,0,4,3.91h15a4,4,0,0,0,4-3.91v-13A4.22,4.22,0,0,0,297.52,715.15Z" transform="translate(-171.43 -502.86)"/>
      <path class="cls-4" d="M324.44,715.15h-15a4,4,0,0,0-4,3.9v13a4,4,0,0,0,4,3.91h15a4,4,0,0,0,4-3.91v-13A4.22,4.22,0,0,0,324.44,715.15Z" transform="translate(-171.43 -502.86)"/>
      <path class="cls-4" d="M351,715.15H336.07a4,4,0,0,0-4,3.9v13a4,4,0,0,0,4,3.91H351a4,4,0,0,0,4-3.91v-13A3.79,3.79,0,0,0,351,715.15Z" transform="translate(-171.43 -502.86)"/>
      <path class="cls-4" d="M377.94,715.15H363a4,4,0,0,0-4,3.9v13a4,4,0,0,0,4,3.91h14.95a4,4,0,0,0,4-3.91v-13A3.79,3.79,0,0,0,377.94,715.15Z" transform="translate(-171.43 -502.86)"/>
      <path class="cls-4" d="M404.86,715.15H389.91a4,4,0,0,0-4,3.9v13a4,4,0,0,0,4,3.91h14.95a4,4,0,0,0,4-3.91v-13A3.79,3.79,0,0,0,404.86,715.15Z" transform="translate(-171.43 -502.86)"/>
      <path class="cls-4" d="M431.78,715.15H416.83a4,4,0,0,0-4,3.9v13a4,4,0,0,0,4,3.91h14.95a4,4,0,0,0,4-3.91v-13A4,4,0,0,0,431.78,715.15Z" transform="translate(-171.43 -502.86)"/>
      <path class="cls-4" d="M458.7,715.15H443.75a4,4,0,0,0-4,3.9v13a4,4,0,0,0,4,3.91H458.7a4,4,0,0,0,4-3.91v-13A4.23,4.23,0,0,0,458.7,715.15Z" transform="translate(-171.43 -502.86)"/>
      <path class="cls-4" d="M485.62,715.15H470.67a4,4,0,0,0-4,3.9v13a4,4,0,0,0,4,3.91h14.95a4,4,0,0,0,4-3.91v-13A4.23,4.23,0,0,0,485.62,715.15Z" transform="translate(-171.43 -502.86)"/>
      <path class="cls-4" d="M512.54,715.15H497.59a4,4,0,0,0-4,3.9v13a4,4,0,0,0,4,3.91h14.95a4,4,0,0,0,4-3.91v-13A4.23,4.23,0,0,0,512.54,715.15Z" transform="translate(-171.43 -502.86)"/>
      <path class="cls-4" d="M539.46,715.15h-15a4,4,0,0,0-4,3.9v13a4,4,0,0,0,4,3.91h15a4,4,0,0,0,4-3.91v-13A4.23,4.23,0,0,0,539.46,715.15Z" transform="translate(-171.43 -502.86)"/>
      <path class="cls-4" d="M257,685.24H242a4,4,0,0,0-4,3.9v13a4,4,0,0,0,4,3.9h15a4,4,0,0,0,4-3.9v-13A3.8,3.8,0,0,0,257,685.24Z" transform="translate(-171.43 -502.86)"/>
      <path class="cls-4" d="M283.89,685.24h-15a4,4,0,0,0-4,3.9v13a4,4,0,0,0,4,3.9h15a4,4,0,0,0,4-3.9v-13A3.8,3.8,0,0,0,283.89,685.24Z" transform="translate(-171.43 -502.86)"/>
      <path class="cls-4" d="M310.81,685.24h-15a4,4,0,0,0-4,3.9v13a4,4,0,0,0,4,3.9h15a4,4,0,0,0,4-3.9v-13A3.8,3.8,0,0,0,310.81,685.24Z" transform="translate(-171.43 -502.86)"/>
      <path class="cls-4" d="M337.73,685.24h-15a4,4,0,0,0-4,3.9v13a4,4,0,0,0,4,3.9h15a4,4,0,0,0,4-3.9v-13A4,4,0,0,0,337.73,685.24Z" transform="translate(-171.43 -502.86)"/>
      <path class="cls-4" d="M364.65,685.24h-15a4,4,0,0,0-4,3.9v13a4,4,0,0,0,4,3.9h15a4,4,0,0,0,4-3.9v-13A4.24,4.24,0,0,0,364.65,685.24Z" transform="translate(-171.43 -502.86)"/>
      <path class="cls-4" d="M391.57,685.24h-15a4,4,0,0,0-4,3.9v13a4,4,0,0,0,4,3.9h15a4,4,0,0,0,4-3.9v-13A4.24,4.24,0,0,0,391.57,685.24Z" transform="translate(-171.43 -502.86)"/>
      <path class="cls-4" d="M418.49,685.24h-15a4,4,0,0,0-4,3.9v13a4,4,0,0,0,4,3.9h15a4,4,0,0,0,4-3.9v-13A4.24,4.24,0,0,0,418.49,685.24Z" transform="translate(-171.43 -502.86)"/>
      <path class="cls-4" d="M445.08,685.24h-15a4,4,0,0,0-4,3.9v13a4,4,0,0,0,4,3.9h15a4,4,0,0,0,4-3.9v-13A3.81,3.81,0,0,0,445.08,685.24Z" transform="translate(-171.43 -502.86)"/>
      <path class="cls-4" d="M472,685.24H457a4,4,0,0,0-4,3.9v13a4,4,0,0,0,4,3.9h15a4,4,0,0,0,4-3.9v-13A3.81,3.81,0,0,0,472,685.24Z" transform="translate(-171.43 -502.86)"/>
      <path class="cls-4" d="M498.92,685.24H484a4,4,0,0,0-4,3.9v13a4,4,0,0,0,4,3.9h15a4,4,0,0,0,4-3.9v-13A3.81,3.81,0,0,0,498.92,685.24Z" transform="translate(-171.43 -502.86)"/>
      <path class="cls-4" d="M525.84,685.24h-15a4,4,0,0,0-4,3.9v13a4,4,0,0,0,4,3.9h15a4,4,0,0,0,4-3.9v-13A4,4,0,0,0,525.84,685.24Z" transform="translate(-171.43 -502.86)"/>
      <path class="cls-4" d="M552.76,685.24h-15a4,4,0,0,0-4,3.9v13a4,4,0,0,0,4,3.9h15a4,4,0,0,0,4-3.9v-13A4.25,4.25,0,0,0,552.76,685.24Z" transform="translate(-171.43 -502.86)"/>
      <path class="cls-4" d="M487,747H308.15a2.53,2.53,0,0,0-2.33,2.6v13.65a2.35,2.35,0,0,0,2.33,2.61H487.29a2.53,2.53,0,0,0,2.32-2.61V749.61C489.28,748.31,488.28,747,487,747Z" transform="translate(-171.43 -502.86)"/>
    </g>
  </g>
</svg>
