<svg width="100%" height="100%" viewBox="0 0 400 700" version="1.1" xmlns="http://www.w3.org/2000/svg" xmlns:xlink="http://www.w3.org/1999/xlink" xml:space="preserve" xmlns:serif="http://www.serif.com/" style="fill-rule:evenodd;clip-rule:evenodd;stroke-linejoin:round;stroke-miterlimit:2;">
    <g id="paper" transform="matrix(1.88052,0,0,2.28243,-49.1687,-286.881)">
        <rect x="56" y="297" width="153" height="212" style="fill:rgb(235,235,235);"/>
    </g>
    <g id="typewriter" transform="matrix(0.857646,0,0,0.838948,-18.5003,319.956)">
        <g id="cassis">
            <path d="M460.461,453.001L48.826,453.001C31.194,453.001 18.988,436.725 22.039,417.737L52.556,235.655L457.07,235.655L487.587,417.737C490.299,436.726 478.093,453.001 460.461,453.001Z" style="fill:rgb(240,88,47);fill-rule:nonzero;"/>
            <path d="M425.197,294.315L84.09,294.315L65.78,403.836C63.067,419.094 73.24,432.318 87.481,432.318L422.146,432.318C436.387,432.318 446.559,419.094 443.847,403.836L425.197,294.315Z" style="fill:rgb(65,71,83);fill-rule:nonzero;"/>
            <path d="M468.26,182.421L430.623,143.089L78.665,143.089L41.028,182.421L41.028,228.874L52.217,228.874L52.217,235.995L456.731,235.995L456.731,228.874L467.92,228.874L467.92,182.421L468.26,182.421ZM422.485,193.272L86.803,193.272L95.619,171.571L413.33,171.571L422.485,193.272Z" style="fill:rgb(100,107,121);fill-rule:nonzero;"/>
        </g>
        <g id="keyboard">
            <path d="M122.744,302.453L107.486,302.453C105.452,302.453 103.417,304.148 103.417,306.522L103.417,320.085C103.417,322.119 105.112,324.154 107.486,324.154L122.744,324.154C124.778,324.154 126.813,322.459 126.813,320.085L126.813,306.522C126.474,304.148 124.779,302.453 122.744,302.453Z" style="fill:rgb(255,255,252);fill-rule:nonzero;"/>
            <path d="M150.209,302.453L134.951,302.453C132.917,302.453 130.882,304.148 130.882,306.522L130.882,320.085C130.882,322.119 132.577,324.154 134.951,324.154L150.209,324.154C152.243,324.154 154.278,322.459 154.278,320.085L154.278,306.522C153.939,304.148 152.244,302.453 150.209,302.453Z" style="fill:rgb(255,255,252);fill-rule:nonzero;"/>
            <path d="M177.674,302.453L162.416,302.453C160.382,302.453 158.347,304.148 158.347,306.522L158.347,320.085C158.347,322.119 160.042,324.154 162.416,324.154L177.674,324.154C179.708,324.154 181.743,322.459 181.743,320.085L181.743,306.522C181.404,304.148 179.709,302.453 177.674,302.453Z" style="fill:rgb(255,255,252);fill-rule:nonzero;"/>
            <path d="M204.8,302.453L189.542,302.453C187.508,302.453 185.473,304.148 185.473,306.522L185.473,320.085C185.473,322.119 187.168,324.154 189.542,324.154L204.8,324.154C206.834,324.154 208.869,322.459 208.869,320.085L208.869,306.522C208.869,304.148 207.174,302.453 204.8,302.453Z" style="fill:rgb(255,255,252);fill-rule:nonzero;"/>
            <path d="M232.265,302.453L217.007,302.453C214.973,302.453 212.938,304.148 212.938,306.522L212.938,320.085C212.938,322.119 214.633,324.154 217.007,324.154L232.265,324.154C234.299,324.154 236.334,322.459 236.334,320.085L236.334,306.522C236.334,304.148 234.638,302.453 232.265,302.453Z" style="fill:rgb(255,255,252);fill-rule:nonzero;"/>
            <path d="M259.73,302.453L244.472,302.453C242.438,302.453 240.403,304.148 240.403,306.522L240.403,320.085C240.403,322.119 242.098,324.154 244.472,324.154L259.73,324.154C261.764,324.154 263.799,322.459 263.799,320.085L263.799,306.522C263.799,304.148 262.103,302.453 259.73,302.453Z" style="fill:rgb(255,255,252);fill-rule:nonzero;"/>
            <path d="M287.195,302.453L271.937,302.453C269.903,302.453 267.868,304.148 267.868,306.522L267.868,320.085C267.868,322.119 269.563,324.154 271.937,324.154L287.195,324.154C289.229,324.154 291.264,322.459 291.264,320.085L291.264,306.522C291.264,304.148 289.229,302.453 287.195,302.453Z" style="fill:rgb(255,255,252);fill-rule:nonzero;"/>
            <path d="M314.66,302.453L299.402,302.453C297.368,302.453 295.333,304.148 295.333,306.522L295.333,320.085C295.333,322.119 297.028,324.154 299.402,324.154L314.66,324.154C316.694,324.154 318.729,322.459 318.729,320.085L318.729,306.522C318.389,304.148 316.694,302.453 314.66,302.453Z" style="fill:rgb(255,255,252);fill-rule:nonzero;"/>
            <path d="M342.125,302.453L326.867,302.453C324.833,302.453 322.798,304.148 322.798,306.522L322.798,320.085C322.798,322.119 324.493,324.154 326.867,324.154L342.125,324.154C344.159,324.154 346.194,322.459 346.194,320.085L346.194,306.522C345.854,304.148 344.159,302.453 342.125,302.453Z" style="fill:rgb(255,255,252);fill-rule:nonzero;"/>
            <path d="M369.589,302.453L354.331,302.453C352.297,302.453 350.262,304.148 350.262,306.522L350.262,320.085C350.262,322.119 351.957,324.154 354.331,324.154L369.589,324.154C371.623,324.154 373.658,322.459 373.658,320.085L373.658,306.522C373.319,304.148 371.624,302.453 369.589,302.453Z" style="fill:rgb(255,255,252);fill-rule:nonzero;"/>
            <path d="M397.054,302.453L381.796,302.453C379.762,302.453 377.727,304.148 377.727,306.522L377.727,320.085C377.727,322.119 379.422,324.154 381.796,324.154L397.054,324.154C399.088,324.154 401.123,322.459 401.123,320.085L401.123,306.522C400.784,304.148 399.089,302.453 397.054,302.453Z" style="fill:rgb(255,255,252);fill-rule:nonzero;"/>
            <path d="M122.744,364.503L107.486,364.503C105.452,364.503 103.417,366.198 103.417,368.572L103.417,382.135C103.417,384.169 105.112,386.204 107.486,386.204L122.744,386.204C124.778,386.204 126.813,384.509 126.813,382.135L126.813,368.572C126.474,366.199 124.779,364.503 122.744,364.503Z" style="fill:rgb(255,255,252);fill-rule:nonzero;"/>
            <path d="M150.209,364.503L134.951,364.503C132.917,364.503 130.882,366.198 130.882,368.572L130.882,382.135C130.882,384.169 132.577,386.204 134.951,386.204L150.209,386.204C152.243,386.204 154.278,384.509 154.278,382.135L154.278,368.572C153.939,366.199 152.244,364.503 150.209,364.503Z" style="fill:rgb(255,255,252);fill-rule:nonzero;"/>
            <path d="M177.674,364.503L162.416,364.503C160.382,364.503 158.347,366.198 158.347,368.572L158.347,382.135C158.347,384.169 160.042,386.204 162.416,386.204L177.674,386.204C179.708,386.204 181.743,384.509 181.743,382.135L181.743,368.572C181.404,366.199 179.709,364.503 177.674,364.503Z" style="fill:rgb(255,255,252);fill-rule:nonzero;"/>
            <path d="M204.8,364.503L189.542,364.503C187.508,364.503 185.473,366.198 185.473,368.572L185.473,382.135C185.473,384.169 187.168,386.204 189.542,386.204L204.8,386.204C206.834,386.204 208.869,384.509 208.869,382.135L208.869,368.572C208.869,366.199 207.174,364.503 204.8,364.503Z" style="fill:rgb(255,255,252);fill-rule:nonzero;"/>
            <path d="M232.265,364.503L217.007,364.503C214.973,364.503 212.938,366.198 212.938,368.572L212.938,382.135C212.938,384.169 214.633,386.204 217.007,386.204L232.265,386.204C234.299,386.204 236.334,384.509 236.334,382.135L236.334,368.572C236.334,366.199 234.638,364.503 232.265,364.503Z" style="fill:rgb(255,255,252);fill-rule:nonzero;"/>
            <path d="M259.73,364.503L244.472,364.503C242.438,364.503 240.403,366.198 240.403,368.572L240.403,382.135C240.403,384.169 242.098,386.204 244.472,386.204L259.73,386.204C261.764,386.204 263.799,384.509 263.799,382.135L263.799,368.572C263.799,366.199 262.103,364.503 259.73,364.503Z" style="fill:rgb(255,255,252);fill-rule:nonzero;"/>
            <path d="M287.195,364.503L271.937,364.503C269.903,364.503 267.868,366.198 267.868,368.572L267.868,382.135C267.868,384.169 269.563,386.204 271.937,386.204L287.195,386.204C289.229,386.204 291.264,384.509 291.264,382.135L291.264,368.572C291.264,366.199 289.229,364.503 287.195,364.503Z" style="fill:rgb(255,255,252);fill-rule:nonzero;"/>
            <path d="M314.66,364.503L299.402,364.503C297.368,364.503 295.333,366.198 295.333,368.572L295.333,382.135C295.333,384.169 297.028,386.204 299.402,386.204L314.66,386.204C316.694,386.204 318.729,384.509 318.729,382.135L318.729,368.572C318.389,366.199 316.694,364.503 314.66,364.503Z" style="fill:rgb(255,255,252);fill-rule:nonzero;"/>
            <path d="M342.125,364.503L326.867,364.503C324.833,364.503 322.798,366.198 322.798,368.572L322.798,382.135C322.798,384.169 324.493,386.204 326.867,386.204L342.125,386.204C344.159,386.204 346.194,384.509 346.194,382.135L346.194,368.572C345.854,366.199 344.159,364.503 342.125,364.503Z" style="fill:rgb(255,255,252);fill-rule:nonzero;"/>
            <path d="M369.589,364.503L354.331,364.503C352.297,364.503 350.262,366.198 350.262,368.572L350.262,382.135C350.262,384.169 351.957,386.204 354.331,386.204L369.589,386.204C371.623,386.204 373.658,384.509 373.658,382.135L373.658,368.572C373.319,366.199 371.624,364.503 369.589,364.503Z" style="fill:rgb(255,255,252);fill-rule:nonzero;"/>
            <path d="M397.054,364.503L381.796,364.503C379.762,364.503 377.727,366.198 377.727,368.572L377.727,382.135C377.727,384.169 379.422,386.204 381.796,386.204L397.054,386.204C399.088,386.204 401.123,384.509 401.123,382.135L401.123,368.572C400.784,366.199 399.089,364.503 397.054,364.503Z" style="fill:rgb(255,255,252);fill-rule:nonzero;"/>
            <path d="M108.842,333.309L93.584,333.309C91.55,333.309 89.515,335.004 89.515,337.378L89.515,350.941C89.515,352.975 91.21,355.01 93.584,355.01L108.842,355.01C110.876,355.01 112.911,353.315 112.911,350.941L112.911,337.378C112.911,335.004 111.216,333.309 108.842,333.309Z" style="fill:rgb(255,255,252);fill-rule:nonzero;"/>
            <path d="M136.307,333.309L121.049,333.309C119.015,333.309 116.98,335.004 116.98,337.378L116.98,350.941C116.98,352.975 118.675,355.01 121.049,355.01L136.307,355.01C138.341,355.01 140.376,353.315 140.376,350.941L140.376,337.378C140.376,335.004 138.681,333.309 136.307,333.309Z" style="fill:rgb(255,255,252);fill-rule:nonzero;"/>
            <path d="M163.772,333.309L148.514,333.309C146.48,333.309 144.445,335.004 144.445,337.378L144.445,350.941C144.445,352.975 146.14,355.01 148.514,355.01L163.772,355.01C165.806,355.01 167.841,353.315 167.841,350.941L167.841,337.378C167.841,335.004 166.146,333.309 163.772,333.309Z" style="fill:rgb(255,255,252);fill-rule:nonzero;"/>
            <path d="M191.237,333.309L175.979,333.309C173.945,333.309 171.91,335.004 171.91,337.378L171.91,350.941C171.91,352.975 173.605,355.01 175.979,355.01L191.237,355.01C193.271,355.01 195.306,353.315 195.306,350.941L195.306,337.378C195.306,335.004 193.272,333.309 191.237,333.309Z" style="fill:rgb(255,255,252);fill-rule:nonzero;"/>
            <path d="M218.702,333.309L203.444,333.309C201.41,333.309 199.375,335.004 199.375,337.378L199.375,350.941C199.375,352.975 201.07,355.01 203.444,355.01L218.702,355.01C220.736,355.01 222.771,353.315 222.771,350.941L222.771,337.378C222.432,335.004 220.736,333.309 218.702,333.309Z" style="fill:rgb(255,255,252);fill-rule:nonzero;"/>
            <path d="M246.167,333.309L230.909,333.309C228.875,333.309 226.84,335.004 226.84,337.378L226.84,350.941C226.84,352.975 228.535,355.01 230.909,355.01L246.167,355.01C248.201,355.01 250.236,353.315 250.236,350.941L250.236,337.378C249.897,335.004 248.201,333.309 246.167,333.309Z" style="fill:rgb(255,255,252);fill-rule:nonzero;"/>
            <path d="M273.632,333.309L258.374,333.309C256.34,333.309 254.305,335.004 254.305,337.378L254.305,350.941C254.305,352.975 256,355.01 258.374,355.01L273.632,355.01C275.666,355.01 277.701,353.315 277.701,350.941L277.701,337.378C277.362,335.004 275.666,333.309 273.632,333.309Z" style="fill:rgb(255,255,252);fill-rule:nonzero;"/>
            <path d="M300.758,333.309L285.5,333.309C283.466,333.309 281.431,335.004 281.431,337.378L281.431,350.941C281.431,352.975 283.126,355.01 285.5,355.01L300.758,355.01C302.792,355.01 304.827,353.315 304.827,350.941L304.827,337.378C304.827,335.004 303.131,333.309 300.758,333.309Z" style="fill:rgb(255,255,252);fill-rule:nonzero;"/>
            <path d="M328.223,333.309L312.965,333.309C310.931,333.309 308.896,335.004 308.896,337.378L308.896,350.941C308.896,352.975 310.591,355.01 312.965,355.01L328.223,355.01C330.257,355.01 332.292,353.315 332.292,350.941L332.292,337.378C332.291,335.004 330.596,333.309 328.223,333.309Z" style="fill:rgb(255,255,252);fill-rule:nonzero;"/>
            <path d="M355.687,333.309L340.429,333.309C338.395,333.309 336.36,335.004 336.36,337.378L336.36,350.941C336.36,352.975 338.055,355.01 340.429,355.01L355.687,355.01C357.721,355.01 359.756,353.315 359.756,350.941L359.756,337.378C359.756,335.004 358.061,333.309 355.687,333.309Z" style="fill:rgb(255,255,252);fill-rule:nonzero;"/>
            <path d="M383.152,333.309L367.894,333.309C365.86,333.309 363.825,335.004 363.825,337.378L363.825,350.941C363.825,352.975 365.52,355.01 367.894,355.01L383.152,355.01C385.186,355.01 387.221,353.315 387.221,350.941L387.221,337.378C387.221,335.004 385.187,333.309 383.152,333.309Z" style="fill:rgb(255,255,252);fill-rule:nonzero;"/>
            <path d="M410.617,333.309L395.359,333.309C393.325,333.309 391.29,335.004 391.29,337.378L391.29,350.941C391.29,352.975 392.985,355.01 395.359,355.01L410.617,355.01C412.651,355.01 414.686,353.315 414.686,350.941L414.686,337.378C414.347,335.004 412.652,333.309 410.617,333.309Z" style="fill:rgb(255,255,252);fill-rule:nonzero;"/>
            <path d="M343.481,397.732L161.06,397.732C159.704,397.732 158.686,399.088 158.686,400.445L158.686,414.686C158.686,416.381 159.703,417.399 161.06,417.399L343.82,417.399C345.176,417.399 346.193,416.043 346.193,414.686L346.193,400.445C345.854,399.089 344.837,397.732 343.481,397.732Z" style="fill:rgb(255,255,252);fill-rule:nonzero;"/>
        </g>
    </g>
</svg>
