<?xml version="1.0" encoding="UTF-8" standalone="no"?>
<!-- Created with Inkscape (http://www.inkscape.org/) -->
<svg xmlns:dc="http://purl.org/dc/elements/1.1/" xmlns:cc="http://creativecommons.org/ns#" xmlns:rdf="http://www.w3.org/1999/02/22-rdf-syntax-ns#" xmlns:svg="http://www.w3.org/2000/svg" xmlns="http://www.w3.org/2000/svg" xmlns:sodipodi="http://sodipodi.sourceforge.net/DTD/sodipodi-0.dtd" xmlns:inkscape="http://www.inkscape.org/namespaces/inkscape" width="460" height="300" id="svg2" sodipodi:version="0.32" inkscape:version="0.46" version="1.0" sodipodi:docname="Pic 27.svg" inkscape:output_extension="org.inkscape.output.svg.inkscape">
  <defs id="defs4">
    <inkscape:perspective sodipodi:type="inkscape:persp3d" inkscape:vp_x="0 : 526.18109 : 1" inkscape:vp_y="0 : 1000 : 0" inkscape:vp_z="744.09448 : 526.18109 : 1" inkscape:persp3d-origin="372.04724 : 350.78739 : 1" id="perspective10"/>
  </defs>
  <sodipodi:namedview id="base" pagecolor="#ffffff" bordercolor="#666666" borderopacity="1.0" gridtolerance="10000" guidetolerance="10" objecttolerance="10" inkscape:pageopacity="0.0" inkscape:pageshadow="2" inkscape:zoom="1" inkscape:cx="375" inkscape:cy="110.5" inkscape:document-units="px" inkscape:current-layer="layer1" showgrid="false" inkscape:window-width="1280" inkscape:window-height="949" inkscape:window-x="1280" inkscape:window-y="25"/>
  <metadata id="metadata7">
    <rdf:RDF>
      <cc:Work rdf:about="">
        <dc:format>image/svg+xml</dc:format>
        <dc:type rdf:resource="http://purl.org/dc/dcmitype/StillImage"/>
      </cc:Work>
    </rdf:RDF>
  </metadata>
  <g inkscape:label="Layer 1" inkscape:groupmode="layer" id="layer1">
    <path transform="translate(-2,-9)" style="fill:#b4e2ff;fill-opacity:1;stroke:#000000;stroke-width:2;stroke-linecap:butt;stroke-miterlimit:4;stroke-opacity:1" d="M 74,50.5 C 74,67.888 59.888,82 42.5,82 C 25.112,82 11,67.888 11,50.5 C 11,33.112 25.112,19 42.5,19 C 59.888,19 74,33.112 74,50.5 z" id="path2383"/>
    <path transform="translate(-5,214)" style="fill:#b4e2ff;fill-opacity:1;stroke:#000000;stroke-width:2;stroke-linecap:butt;stroke-miterlimit:4;stroke-opacity:1" d="M 74,50.5 C 74,67.888 59.888,82 42.5,82 C 25.112,82 11,67.888 11,50.5 C 11,33.112 25.112,19 42.5,19 C 59.888,19 74,33.112 74,50.5 z" id="path2385"/>
    <path transform="translate(125,113)" style="fill:#b4e2ff;fill-opacity:1;stroke:#000000;stroke-width:2;stroke-linecap:butt;stroke-miterlimit:4;stroke-opacity:1" d="M 74,50.5 C 74,67.888 59.888,82 42.5,82 C 25.112,82 11,67.888 11,50.5 C 11,33.112 25.112,19 42.5,19 C 59.888,19 74,33.112 74,50.5 z" id="path2387"/>
    <path transform="translate(249,-12)" style="fill:#b4e2ff;fill-opacity:1;stroke:#000000;stroke-width:2;stroke-linecap:butt;stroke-miterlimit:4;stroke-opacity:1" d="M 74,50.5 C 74,67.888 59.888,82 42.5,82 C 25.112,82 11,67.888 11,50.5 C 11,33.112 25.112,19 42.5,19 C 59.888,19 74,33.112 74,50.5 z" id="path2389"/>
    <path transform="translate(384,145)" style="fill:#b4e2ff;fill-opacity:1;stroke:#000000;stroke-width:2;stroke-linecap:butt;stroke-miterlimit:4;stroke-opacity:1" d="M 74,50.5 C 74,67.888 59.888,82 42.5,82 C 25.112,82 11,67.888 11,50.5 C 11,33.112 25.112,19 42.5,19 C 59.888,19 74,33.112 74,50.5 z" id="path2391"/>
    <path transform="translate(253,214)" style="fill:#b4e2ff;fill-opacity:1;stroke:#000000;stroke-width:2;stroke-linecap:butt;stroke-miterlimit:4;stroke-opacity:1" d="M 74,50.5 C 74,67.888 59.888,82 42.5,82 C 25.112,82 11,67.888 11,50.5 C 11,33.112 25.112,19 42.5,19 C 59.888,19 74,33.112 74,50.5 z" id="path2393"/>
    <path style="fill:#b4e2ff;fill-opacity:1;stroke:#000000;stroke-width:2;stroke-linecap:butt;stroke-miterlimit:4;stroke-dasharray:none;stroke-opacity:1" d="M 72,42 C 260,42 260,42 260,42" id="path2395"/>
    <path style="fill:#b4e2ff;fill-opacity:1;stroke:#000000;stroke-width:2;stroke-linecap:butt;stroke-miterlimit:4;stroke-dasharray:none;stroke-opacity:1" d="M 319,52 C 410,169 410,169 410,169" id="path2397"/>
    <path style="fill:#b4e2ff;fill-opacity:1;stroke:#000000;stroke-width:2;stroke-linecap:butt;stroke-miterlimit:4;stroke-dasharray:none;stroke-opacity:1" d="M 290,70 C 294,233 294,233 294,233" id="path2399"/>
    <path style="fill:#b4e2ff;fill-opacity:1;stroke:#000000;stroke-width:2;stroke-linecap:butt;stroke-miterlimit:4;stroke-dasharray:none;stroke-opacity:1" d="M 69,262 C 266,275 266,275 266,275" id="path2401"/>
    <path style="fill:#b4e2ff;fill-opacity:1;stroke:#000000;stroke-width:2;stroke-linecap:butt;stroke-miterlimit:4;stroke-dasharray:none;stroke-opacity:1" d="M 196,174 C 276,240 276,240 276,240" id="path2403"/>
    <path style="fill:#b4e2ff;fill-opacity:1;stroke:#000000;stroke-width:2;stroke-linecap:butt;stroke-miterlimit:4;stroke-dasharray:none;stroke-opacity:1" d="M 39,73 C 37,233 37,233 37,233" id="path2405"/>
    <path style="font-size:20px;font-style:normal;font-weight:bold;text-align:center;text-anchor:middle;fill:#000000;fill-opacity:1;stroke:none;stroke-width:1px;stroke-linecap:butt;stroke-linejoin:miter;stroke-opacity:1;font-family:Bitstream Vera Sans;-inkscape-font-specification:Sans Bold" d="M 160.86328,23.073655 C 161.84634,23.327569 162.59179,23.770277 163.09961,24.40178 C 163.61392,25.026786 163.87108,25.824311 163.87109,26.794358 C 163.87108,28.239673 163.3177,29.339933 162.21094,30.095139 C 161.10416,30.843837 159.48958,31.218186 157.36719,31.218186 C 156.61848,31.218186 155.86653,31.156337 155.11133,31.032639 C 154.36263,30.915452 153.62044,30.736416 152.88477,30.49553 L 152.88477,27.595139 C 153.58789,27.946705 154.2845,28.213632 154.97461,28.395921 C 155.67122,28.571704 156.35481,28.659595 157.02539,28.659593 C 158.02148,28.659595 158.7832,28.487069 159.31055,28.142014 C 159.84439,27.796966 160.11132,27.302174 160.11133,26.657639 C 160.11132,25.993582 159.83788,25.49228 159.29102,25.153733 C 158.75064,24.808687 157.94986,24.636161 156.88867,24.636155 L 155.38477,24.636155 L 155.38477,22.21428 L 156.9668,22.21428 C 157.9108,22.214289 158.61393,22.067805 159.07617,21.774827 C 159.5384,21.475357 159.76952,21.022884 159.76953,20.417405 C 159.76952,19.85752 159.54491,19.424578 159.0957,19.118577 C 158.64648,18.8126 158.01171,18.659605 157.19141,18.659593 C 156.58593,18.659605 155.97395,18.727964 155.35547,18.864671 C 154.73698,19.001401 154.12174,19.203224 153.50977,19.470139 L 153.50977,16.716233 C 154.25195,16.507914 154.98763,16.351664 155.7168,16.247483 C 156.44596,16.143331 157.1621,16.091248 157.86523,16.091233 C 159.75976,16.091248 161.17577,16.403748 162.11328,17.028733 C 163.05728,17.647236 163.52928,18.58148 163.5293,19.831468 C 163.52928,20.684342 163.30468,21.384212 162.85547,21.931077 C 162.40624,22.47145 161.74218,22.852309 160.86328,23.073655" id="flowRoot2407"/>
    <path style="font-size:20px;font-style:normal;font-weight:bold;text-align:center;text-anchor:middle;fill:#000000;fill-opacity:1;stroke:none;stroke-width:1px;stroke-linecap:butt;stroke-linejoin:miter;stroke-opacity:1;font-family:Bitstream Vera Sans;-inkscape-font-specification:Sans Bold" d="M 61.509766,147.41155 C 60.806634,147.41155 60.26627,147.60361 59.888672,147.98772 C 59.511063,148.37184 59.322261,148.92197 59.322266,149.63811 C 59.322261,150.35426 59.511063,150.90439 59.888672,151.2885 C 60.26627,151.66611 60.806634,151.85491 61.509766,151.85491 C 62.206373,151.85491 62.740226,151.66611 63.111328,151.2885 C 63.482413,150.90439 63.66796,150.35426 63.667969,149.63811 C 63.66796,148.91546 63.482413,148.36533 63.111328,147.98772 C 62.740226,147.60361 62.206373,147.41155 61.509766,147.41155 M 58.765625,146.17131 C 57.880205,145.90439 57.212888,145.49424 56.763672,144.94084 C 56.314451,144.38747 56.089842,143.69736 56.089844,142.87053 C 56.089842,141.64007 56.548826,140.70257 57.466797,140.05803 C 58.384762,139.41351 59.732417,139.09125 61.509766,139.09123 C 63.27408,139.09125 64.615224,139.41351 65.533203,140.05803 C 66.45116,140.69606 66.910144,141.63356 66.910156,142.87053 C 66.910144,143.69736 66.68228,144.38747 66.226562,144.94084 C 65.777333,145.49424 65.110015,145.90439 64.224609,146.17131 C 65.214182,146.44476 65.959624,146.89072 66.460938,147.5092 C 66.968738,148.12119 67.222644,148.89593 67.222656,149.83342 C 67.222644,151.27874 66.740873,152.37248 65.777344,153.11467 C 64.820302,153.85035 63.397778,154.21819 61.509766,154.21819 C 59.615229,154.21819 58.182939,153.85035 57.212891,153.11467 C 56.249347,152.37248 55.767577,151.27874 55.767578,149.83342 C 55.767577,148.89593 56.018228,148.12119 56.519531,147.5092 C 57.027341,146.89072 57.776038,146.44476 58.765625,146.17131 M 59.644531,143.25139 C 59.644526,143.83083 59.804031,144.27679 60.123047,144.58928 C 60.448562,144.90179 60.910801,145.05804 61.509766,145.05803 C 62.095696,145.05804 62.548169,144.90179 62.867188,144.58928 C 63.186189,144.27679 63.345694,143.83083 63.345703,143.25139 C 63.345694,142.67197 63.186189,142.22927 62.867188,141.92326 C 62.548169,141.61078 62.095696,141.45453 61.509766,141.45451 C 60.910801,141.45453 60.448562,141.61078 60.123047,141.92326 C 59.804031,142.23578 59.644526,142.67848 59.644531,143.25139" id="flowRoot2415"/>
    <path style="font-size:20px;font-style:normal;font-weight:bold;text-align:center;text-anchor:middle;fill:#000000;fill-opacity:1;stroke:none;stroke-width:1px;stroke-linecap:butt;stroke-linejoin:miter;stroke-opacity:1;font-family:Bitstream Vera Sans;-inkscape-font-specification:Sans Bold" d="M 142.30859,288.17131 L 148.72461,288.17131 L 148.72461,290.93498 L 138.12891,290.93498 L 138.12891,288.17131 L 143.45117,283.47405 C 143.92642,283.04437 144.27799,282.62444 144.50586,282.21428 C 144.73372,281.80413 144.84765,281.3777 144.84766,280.93498 C 144.84765,280.2514 144.61653,279.70127 144.1543,279.28459 C 143.69856,278.86794 143.08984,278.6596 142.32812,278.65959 C 141.74218,278.6596 141.10091,278.78656 140.4043,279.04045 C 139.70768,279.28786 138.96224,279.65895 138.16797,280.15373 L 138.16797,276.95061 C 139.01432,276.67067 139.85091,276.45909 140.67773,276.31584 C 141.50455,276.16612 142.3151,276.09125 143.10938,276.09123 C 144.85416,276.09125 146.20832,276.47536 147.17188,277.24358 C 148.14192,278.01182 148.62694,279.08278 148.62695,280.45647 C 148.62694,281.25075 148.42186,281.99293 148.01172,282.68303 C 147.60155,283.36663 146.73892,284.2846 145.42383,285.43694 L 142.30859,288.17131" id="flowRoot2423"/>
    <path style="font-size:20px;font-style:normal;font-weight:bold;text-align:center;text-anchor:middle;fill:#000000;fill-opacity:1;stroke:none;stroke-width:1px;stroke-linecap:butt;stroke-linejoin:miter;stroke-opacity:1;font-family:Bitstream Vera Sans;-inkscape-font-specification:Sans Bold" d="M 244.80859,194.17131 L 251.22461,194.17131 L 251.22461,196.93498 L 240.62891,196.93498 L 240.62891,194.17131 L 245.95117,189.47405 C 246.42642,189.04437 246.77799,188.62444 247.00586,188.21428 C 247.23372,187.80413 247.34765,187.3777 247.34766,186.93498 C 247.34765,186.2514 247.11653,185.70127 246.6543,185.28459 C 246.19856,184.86794 245.58984,184.6596 244.82812,184.65959 C 244.24218,184.6596 243.60091,184.78656 242.9043,185.04045 C 242.20768,185.28786 241.46224,185.65895 240.66797,186.15373 L 240.66797,182.95061 C 241.51432,182.67067 242.35091,182.45909 243.17773,182.31584 C 244.00455,182.16612 244.8151,182.09125 245.60938,182.09123 C 247.35416,182.09125 248.70832,182.47536 249.67188,183.24358 C 250.64192,184.01182 251.12694,185.08278 251.12695,186.45647 C 251.12694,187.25075 250.92186,187.99293 250.51172,188.68303 C 250.10155,189.36663 249.23892,190.2846 247.92383,191.43694 L 244.80859,194.17131" id="flowRoot2431"/>
    <path style="font-size:20px;font-style:normal;font-weight:bold;text-align:center;text-anchor:middle;fill:#000000;fill-opacity:1;stroke:none;stroke-width:1px;stroke-linecap:butt;stroke-linejoin:miter;stroke-opacity:1;font-family:Bitstream Vera Sans;-inkscape-font-specification:Sans Bold" d="M 307.39062,152.33733 L 310.71094,152.33733 L 310.71094,142.9135 L 307.30273,143.61662 L 307.30273,141.05803 L 310.69141,140.35491 L 314.26562,140.35491 L 314.26562,152.33733 L 317.58594,152.33733 L 317.58594,154.93498 L 307.39062,154.93498 L 307.39062,152.33733" id="flowRoot2439"/>
    <path style="font-size:20px;font-style:normal;font-weight:bold;text-align:center;text-anchor:middle;fill:#000000;fill-opacity:1;stroke:none;stroke-width:1px;stroke-linecap:butt;stroke-linejoin:miter;stroke-opacity:1;font-family:Bitstream Vera Sans;-inkscape-font-specification:Sans Bold" d="M 374.76367,88.737718 C 374.10611,88.737725 373.61132,88.952568 373.2793,89.382249 C 372.95377,89.805432 372.79101,90.443452 372.79102,91.296311 C 372.79101,92.14918 372.95377,92.790455 373.2793,93.220139 C 373.61132,93.643319 374.10611,93.854907 374.76367,93.854905 C 375.42773,93.854907 375.92252,93.643319 376.24805,93.220139 C 376.58007,92.790455 376.74608,92.14918 376.74609,91.296311 C 376.74608,90.443452 376.58007,89.805432 376.24805,89.382249 C 375.92252,88.952568 375.42773,88.737725 374.76367,88.737718 M 379.41211,81.735764 L 379.41211,84.431077 C 378.79361,84.13812 378.21093,83.923276 377.66406,83.786546 C 377.11718,83.643329 376.58332,83.571714 376.0625,83.571702 C 374.9427,83.571714 374.07031,83.884214 373.44531,84.509202 C 372.82031,85.127702 372.45572,86.048925 372.35156,87.272874 C 372.78124,86.953872 373.24674,86.716242 373.74805,86.559983 C 374.24934,86.397232 374.79622,86.315852 375.38867,86.315843 C 376.87955,86.315852 378.08072,86.75205 378.99219,87.624436 C 379.91014,88.49684 380.36913,89.639417 380.36914,91.052171 C 380.36913,92.614674 379.85806,93.867928 378.83594,94.811936 C 377.81379,95.749437 376.44335,96.218186 374.72461,96.218186 C 372.83007,96.218186 371.36198,95.580166 370.32031,94.304124 C 369.28515,93.021575 368.76758,91.20517 368.76758,88.854905 C 368.76758,86.44606 369.37305,84.554786 370.58398,83.181077 C 371.80143,81.800883 373.46809,81.110779 375.58398,81.110764 C 376.25455,81.110779 376.90559,81.162863 377.53711,81.267014 C 378.16861,81.371196 378.79361,81.527446 379.41211,81.735764" id="flowRoot2447"/>
    <path transform="translate(0,3)" style="font-size:28px;font-style:normal;font-weight:bold;text-align:center;text-anchor:middle;fill:#000000;fill-opacity:1;stroke:none;stroke-width:1px;stroke-linecap:butt;stroke-linejoin:miter;stroke-opacity:1;font-family:Bitstream Vera Sans;-inkscape-font-specification:Sans Bold" d="M 44.628906,45.190227 L 36.398438,45.190227 L 35.099609,48.908977 L 29.808594,48.908977 L 37.369141,28.496867 L 43.644531,28.496867 L 51.205078,48.908977 L 45.914062,48.908977 L 44.628906,45.190227 M 37.710938,41.403117 L 43.302734,41.403117 L 40.513672,33.282023 L 37.710938,41.403117" id="flowRoot2455"/>
    <path transform="translate(-2,-2)" style="font-size:28px;font-style:normal;font-weight:bold;text-align:center;text-anchor:middle;fill:#000000;fill-opacity:1;stroke:none;stroke-width:1px;stroke-linecap:butt;stroke-linejoin:miter;stroke-opacity:1;font-family:Bitstream Vera Sans;-inkscape-font-specification:Sans Bold" d="M 300.00391,48.787883 C 299.03774,49.289185 298.03058,49.66744 296.98242,49.922648 C 295.93423,50.177856 294.84048,50.30546 293.70117,50.305461 C 290.30142,50.30546 287.60807,49.357545 285.62109,47.461711 C 283.63411,45.556767 282.64062,42.977343 282.64062,39.72343 C 282.64062,36.460422 283.63411,33.880998 285.62109,31.985148 C 287.60807,30.08022 290.30142,29.127747 293.70117,29.127727 C 294.84048,29.127747 295.93423,29.255351 296.98242,29.510539 C 298.03058,29.765767 299.03774,30.144022 300.00391,30.645305 L 300.00391,34.869914 C 299.02863,34.204565 298.06704,33.716935 297.11914,33.407023 C 296.17121,33.097144 295.17316,32.942197 294.125,32.94218 C 292.24738,32.942197 290.77082,33.543759 289.69531,34.746867 C 288.61978,35.950006 288.08202,37.608859 288.08203,39.72343 C 288.08202,41.828906 288.61978,43.483202 289.69531,44.68632 C 290.77082,45.889449 292.24738,46.491011 294.125,46.491008 C 295.17316,46.491011 296.17121,46.336063 297.11914,46.026164 C 298.06704,45.716272 299.02863,45.228643 300.00391,44.563273 L 300.00391,48.787883" id="flowRoot2463"/>
    <path transform="translate(1,1)" style="font-size:28px;font-style:normal;font-weight:bold;text-align:center;text-anchor:middle;fill:#000000;fill-opacity:1;stroke:none;stroke-width:1px;stroke-linecap:butt;stroke-linejoin:miter;stroke-opacity:1;font-family:Bitstream Vera Sans;-inkscape-font-specification:Sans Bold" d="M 33.212891,256.47538 L 33.212891,268.93046 L 35.099609,268.93046 C 37.250639,268.93046 38.891263,268.39726 40.021484,267.33085 C 41.160792,266.26445 41.730452,264.71497 41.730469,262.68241 C 41.730452,260.65899 41.165349,259.11863 40.035156,258.06132 C 38.904934,257.00404 37.259754,256.4754 35.099609,256.47538 L 33.212891,256.47538 M 27.949219,252.49687 L 33.5,252.49687 C 36.598947,252.49689 38.904934,252.72019 40.417969,253.16679 C 41.940088,253.60431 43.243472,254.3517 44.328125,255.40898 C 45.285136,256.32957 45.996073,257.39141 46.460938,258.59452 C 46.92576,259.79766 47.158181,261.16029 47.158203,262.68241 C 47.158181,264.22279 46.92576,265.59909 46.460938,266.81132 C 45.996073,268.01445 45.285136,269.0763 44.328125,269.99687 C 43.234357,271.05416 41.921858,271.80611 40.390625,272.25273 C 38.859362,272.69023 36.562489,272.90898 33.5,272.90898 L 27.949219,272.90898 L 27.949219,252.49687" id="flowRoot2471"/>
    <path style="font-size:28px;font-style:normal;font-weight:bold;text-align:center;text-anchor:middle;fill:#000000;fill-opacity:1;stroke:none;stroke-width:1px;stroke-linecap:butt;stroke-linejoin:miter;stroke-opacity:1;font-family:Bitstream Vera Sans;-inkscape-font-specification:Sans Bold" d="M 166.58203,160.39921 C 167.41145,160.39922 168.04035,160.21693 168.46875,159.85234 C 168.89712,159.48777 169.11131,158.95001 169.11133,158.23905 C 169.11131,157.53725 168.89712,157.00404 168.46875,156.63945 C 168.04035,156.26576 167.41145,156.07892 166.58203,156.0789 L 163.66992,156.0789 L 163.66992,160.39921 L 166.58203,160.39921 M 166.75977,169.32695 C 167.81705,169.32695 168.61001,169.10364 169.13867,168.65702 C 169.67642,168.21041 169.9453,167.53594 169.94531,166.63359 C 169.9453,165.74948 169.68098,165.08867 169.15234,164.65116 C 168.62369,164.20456 167.82616,163.98125 166.75977,163.98124 L 163.66992,163.98124 L 163.66992,169.32695 L 166.75977,169.32695 M 171.6543,161.98515 C 172.78449,162.31328 173.65949,162.9194 174.2793,163.80351 C 174.89907,164.68763 175.20897,165.77226 175.20898,167.05741 C 175.20897,169.02617 174.5436,170.49361 173.21289,171.45976 C 171.88215,172.4259 169.85871,172.90898 167.14258,172.90898 L 158.40625,172.90898 L 158.40625,152.49687 L 166.30859,152.49687 C 169.14322,152.49689 171.194,152.92527 172.46094,153.78202 C 173.73696,154.63881 174.37498,156.01056 174.375,157.89726 C 174.37498,158.89076 174.14256,159.73842 173.67773,160.44023 C 173.21287,161.13295 172.53839,161.64792 171.6543,161.98515" id="flowRoot2479"/>
    <path transform="translate(-1,3)" style="font-size:28px;font-style:normal;font-weight:bold;text-align:center;text-anchor:middle;fill:#000000;fill-opacity:1;stroke:none;stroke-width:1px;stroke-linecap:butt;stroke-linejoin:miter;stroke-opacity:1;font-family:Bitstream Vera Sans;-inkscape-font-specification:Sans Bold" d="M 288,251.49687 L 302.20508,251.49687 L 302.20508,255.47538 L 293.26367,255.47538 L 293.26367,259.27616 L 301.67188,259.27616 L 301.67188,263.25468 L 293.26367,263.25468 L 293.26367,267.93046 L 302.50586,267.93046 L 302.50586,271.90898 L 288,271.90898 L 288,251.49687" id="flowRoot2487"/>
    <path style="font-size:28px;font-style:normal;font-weight:bold;text-align:center;text-anchor:middle;fill:#000000;fill-opacity:1;stroke:none;stroke-width:1px;stroke-linecap:butt;stroke-linejoin:miter;stroke-opacity:1;font-family:Bitstream Vera Sans;-inkscape-font-specification:Sans Bold" d="M 419,185.49687 L 433.20508,185.49687 L 433.20508,189.47538 L 424.26367,189.47538 L 424.26367,193.27616 L 432.67188,193.27616 L 432.67188,197.25468 L 424.26367,197.25468 L 424.26367,205.90898 L 419,205.90898 L 419,185.49687" id="flowRoot2495"/>
  </g>
</svg>