<svg width="100%" height="100%" viewBox="0 0 800 800" version="1.1" xmlns="http://www.w3.org/2000/svg"
    xmlns:xlink="http://www.w3.org/1999/xlink" xml:space="preserve" xmlns:serif="http://www.serif.com/"
    style="fill-rule:evenodd;clip-rule:evenodd;stroke-linejoin:round;stroke-miterlimit:2;">
    <g id="Ebene" transform="matrix(1,0,0,1,75.4018,50.0045)">
        <g id="inner">
            <path
                d="M581.8,425.5L577.2,425.5L377.7,108.9C387,97.1 392.1,82.5 392.1,67.5C392.3,30.2 362.2,-0.2 325,-0.4C287.8,-0.6 257.3,29.5 257.1,66.7C257,81.4 261.7,95.7 270.5,107.4L70,425.7L67.2,425.7C29.9,425.7 -0.3,456 -0.3,493.2C-0.3,530.5 30,560.7 67.2,560.7C91.8,560.7 114.5,547.3 126.3,525.7L256.3,600.9C238.6,633.7 250.9,674.7 283.8,692.3C316.6,710 357.6,697.7 375.2,664.8C385.9,644.8 385.9,620.8 375.2,600.9L520,520C534.7,554.2 574.5,570 608.7,555.3C642.9,540.6 658.7,500.8 644,466.6C633.3,441.8 608.9,425.8 581.9,425.8L581.8,425.5ZM531.8,447.4L436.1,388.1C464.8,326.5 438.1,253.3 376.5,224.7C363.3,218.6 349.1,214.8 334.6,213.6L334.6,134.1C344.8,132.6 354.5,128.8 362.9,122.9L556.5,430.5C547.3,434.3 539,440 532.2,447.4L531.8,447.4ZM316,564.8C298.2,565 281.2,572.1 268.7,584.8L153.6,517.7L482.6,517.7L363.5,584.4C350.9,571.8 333.8,564.8 316,564.8ZM514.3,493L514.3,497.7L134.3,497.7L134.3,493C134.7,484 133.2,475 130,466.5L224.7,407.8C264.1,463.3 341,476.3 396.5,436.9C408.5,428.4 418.9,417.7 427.2,405.5L521.5,463.9C517,472.9 514.5,482.9 514.3,493ZM324.3,233C381.4,232.8 427.9,278.9 428.1,336C428.3,393.1 382.2,439.6 325.1,439.8C268,440 221.5,393.9 221.3,336.8L221.3,336.4C221.4,279.4 267.6,233.1 324.6,233L324.3,233ZM324.3,20C350.5,19.9 371.8,41.2 371.9,67.4C372,93.6 350.7,114.9 324.5,115C298.3,115.1 277,93.8 276.9,67.6L276.9,67.5C276.9,41.3 298.2,20 324.3,20L324.6,20L324.3,20ZM285.1,122C293.8,128.3 303.9,132.5 314.6,134.1L314.6,214.1C250.8,219.3 201.6,272.4 201.3,336.4C201.3,355.2 205.6,373.8 214,390.6L118.9,450C111.6,441.1 102.1,434.2 91.3,430L285.1,122ZM67.5,540C41.3,540.1 20,518.8 19.9,492.6C19.8,466.4 41.1,445.1 67.3,445C93.5,444.9 114.8,466.2 114.9,492.4L114.9,492.6C114.8,518.8 93.7,539.9 67.5,540ZM316,680C289.8,680 268.5,658.7 268.5,632.5C268.5,606.3 289.8,585 316,585C342.2,585 363.5,606.3 363.5,632.5L363.5,632.6C363.4,658.8 342.2,680 316,680ZM581.8,540C555.6,540 534.3,518.7 534.3,492.5C534.3,466.3 555.6,445 581.8,445C608,445 629.3,466.3 629.3,492.5L629.3,492.6C629.2,518.8 608,540 581.8,540Z"
                style="fill:url(#_Linear1);fill-rule:nonzero;" />
        </g>
    </g>
    <defs>
        <linearGradient id="_Linear1" x1="0" y1="0" x2="1" y2="0" gradientUnits="userSpaceOnUse"
            gradientTransform="matrix(43.67,43.67,-43.67,43.67,10.6054,737.253)">
            <stop offset="0" style="stop-color:black;stop-opacity:1" />
            <stop offset="1" style="stop-color:black;stop-opacity:1" />
        </linearGradient>
    </defs>
</svg>