<?xml version="1.0" encoding="utf-8"?>
<!-- Generator: Adobe Illustrator 23.0.3, SVG Export Plug-In . SVG Version: 6.00 Build 0)  -->
<svg version="1.1" id="Ebene_1" xmlns="http://www.w3.org/2000/svg" xmlns:xlink="http://www.w3.org/1999/xlink" x="0px" y="0px"
	 viewBox="0 0 800 800" style="enable-background:new 0 0 800 800;" xml:space="preserve">
<style type="text/css">
	.st0{fill:url(#SVGID_1_);}
</style>
<title>logo</title>
<g id="Ebene">
	<g id="inner">
		
			<linearGradient id="SVGID_1_" gradientUnits="userSpaceOnUse" x1="10.6054" y1="737.2526" x2="54.2754" y2="780.9226">
			<stop  offset="0" style="stop-color:#000000"/>
		</linearGradient>
		<path class="st0" d="M581.8,425.5h-4.6L377.7,108.9c9.3-11.8,14.4-26.4,14.4-41.4c0.2-37.3-29.9-67.7-67.1-67.9
			s-67.7,29.9-67.9,67.1c-0.1,14.7,4.6,29,13.4,40.7L70,425.7h-2.8c-37.3,0-67.5,30.3-67.5,67.5c0,37.3,30.3,67.5,67.5,67.5
			c24.6,0,47.3-13.4,59.1-35l130,75.2c-17.7,32.8-5.4,73.8,27.5,91.4c32.8,17.7,73.8,5.4,91.4-27.5c10.7-20,10.7-44,0-63.9L520,520
			c14.7,34.2,54.5,50,88.7,35.3c34.2-14.7,50-54.5,35.3-88.7c-10.7-24.8-35.1-40.8-62.1-40.8L581.8,425.5z M531.8,447.4l-95.7-59.3
			c28.7-61.6,2-134.8-59.6-163.4c-13.2-6.1-27.4-9.9-41.9-11.1v-79.5c10.2-1.5,19.9-5.3,28.3-11.2l193.6,307.6
			c-9.2,3.8-17.5,9.5-24.3,16.9L531.8,447.4z M316,564.8c-17.8,0.2-34.8,7.3-47.3,20l-115.1-67.1h329l-119.1,66.7
			C350.9,571.8,333.8,564.8,316,564.8z M514.3,493c0,1.6,0,3.1,0,4.7h-380c0-1.6,0-3.1,0-4.7c0.4-9-1.1-18-4.3-26.5l94.7-58.7
			c39.4,55.5,116.3,68.5,171.8,29.1c12-8.5,22.4-19.2,30.7-31.4l94.3,58.4C517,472.9,514.5,482.9,514.3,493z M324.3,233
			c57.1-0.2,103.6,45.9,103.8,103s-45.9,103.6-103,103.8s-103.6-45.9-103.8-103c0-0.1,0-0.3,0-0.4c0.1-57,46.3-103.3,103.3-103.4
			H324.3z M324.3,20c26.2-0.1,47.5,21.2,47.6,47.4s-21.2,47.5-47.4,47.6c-26.2,0.1-47.5-21.2-47.6-47.4c0,0,0-0.1,0-0.1
			C276.9,41.3,298.2,20,324.3,20c0.2,0,0.2,0,0.3,0H324.3z M285.1,122c8.7,6.3,18.8,10.5,29.5,12.1v80
			c-63.8,5.2-113,58.3-113.3,122.3c0,18.8,4.3,37.4,12.7,54.2L118.9,450c-7.3-8.9-16.8-15.8-27.6-20L285.1,122z M67.5,540
			c-26.2,0.1-47.5-21.2-47.6-47.4c-0.1-26.2,21.2-47.5,47.4-47.6c26.2-0.1,47.5,21.2,47.6,47.4c0,0.1,0,0.1,0,0.2
			C114.8,518.8,93.7,539.9,67.5,540z M316,680c-26.2,0-47.5-21.3-47.5-47.5c0-26.2,21.3-47.5,47.5-47.5s47.5,21.3,47.5,47.5
			c0,0,0,0.1,0,0.1C363.4,658.8,342.2,680,316,680z M581.8,540c-26.2,0-47.5-21.3-47.5-47.5s21.3-47.5,47.5-47.5
			c26.2,0,47.5,21.3,47.5,47.5c0,0,0,0.1,0,0.1C629.2,518.8,608,540,581.8,540z"/>
	</g>
</g>
</svg>
